<?xml version="1.0" encoding="UTF-8"?>
<!DOCTYPE svg PUBLIC "-//W3C//DTD SVG 1.1//EN" "http://www.w3.org/Graphics/SVG/1.1/DTD/svg11.dtd">
<!-- Creator: CorelDRAW 2020 (64 Bit) -->
<svg xmlns="http://www.w3.org/2000/svg" xml:space="preserve" width="124.351mm" height="77.4382mm" version="1.1" style="shape-rendering:geometricPrecision; text-rendering:geometricPrecision; image-rendering:optimizeQuality; fill-rule:evenodd; clip-rule:evenodd"
viewBox="0 0 9467.49 5895.77"
 xmlns:xlink="http://www.w3.org/1999/xlink"
 xmlns:xodm="http://www.corel.com/coreldraw/odm/2003">
 <defs>
  <style type="text/css">
   <![CDATA[
    .fil4 {fill:none}
    .fil1 {fill:#3E4095}
    .fil3 {fill:#FFCC29;fill-rule:nonzero}
    .fil0 {fill:#3E4095;fill-rule:nonzero}
    .fil2 {fill:#201E1E;fill-rule:nonzero}
   ]]>
  </style>
 </defs>
 <g id="Camada_x0020_1">
  <metadata id="CorelCorpID_0Corel-Layer"/>
  <g id="_2237983391744">
   <path class="fil0" d="M1668.67 5245.86c0,14.28 -10.78,29.8 -32.19,46.58 -40.69,31.62 -86.37,47.49 -136.8,47.49 -61.09,0 -113.11,-21.53 -156.06,-64.49 -42.96,-42.96 -64.49,-94.98 -64.49,-156.06 0,-60.98 21.54,-113 64.49,-155.94 42.95,-42.96 94.97,-64.5 156.06,-64.5 50.43,0 96.11,15.87 136.8,47.49 21.41,16.77 32.19,32.3 32.19,46.47 0,11.45 -4.43,21.54 -13.04,30.26 -8.73,8.73 -18.81,13.03 -30.26,13.03 -9.52,0 -19.37,-4.3 -29.58,-12.92 -2.26,-2.26 -6.68,-6.12 -13.26,-11.56 -23.91,-18.81 -51.56,-28.22 -82.84,-28.22 -37.74,0 -69.82,13.26 -96.22,39.78 -26.52,26.41 -39.79,58.48 -39.79,96.11 0,37.74 13.27,69.82 39.79,96.22 26.4,26.53 58.48,39.78 96.22,39.78 31.17,0 58.82,-9.4 82.84,-28.22 2.5,-2.26 6.91,-6.11 13.26,-11.66 10.21,-8.62 20.06,-12.92 29.58,-12.92 11.45,0 21.54,4.42 30.26,13.14 8.61,8.73 13.04,18.81 13.04,30.15zm333.31 -8.61c0,6.45 -2.15,13.83 -6.34,22.09 -12.59,24.49 -32.08,44.09 -58.72,58.94 -25.5,14.39 -52.47,21.65 -80.8,21.65 -44.66,0 -82.74,-15.65 -114.02,-47.03 -31.39,-31.29 -47.04,-69.37 -47.04,-114.13 0,-44.65 15.65,-82.74 47.04,-114.01 31.28,-31.4 69.36,-47.03 114.02,-47.03 21.87,0 43.74,4.98 65.85,14.95 21.98,9.87 40.34,23.12 55.18,39.45 16.09,17.79 24.26,34.57 24.26,50.2 0,14.4 -7.03,25.73 -21.08,33.77l-158.22 91.13c10.77,5.43 22.09,8.15 34,8.15 18.36,0 33.54,-5.22 45.67,-15.53 8.28,-9.4 16.54,-18.69 24.6,-27.99 11.1,-10.88 21.53,-16.43 31.4,-16.43 11.44,0 21.76,4.19 30.71,12.36 8.95,8.15 13.48,18.01 13.48,29.46zm-111.41 -127.05c-10.77,-5.33 -22.21,-7.93 -34.34,-7.93 -20.29,0 -37.74,6.91 -52.59,20.73 -14.74,13.83 -22.67,30.95 -23.69,51.23l110.61 -64.04zm407.21 187.46c0,12.36 -3.96,22.44 -11.9,30.38 -7.93,7.93 -18.02,11.89 -30.38,11.89 -12.34,0 -22.44,-3.97 -30.37,-11.89 -7.93,-7.94 -11.9,-18.02 -11.9,-30.38l0 -158.44c0,-10.19 -3.62,-18.93 -10.77,-26.06 -7.25,-7.26 -15.98,-10.88 -26.18,-10.88 -10.2,0 -18.92,3.62 -26.18,10.88 -7.14,7.13 -10.77,15.87 -10.77,26.06l0 158.44c0,12.36 -3.97,22.44 -11.9,30.38 -7.93,7.93 -18.02,11.89 -30.38,11.89 -12.36,0 -22.44,-3.97 -30.37,-11.89 -7.93,-7.94 -11.91,-18.02 -11.91,-30.38l0 -237.66c0,-12.36 3.97,-22.44 11.91,-30.38 7.93,-7.93 18.01,-11.89 30.37,-11.89 11.79,0 21.53,3.62 29.35,10.88 15.76,-7.26 32.43,-10.88 49.87,-10.88 33.67,0 62.34,11.78 86.03,35.35 23.69,23.59 35.47,52.26 35.47,85.91l0 158.67zm280.62 -18.48c0,20.4 -8.62,36.15 -25.84,47.03 -14.39,9.19 -32.52,13.72 -54.17,13.72 -28.11,0 -52.14,-9.86 -71.98,-29.7 -19.83,-19.83 -29.69,-43.85 -29.69,-71.96l0 -136 -17.12 0c-12.34,0 -22.44,-3.97 -30.36,-11.91 -7.94,-7.93 -11.91,-18.02 -11.91,-30.37 0,-12.36 3.97,-22.44 11.91,-30.38 7.93,-7.93 18.02,-11.89 30.36,-11.89l17.12 0 0 -76.51c0,-12.35 3.96,-22.44 11.9,-30.37 7.93,-7.93 18.02,-11.91 30.38,-11.91 12.34,0 22.43,3.97 30.36,11.91 7.94,7.93 11.9,18.02 11.9,30.37l0 76.51 17.12 0c12.34,0 22.44,3.96 30.36,11.89 7.94,7.94 11.91,18.02 11.91,30.38 0,12.35 -3.97,22.44 -11.91,30.37 -7.93,7.94 -18.02,11.91 -30.36,11.91l-17.12 0 0 136c0,11.44 5.67,17.11 17.12,17.11 3.17,0 9.63,-3.51 19.15,-10.65 9.64,-7.14 18.13,-10.66 25.51,-10.66 10.88,0 19.71,4.99 26.4,14.96 6,8.84 8.95,18.93 8.95,30.15zm248.99 -188.25c0,11.45 -4.53,21.2 -13.48,29.36 -8.95,8.27 -19.26,12.36 -30.83,12.36 -10.54,0 -20.74,-5.1 -30.38,-15.19 -9.63,-10.08 -16.32,-15.18 -19.83,-15.18 -11.44,0 -17.11,5.66 -17.11,17.11l0 178.28c0,12.36 -3.97,22.44 -11.9,30.38 -7.93,7.93 -18.02,11.89 -30.38,11.89 -12.36,0 -22.44,-3.97 -30.37,-11.89 -7.93,-7.94 -11.9,-18.02 -11.9,-30.38l0 -237.66c0,-12.36 3.97,-22.44 11.9,-30.38 7.93,-7.93 18.01,-11.89 30.37,-11.89 8.95,0 16.89,2.26 23.69,6.68 11.45,-4.42 23.35,-6.68 35.7,-6.68 17.91,0 34.92,4.64 51.01,13.82 15.98,9.3 28.32,21.65 36.94,37.18 4.42,7.94 6.57,15.3 6.57,22.21zm348.62 87.84c0,45 -15.65,83.08 -46.92,114.24 -31.16,31.28 -69.25,46.92 -114.12,46.92 -45,0 -83.09,-15.65 -114.25,-46.92 -31.28,-31.16 -46.92,-69.24 -46.92,-114.24 0,-44.88 15.64,-82.96 46.92,-114.13 31.16,-31.28 69.24,-46.91 114.25,-46.91 44.87,0 82.96,15.63 114.12,46.91 31.28,31.17 46.92,69.24 46.92,114.13zm-84.55 0c0,-21.19 -7.48,-39.33 -22.32,-54.17 -14.85,-14.85 -32.99,-22.32 -54.17,-22.32 -21.31,0 -39.45,7.48 -54.3,22.32 -14.84,14.84 -22.32,32.98 -22.32,54.17 0,21.31 7.48,39.44 22.32,54.29 14.85,14.85 32.99,22.32 54.3,22.32 21.18,0 39.32,-7.48 54.17,-22.32 14.85,-14.85 22.32,-32.98 22.32,-54.29zm581.19 118.89c0,12.36 -3.97,22.44 -11.91,30.38 -7.93,7.93 -18.02,11.89 -30.37,11.89 -17.8,0 -30.38,-7.26 -37.74,-21.87 -25.05,14.62 -52.02,21.87 -81.04,21.87 -44.77,0 -82.84,-15.65 -114.12,-47.03 -31.4,-31.29 -47.04,-69.37 -47.04,-114.13 0,-44.65 15.65,-82.74 47.04,-114.01 31.28,-31.4 69.35,-47.03 114.01,-47.03 27.31,0 52.81,6.46 76.61,19.27l0 -95.78c0,-12.35 3.97,-22.44 11.89,-30.37 7.94,-7.93 18.02,-11.91 30.38,-11.91 12.35,0 22.44,3.97 30.37,11.91 7.94,7.93 11.91,18.02 11.91,30.37l0 356.44zm-84.55 -118.89c0,-21.19 -7.49,-39.33 -22.33,-54.17 -14.85,-14.85 -32.98,-22.32 -54.18,-22.32 -21.3,0 -39.44,7.48 -54.28,22.32 -14.85,14.84 -22.33,32.98 -22.33,54.17 0,21.31 7.48,39.44 22.33,54.29 14.85,14.85 32.98,22.32 54.28,22.32 21.2,0 39.33,-7.48 54.18,-22.32 14.84,-14.85 22.33,-32.98 22.33,-54.29zm444.16 58.49c0,6.45 -2.15,13.83 -6.34,22.09 -12.59,24.49 -32.08,44.09 -58.72,58.94 -25.5,14.39 -52.47,21.65 -80.8,21.65 -44.66,0 -82.74,-15.65 -114.02,-47.03 -31.39,-31.29 -47.04,-69.37 -47.04,-114.13 0,-44.65 15.65,-82.74 47.04,-114.01 31.28,-31.4 69.36,-47.03 114.02,-47.03 21.87,0 43.74,4.98 65.85,14.95 21.98,9.87 40.34,23.12 55.18,39.45 16.09,17.79 24.26,34.57 24.26,50.2 0,14.4 -7.03,25.73 -21.08,33.77l-158.22 91.13c10.77,5.43 22.09,8.15 34,8.15 18.36,0 33.55,-5.22 45.67,-15.53 8.28,-9.4 16.54,-18.69 24.6,-27.99 11.1,-10.88 21.53,-16.43 31.4,-16.43 11.44,0 21.76,4.19 30.71,12.36 8.95,8.15 13.48,18.01 13.48,29.46zm-111.41 -127.05c-10.77,-5.33 -22.21,-7.93 -34.34,-7.93 -20.29,0 -37.74,6.91 -52.59,20.73 -14.73,13.83 -22.67,30.95 -23.69,51.23l110.61 -64.04zm594.66 -168.98c0,12.36 -3.96,22.44 -11.89,30.38 -7.94,7.93 -18.02,11.9 -30.37,11.9l-155.73 0 0 93.73 116.17 0c12.36,0 22.44,3.96 30.38,11.89 7.93,7.94 11.89,18.03 11.89,30.38 0,12.35 -3.96,22.44 -11.89,30.37 -7.94,7.94 -18.02,11.91 -30.38,11.91l-116.17 0 0 93.84 155.73 0c12.35,0 22.43,3.97 30.37,11.9 7.93,7.93 11.89,18.02 11.89,30.38 0,12.34 -3.96,22.44 -12.01,30.37 -7.93,7.93 -18.13,11.9 -30.48,11.9l-197.77 -0.23c-11.34,0 -21.2,-4.3 -29.59,-12.69 -8.5,-8.5 -12.69,-18.36 -12.69,-29.58l0 -356.44c0,-11.33 4.2,-21.2 12.69,-29.57 8.39,-8.5 18.25,-12.71 29.59,-12.71l198 0c12.35,0 22.43,3.97 30.37,11.91 7.93,7.93 11.89,18.02 11.89,30.37zm348.74 356.44c0,12.36 -3.97,22.44 -11.91,30.38 -7.93,7.93 -18.02,11.89 -30.37,11.89 -17.8,0 -30.38,-7.26 -37.74,-21.87 -25.05,14.62 -52.02,21.87 -81.04,21.87 -44.77,0 -82.84,-15.65 -114.12,-47.03 -31.4,-31.29 -47.04,-69.37 -47.04,-114.13 0,-44.65 15.65,-82.74 47.04,-114.01 31.28,-31.4 69.35,-47.03 114.01,-47.03 27.31,0 52.81,6.46 76.61,19.27l0 -95.78c0,-12.35 3.97,-22.44 11.89,-30.37 7.94,-7.93 18.02,-11.91 30.38,-11.91 12.35,0 22.44,3.97 30.37,11.91 7.94,7.93 11.91,18.02 11.91,30.37l0 356.44zm-84.55 -118.89c0,-21.19 -7.49,-39.33 -22.33,-54.17 -14.85,-14.85 -32.98,-22.32 -54.18,-22.32 -21.3,0 -39.44,7.48 -54.28,22.32 -14.85,14.84 -22.33,32.98 -22.33,54.17 0,21.31 7.48,39.44 22.33,54.29 14.85,14.85 32.98,22.32 54.28,22.32 21.2,0 39.33,-7.48 54.18,-22.32 14.84,-14.85 22.33,-32.98 22.33,-54.29zm393.5 -118.77l0 158.67c0,33.65 -11.79,62.32 -35.48,85.9 -23.69,23.57 -52.36,35.36 -86.02,35.36 -33.67,0 -62.34,-11.79 -86.03,-35.36 -23.69,-23.57 -35.46,-52.24 -35.46,-85.9l0 -158.67c0,-12.36 3.97,-22.44 11.89,-30.38 7.94,-7.93 18.02,-11.89 30.38,-11.89 12.35,0 22.44,3.96 30.37,11.89 7.93,7.94 11.91,18.02 11.91,30.38l0 158.44c0,10.2 3.62,18.93 10.77,26.07 7.25,7.26 15.98,10.88 26.18,10.88 10.2,0 18.93,-3.62 26.18,-10.88 7.14,-7.14 10.77,-15.87 10.77,-26.07l0 -158.44c0,-12.36 3.97,-22.44 11.89,-30.38 7.94,-7.93 18.02,-11.89 30.38,-11.89 12.36,0 22.44,3.96 30.37,11.89 7.94,7.94 11.91,18.02 11.91,30.38zm327.65 34.34c0,11.45 -4.3,21.53 -13.03,30.37 -8.73,8.85 -18.81,13.16 -30.26,13.16 -6.46,0 -18.25,-5.9 -35.36,-17.79 -17.12,-11.91 -33.21,-17.79 -48.28,-17.79 -21.31,0 -39.45,7.48 -54.3,22.32 -14.84,14.84 -22.32,32.98 -22.32,54.17 0,21.31 7.48,39.44 22.32,54.29 14.85,14.85 32.99,22.32 54.3,22.32 14.95,0 30.93,-5.89 48.04,-17.68 17.01,-11.79 28.79,-17.69 35.36,-17.69 11.45,0 21.53,4.43 30.15,13.04 8.73,8.72 13.14,18.81 13.14,30.26 0,9.75 -4.42,19.6 -13.26,29.58 -13.03,14.62 -30.26,26.28 -51.68,34.9 -20.51,8.05 -41.03,12.13 -61.88,12.13 -44.66,0 -82.74,-15.65 -114.02,-47.03 -31.39,-31.29 -47.04,-69.37 -47.04,-114.13 0,-44.65 15.65,-82.74 47.04,-114.01 31.28,-31.4 69.36,-47.03 114.02,-47.03 20.51,0 41.03,4.19 61.88,12.46 21.76,8.61 39.1,20.06 52.02,34.57 8.73,9.98 13.14,19.83 13.14,29.58zm269.5 203.33c0,12.36 -3.96,22.44 -11.89,30.38 -7.94,7.93 -18.02,11.89 -30.37,11.89 -11.56,0 -21.42,-3.52 -29.36,-10.54 -13.49,7.03 -30.14,10.54 -49.87,10.54 -34.11,0 -62.56,-9.29 -85,-27.99 -24.36,-20.07 -36.49,-46.82 -36.49,-80.36 0,-33.43 12.13,-60.18 36.49,-80.24 22.44,-18.7 50.78,-27.99 85,-27.99 13.71,0 26.07,1.81 36.96,5.31l0 -2.6c0,-10.32 -3.64,-19.04 -10.89,-26.18 -7.14,-7.24 -15.87,-10.88 -26.07,-10.88 -7.36,0 -17.12,4.42 -29.01,13.16 -12.02,8.73 -22.56,13.03 -31.51,13.03 -9.97,0 -18.81,-3.17 -26.41,-9.52 -8.04,-6.68 -12.12,-14.85 -12.12,-24.59 0,-9.07 4.42,-18.36 13.26,-27.65 22.34,-23.81 50.89,-35.7 85.8,-35.7 33.67,0 62.34,11.78 86.03,35.46 23.69,23.69 35.46,52.36 35.46,86.03l0 158.44zm-84.53 -66.08c0,-10.2 -3.64,-18.93 -10.78,-26.07 -7.25,-7.26 -15.98,-10.88 -26.18,-10.88 -10.2,0 -18.93,3.62 -26.18,10.88 -7.14,7.14 -10.77,15.87 -10.77,26.07 0,10.31 3.62,19.05 10.77,26.18 7.26,7.26 15.98,10.88 26.18,10.88 10.19,0 18.93,-3.62 26.18,-10.88 7.14,-7.13 10.78,-15.87 10.78,-26.18zm412.07 -137.25c0,11.45 -4.3,21.53 -13.04,30.37 -8.72,8.85 -18.81,13.16 -30.25,13.16 -6.46,0 -18.25,-5.9 -35.36,-17.79 -17.11,-11.91 -33.2,-17.79 -48.28,-17.79 -21.31,0 -39.45,7.48 -54.29,22.32 -14.84,14.84 -22.33,32.98 -22.33,54.17 0,21.31 7.49,39.44 22.33,54.29 14.85,14.85 32.98,22.32 54.29,22.32 14.95,0 30.93,-5.89 48.05,-17.68 17,-11.79 28.79,-17.69 35.36,-17.69 11.44,0 21.53,4.43 30.14,13.16 8.73,8.6 13.15,18.7 13.15,30.15 0,16.43 -11.9,32.64 -35.7,48.62 7.03,14.27 10.54,29.35 10.54,45.22 0,28.1 -9.87,52.14 -29.7,71.97 -19.83,19.83 -43.74,29.69 -71.96,29.69 -17.79,0 -34.79,-4.53 -51,-13.7 -16.89,-9.42 -29.24,-21.76 -37.17,-37.29 -4.2,-8.06 -6.36,-15.53 -6.36,-22.21 0,-21.66 14.74,-32.54 44.32,-32.54 10.43,0 20.52,3.64 30.26,10.66 9.75,7.03 16.43,10.54 19.95,10.54 11.45,0 17.12,-5.78 17.12,-17.22 0,-11.45 -5.79,-17.12 -17.46,-17.12 -44.65,0 -82.62,-15.65 -113.91,-47.03 -31.16,-31.29 -46.81,-69.37 -46.81,-114.13 0,-44.65 15.65,-82.74 47.04,-114.01 31.28,-31.4 69.35,-47.03 114.01,-47.03 20.62,0 41.25,4.19 61.88,12.46 21.65,8.61 38.98,20.06 52.02,34.57 8.72,9.86 13.14,19.72 13.14,29.58zm283.1 -134.98c0,19.27 -9.29,35.02 -27.76,47.26 -16.32,11 -34.57,16.44 -54.63,16.44 -14.97,0 -29.36,-4.2 -43.07,-12.46 -1.7,-1.25 -13.83,-10.32 -36.16,-27.21l-3.4 -0.22c-7.6,13.6 -19.27,20.29 -34.91,20.29 -11.79,0 -22.1,-3.85 -30.94,-11.56 -8.73,-7.7 -13.14,-17.56 -13.14,-29.35 0,-19.16 9.17,-34.9 27.76,-47.26 16.32,-10.88 34.57,-16.33 54.63,-16.33 17.79,0 32.3,4.09 43.53,12.36 7.82,6.01 19.48,14.97 35.13,26.75l4.54 0c7.59,-13.03 19.03,-19.6 34.34,-19.6 11.79,0 22.1,3.86 30.83,11.68 8.84,7.7 13.26,17.45 13.26,29.24zm-13.7 338.31c0,12.36 -3.97,22.44 -11.91,30.38 -7.93,7.93 -18.02,11.89 -30.37,11.89 -11.56,0 -21.42,-3.52 -29.35,-10.54 -13.48,7.03 -30.15,10.54 -49.87,10.54 -34,0 -62.34,-9.29 -85,-27.99 -24.37,-20.07 -36.5,-46.82 -36.5,-80.36 0,-33.43 12.13,-60.18 36.5,-80.24 22.67,-18.7 51,-27.99 85,-27.99 13.71,0 26.07,1.81 36.95,5.31l0 -2.6c0,-10.09 -3.63,-18.81 -10.99,-26.07 -7.26,-7.35 -15.98,-10.99 -25.95,-10.99 -7.26,0 -16.89,4.42 -28.9,13.16 -12.13,8.73 -22.67,13.03 -31.63,13.03 -9.97,0 -18.81,-3.17 -26.4,-9.52 -8.05,-6.68 -12.13,-14.85 -12.13,-24.59 0,-8.95 4.42,-18.14 13.26,-27.65 21.99,-23.81 50.55,-35.7 85.8,-35.7 33.66,0 62.33,11.78 86.02,35.46 23.69,23.69 35.48,52.36 35.48,86.03l0 158.44zm-84.55 -66.08c0,-9.97 -3.63,-18.7 -10.99,-25.95 -7.26,-7.37 -15.98,-10.99 -25.95,-10.99 -9.97,0 -18.7,3.62 -25.95,10.99 -7.36,7.26 -10.99,15.98 -10.99,25.95 0,10.1 3.63,18.81 10.99,26.07 7.26,7.36 15.98,10.99 25.95,10.99 9.97,0 18.69,-3.62 25.95,-10.99 7.36,-7.26 10.99,-15.97 10.99,-26.07zm446.3 -52.81c0,45 -15.65,83.08 -46.92,114.24 -31.16,31.28 -69.25,46.92 -114.12,46.92 -45,0 -83.09,-15.65 -114.25,-46.92 -31.28,-31.16 -46.92,-69.24 -46.92,-114.24 0,-44.88 15.64,-82.96 46.92,-114.13 31.16,-31.28 69.25,-46.91 114.25,-46.91 44.87,0 82.96,15.63 114.12,46.91 31.28,31.17 46.92,69.24 46.92,114.13zm-84.55 0c0,-21.19 -7.48,-39.33 -22.32,-54.17 -14.85,-14.85 -32.99,-22.32 -54.17,-22.32 -21.31,0 -39.45,7.48 -54.3,22.32 -14.84,14.84 -22.32,32.98 -22.32,54.17 0,21.31 7.48,39.44 22.32,54.29 14.85,14.85 32.99,22.32 54.3,22.32 21.18,0 39.32,-7.48 54.17,-22.32 14.85,-14.85 22.32,-32.98 22.32,-54.29zm369.81 118.89c0,12.36 -3.97,22.44 -11.89,30.38 -7.94,7.93 -18.02,11.89 -30.38,11.89 -12.36,0 -22.44,-3.97 -30.37,-11.89 -7.94,-7.94 -11.91,-18.02 -11.91,-30.38l0 -356.44c0,-12.35 3.97,-22.44 11.91,-30.37 7.93,-7.93 18.01,-11.91 30.37,-11.91 12.36,0 22.44,3.97 30.38,11.91 7.93,7.93 11.89,18.02 11.89,30.37l0 356.44zm322.21 0c0,12.36 -3.96,22.44 -11.9,30.38 -7.93,7.93 -18.02,11.89 -30.38,11.89 -12.35,0 -22.44,-3.97 -30.37,-11.89 -7.93,-7.94 -11.91,-18.02 -11.91,-30.38l0 -158.44c0,-10.19 -3.62,-18.93 -10.77,-26.06 -7.24,-7.26 -15.97,-10.88 -26.18,-10.88 -10.2,0 -18.93,3.62 -26.18,10.88 -7.14,7.13 -10.77,15.87 -10.77,26.06l0 158.44c0,12.36 -3.97,22.44 -11.89,30.38 -7.94,7.93 -18.02,11.89 -30.38,11.89 -12.36,0 -22.44,-3.97 -30.37,-11.89 -7.93,-7.94 -11.91,-18.02 -11.91,-30.38l0 -237.66c0,-12.36 3.97,-22.44 11.91,-30.38 7.93,-7.93 18.01,-11.89 30.37,-11.89 11.79,0 21.53,3.62 29.35,10.88 15.76,-7.26 32.42,-10.88 49.87,-10.88 33.67,0 62.34,11.78 86.03,35.35 23.69,23.59 35.47,52.26 35.47,85.91l0 158.67zm280.62 -337.97c0,11.23 -2.95,21.31 -8.95,30.04 -6.69,10.1 -15.53,15.08 -26.41,15.08 -7.37,0 -15.87,-3.53 -25.5,-10.65 -9.52,-7.14 -15.98,-10.66 -19.16,-10.66 -11.44,0 -17.12,8.38 -17.12,25.05l0 9.18 17.12 0c12.35,0 22.44,3.96 30.37,11.89 7.94,7.94 11.91,18.02 11.91,30.38 0,12.35 -3.97,22.44 -11.91,30.37 -7.93,7.94 -18.02,11.91 -30.37,11.91l-17.12 0 0 195.39c0,12.36 -3.96,22.44 -11.9,30.38 -7.93,7.93 -18.02,11.89 -30.37,11.89 -12.36,0 -22.44,-3.97 -30.38,-11.89 -7.93,-7.94 -11.89,-18.02 -11.89,-30.38l0 -195.39 -17.12 0c-12.35,0 -22.44,-3.97 -30.37,-11.91 -7.93,-7.93 -11.9,-18.02 -11.9,-30.37 0,-12.36 3.97,-22.44 11.9,-30.38 7.93,-7.93 18.02,-11.89 30.37,-11.89l17.12 0 0 -17.12c0,-28.21 9.85,-52.13 29.69,-71.96 19.83,-19.83 43.87,-29.7 71.97,-29.7 21.65,0 39.79,4.54 54.18,13.72 17.22,10.88 25.84,26.63 25.84,47.03zm256.35 337.97c0,12.36 -3.96,22.44 -11.9,30.38 -7.94,7.93 -18.02,11.89 -30.37,11.89 -11.56,0 -21.42,-3.52 -29.36,-10.54 -13.49,7.03 -30.14,10.54 -49.87,10.54 -34.11,0 -62.56,-9.29 -85,-27.99 -24.37,-20.07 -36.5,-46.82 -36.5,-80.36 0,-33.43 12.13,-60.18 36.5,-80.24 22.44,-18.7 50.77,-27.99 85,-27.99 13.72,0 26.08,1.81 36.96,5.31l0 -2.6c0,-10.32 -3.64,-19.04 -10.88,-26.18 -7.14,-7.24 -15.87,-10.88 -26.08,-10.88 -7.36,0 -17.12,4.42 -29.01,13.16 -12.02,8.73 -22.56,13.03 -31.51,13.03 -9.97,0 -18.81,-3.17 -26.41,-9.52 -8.04,-6.68 -12.12,-14.85 -12.12,-24.59 0,-9.07 4.42,-18.36 13.26,-27.65 22.34,-23.81 50.9,-35.7 85.8,-35.7 33.67,0 62.34,11.78 86.03,35.46 23.69,23.69 35.47,52.36 35.47,86.03l0 158.44zm-84.54 -66.08c0,-10.2 -3.64,-18.93 -10.78,-26.07 -7.24,-7.26 -15.97,-10.88 -26.18,-10.88 -10.2,0 -18.93,3.62 -26.18,10.88 -7.14,7.14 -10.77,15.87 -10.77,26.07 0,10.31 3.62,19.05 10.77,26.18 7.26,7.26 15.98,10.88 26.18,10.88 10.2,0 18.93,-3.62 26.18,-10.88 7.14,-7.13 10.78,-15.87 10.78,-26.18zm393.37 66.08c0,12.36 -3.96,22.44 -11.89,30.38 -7.94,7.93 -18.02,11.89 -30.38,11.89 -12.35,0 -22.44,-3.97 -30.37,-11.89 -7.93,-7.94 -11.91,-18.02 -11.91,-30.38l0 -158.44c0,-10.19 -3.62,-18.93 -10.77,-26.06 -7.24,-7.26 -15.97,-10.88 -26.18,-10.88 -10.2,0 -18.93,3.62 -26.18,10.88 -7.14,7.13 -10.77,15.87 -10.77,26.06l0 158.44c0,12.36 -3.97,22.44 -11.89,30.38 -7.94,7.93 -18.02,11.89 -30.38,11.89 -12.36,0 -22.44,-3.97 -30.37,-11.89 -7.94,-7.94 -11.91,-18.02 -11.91,-30.38l0 -237.66c0,-12.36 3.97,-22.44 11.91,-30.38 7.93,-7.93 18.01,-11.89 30.37,-11.89 11.79,0 21.53,3.62 29.35,10.88 15.76,-7.26 32.42,-10.88 49.87,-10.88 33.67,0 62.34,11.78 86.03,35.35 23.69,23.59 35.46,52.26 35.46,85.91l0 158.67zm280.63 -18.48c0,20.4 -8.62,36.15 -25.85,47.03 -14.38,9.19 -32.52,13.72 -54.17,13.72 -28.1,0 -52.14,-9.86 -71.97,-29.7 -19.83,-19.83 -29.69,-43.85 -29.69,-71.96l0 -136 -17.12 0c-12.35,0 -22.44,-3.97 -30.37,-11.91 -7.93,-7.93 -11.91,-18.02 -11.91,-30.37 0,-12.36 3.97,-22.44 11.91,-30.38 7.93,-7.93 18.02,-11.89 30.37,-11.89l17.12 0 0 -76.51c0,-12.35 3.96,-22.44 11.89,-30.37 7.94,-7.93 18.02,-11.91 30.38,-11.91 12.35,0 22.44,3.97 30.37,11.91 7.94,7.93 11.9,18.02 11.9,30.37l0 76.51 17.12 0c12.35,0 22.44,3.96 30.37,11.89 7.94,7.94 11.91,18.02 11.91,30.38 0,12.35 -3.97,22.44 -11.91,30.37 -7.93,7.94 -18.02,11.91 -30.37,11.91l-17.12 0 0 136c0,11.44 5.67,17.11 17.12,17.11 3.17,0 9.64,-3.51 19.16,-10.65 9.63,-7.14 18.13,-10.66 25.5,-10.66 10.88,0 19.72,4.99 26.41,14.96 6,8.84 8.95,18.93 8.95,30.15zm147.67 -327.76c0,14.51 -5.1,26.75 -15.3,36.72 -10.2,10.09 -22.67,15.07 -37.18,15.07 -14.62,0 -27.09,-4.98 -37.29,-15.07 -10.2,-9.97 -15.3,-22.21 -15.3,-36.72 0,-14.5 5.09,-26.97 15.3,-37.18 10.2,-10.2 22.67,-15.3 37.29,-15.3 14.5,0 26.97,5.1 37.18,15.3 10.19,10.2 15.3,22.67 15.3,37.18zm-10.19 346.24c0,12.36 -3.97,22.44 -11.91,30.38 -7.93,7.93 -18.01,11.89 -30.37,11.89 -12.36,0 -22.44,-3.97 -30.38,-11.89 -7.93,-7.94 -11.9,-18.02 -11.9,-30.38l0 -237.66c0,-12.36 3.97,-22.44 11.9,-30.38 7.93,-7.93 18.02,-11.89 30.38,-11.89 12.36,0 22.44,3.96 30.37,11.89 7.93,7.94 11.91,18.02 11.91,30.38l0 237.66zm209.89 0c0,12.36 -3.97,22.44 -11.9,30.38 -7.93,7.93 -18.02,11.89 -30.37,11.89 -28.11,0 -52.14,-9.86 -71.97,-29.7 -19.83,-19.83 -29.69,-43.85 -29.69,-71.96l0 -297.06c0,-12.35 3.97,-22.44 11.9,-30.37 7.93,-7.93 18.02,-11.91 30.38,-11.91 12.35,0 22.44,3.97 30.37,11.91 7.93,7.93 11.9,18.02 11.9,30.37l0 297.06c0,11.44 5.67,17.11 17.12,17.11 12.35,0 22.44,3.97 30.37,11.91 7.93,7.93 11.9,18.01 11.9,30.37z"/>
   <path class="fil1" d="M2194.31 3586.47c0,104.93 -35.78,195.64 -107.34,271.7 -179.09,8.06 -361.24,21.42 -545.36,39.58 -57.15,-45.14 -98.06,-101.02 -122.75,-167.96 -4.75,-12.81 -7.12,-24.68 -7.12,-35.59 0,-24.2 9.49,-45.09 27.99,-61.69 18.98,-16.61 40.34,-25.16 65.02,-25.16 27.99,0 53.62,17.56 77.35,52.68 36.54,55.53 59.32,87.79 68.34,96.81 36.07,35.12 83.52,52.68 143.32,52.68 61.22,0 113.43,-21.83 156.61,-65.48 43.18,-43.66 65.01,-96.34 65.01,-157.56 0,-135.73 -75.93,-209.76 -227.79,-223.05 -91.59,-7.12 -165.15,-37.49 -221.62,-90.64 -60.28,-56.48 -90.65,-130.03 -90.65,-220.68 0,-85.42 30.85,-158.98 92.07,-219.73 61.21,-60.74 134.77,-91.12 220.2,-91.12 124.34,0 213.55,51.25 268.6,154.23 9.01,17.56 13.29,32.75 13.29,46.98 0,24.2 -9.49,45.09 -27.99,62.17 -18.99,17.08 -40.82,26.1 -65.02,26.1 -24.68,0 -51.73,-18.98 -82.1,-56 -30.38,-37.49 -65.97,-56 -106.78,-56 -36.54,0 -67.87,13.29 -93.97,39.86 -26.1,26.58 -39.39,57.9 -39.39,93.49 0,80.2 46.51,124.81 139.53,133.83 118.64,11.39 213.56,50.77 285.22,117.69 76.88,71.66 115.32,166.1 115.32,282.84zm1293.67 42.71c0,14.24 -3.8,29.43 -11.87,46.98 -46.74,87.7 -116.05,159.53 -207.89,215.11 -230.75,-26.43 -472.8,-39.99 -723.02,-41.92 -16.94,-13.96 -33.46,-28.97 -49.54,-45.06 -121.97,-121.49 -183.19,-268.6 -183.19,-440.88 0,-171.32 61.22,-317.96 183.19,-439.45 121.96,-121.96 268.6,-182.71 440.4,-182.71 61.22,0 125.29,11.39 192.2,34.17 75.93,26.1 149.96,67.87 222.57,125.29 90.65,70.71 136.21,137.62 136.21,200.75 0,31.79 -14.71,56 -44.14,72.13l-839.98 485.01c87.79,100.6 198.84,150.91 333.14,150.91 140,0 251.99,-51.25 335.52,-153.28 10.44,-15.18 27.52,-38.44 50.78,-69.28 23.25,-30.38 47.46,-45.56 72.6,-45.56 24.68,0 46.04,8.54 65.02,25.63 18.98,17.08 28,37.96 28,62.16zm-218.77 -559.52c-89.22,-100.6 -200.27,-150.91 -333.15,-150.91 -122.44,0 -227.32,43.66 -314.16,130.98 -86.85,87.8 -130.5,192.2 -130.5,314.16 0,48.89 7.12,96.34 21.83,141.9l755.99 -436.13zm2057.73 828.12c0,59.32 -29.9,89.22 -89.22,89.22 -58.84,0 -88.27,-29.9 -88.27,-89.22l0 -711.85c0,-73.56 -26.1,-136.68 -78.3,-188.88 -52.2,-52.21 -115.31,-78.3 -188.4,-78.3 -73.56,0 -136.68,26.1 -188.88,78.3 -52.2,52.2 -78.3,115.31 -78.3,188.88l0 711.85c0,59.32 -29.91,89.22 -89.22,89.22 -58.84,0 -88.27,-29.9 -88.27,-89.22l0 -711.85c0,-73.56 -26.1,-136.68 -78.78,-188.88 -52.68,-52.21 -115.32,-78.3 -187.92,-78.3 -73.56,0 -136.68,26.1 -188.88,78.3 -52.2,52.2 -78.3,115.31 -78.3,188.88l0 711.85c0,55.05 -25.76,84.77 -76.87,88.76 -24.33,-5.69 -48.8,-11.21 -73.5,-16.54 -19.03,-14.65 -28.54,-38.75 -28.54,-72.22l0 -1068.25c0,-58.84 29.9,-88.27 89.22,-88.27 59.8,0 89.69,29.43 89.69,88.27 78.3,-58.84 167.05,-88.27 266.71,-88.27 148.07,0 266.23,59.32 355.45,177.97 88.74,-118.64 207.38,-177.97 355.92,-177.97 122.44,0 227.32,43.66 314.16,130.51 86.85,86.84 130.51,191.72 130.51,314.16l0 711.85zm1353.94 -268.6c0,14.24 -3.8,29.43 -11.87,46.98 -39.54,74.19 -95.23,137.03 -167.06,188.27 -203.11,16.67 -404.8,43.08 -601.16,81.27 -77.57,-30.36 -148.3,-77.47 -212.23,-141.41 -121.97,-121.49 -183.19,-268.6 -183.19,-440.88 0,-171.32 61.22,-317.96 183.19,-439.45 121.96,-121.96 268.6,-182.71 440.4,-182.71 61.22,0 125.29,11.39 192.2,34.17 75.93,26.1 149.96,67.87 222.57,125.29 90.64,70.71 136.2,137.62 136.2,200.75 0,31.79 -14.71,56 -44.14,72.13l-839.98 485.01c87.8,100.6 198.84,150.91 333.14,150.91 140,0 252,-51.25 335.52,-153.28 10.45,-15.18 27.53,-38.44 50.78,-69.28 23.25,-30.38 47.46,-45.56 72.61,-45.56 24.68,0 46.03,8.54 65.01,25.63 18.99,17.08 28,37.96 28,62.16zm-218.77 -559.52c-89.22,-100.6 -200.27,-150.91 -333.15,-150.91 -122.43,0 -227.32,43.66 -314.16,130.98 -86.84,87.8 -130.5,192.2 -130.5,314.16 0,48.89 7.12,96.34 21.83,141.9l755.99 -436.13zm455.95 773.52c-78.7,-84.18 -118.06,-184.6 -118.06,-300.85 0,-122.43 43.66,-227.32 130.98,-314.64 87.32,-87.32 192.2,-130.98 314.64,-130.98 99.18,0 187.92,29.9 267.18,89.22 0,-73.56 -26.11,-136.21 -78.3,-188.88 -52.21,-52.21 -115.32,-78.3 -188.88,-78.3 -51.25,0 -102.99,18.03 -154.71,53.62 -51.73,35.59 -84,53.15 -96.33,53.15 -24.2,0 -45.56,-9.01 -64.07,-27.52 -18.51,-18.51 -27.53,-39.86 -27.53,-64.54 0,-19.46 9.49,-40.34 28,-62.17 72.61,-86.85 177.49,-130.03 314.64,-130.03 122.43,0 227.32,43.66 314.16,130.51 86.84,86.84 130.5,191.72 130.5,314.16l0 676.68c-249.59,-17.15 -509.82,-25.17 -772.23,-19.44zm594.74 -300.85c0,-73.08 -26.11,-136.2 -78.3,-188.4 -52.21,-52.21 -115.32,-78.3 -188.4,-78.3 -73.56,0 -136.68,26.1 -188.88,78.3 -52.21,52.2 -78.3,115.31 -78.3,188.4 0,73.56 26.1,136.68 78.3,188.88 52.2,52.2 115.31,78.3 188.88,78.3 73.08,0 136.2,-26.1 188.4,-78.3 52.2,-52.21 78.3,-115.32 78.3,-188.88zm1151.77 -575.65c0,23.73 -9.49,44.14 -28.95,61.22 -18.98,17.08 -40.34,26.1 -64.07,26.1 -23.72,0 -54.57,-22.77 -93.01,-67.86 -38.44,-45.09 -84,-67.39 -136.2,-67.39 -48.88,0 -90.65,17.56 -125.29,52.68 -34.64,35.11 -52.2,76.88 -52.2,124.81l0 801.54c0,3.08 -0.09,6.08 -0.25,9 -58.56,-6.85 -118.17,-13.31 -178.67,-19.31l0 -1057.94c0,-58.84 29.9,-88.27 89.22,-88.27 40.34,0 67.39,17.08 82.1,51.73 56.47,-34.64 118.17,-51.73 185.08,-51.73 61.22,0 121.01,16.14 179.39,48.89 58.37,32.75 101.55,75.93 129.55,128.61 9.02,18.03 13.29,34.17 13.29,47.93z"/>
   <path class="fil2" d="M573.08 4284.68c-5.68,0.67 -11.11,-1.83 -12.13,-5.61 -1.01,-3.78 2.75,-7.39 8.44,-8.06l0.22 -0.03 0 -0.01c288.94,-35.4 567.94,-62.59 835.71,-82.32 267.8,-19.73 524.72,-32.05 769.47,-37.69 1216.49,-28.05 2129.36,109.1 2585.42,317.15 440.89,-215.17 1338.39,-354.96 2556.57,-324.29 240.12,6.05 492.59,18.7 756.31,38.68 263.58,19.96 538.69,47.26 824.25,82.63l0.66 0.07 0.27 0.04c5.62,0.72 9.3,4.36 8.23,8.14 -1.07,3.77 -6.51,6.24 -12.12,5.52l-0.26 -0.03 -0.33 -0.05c-284.95,-35.28 -559.63,-62.55 -822.97,-82.49 -263.5,-19.97 -515.44,-32.6 -754.77,-38.63 -1208.04,-30.42 -2098.28,106.89 -2537.8,318.82 9.59,4.53 19.02,9.1 28.16,13.7 4.61,2.31 5.52,6.68 2.04,9.75 -3.48,3.07 -10.06,3.68 -14.66,1.36 -10.76,-5.41 -21.9,-10.77 -33.26,-16.07 -2.06,1.03 -4.18,2.06 -6.21,3.09 -4.56,2.31 -11.06,1.71 -14.5,-1.36 -3.45,-3.07 -2.54,-7.43 2.03,-9.74l0.61 -0.3c-454.5,-205.05 -1360.18,-339.91 -2567,-312.09 -243.92,5.63 -500.29,17.91 -767.85,37.63 -267.59,19.72 -546.1,46.86 -834.24,82.17l0 0 -0.04 0 -0.26 0.04z"/>
   <path class="fil2" d="M723.08 4405.09c-5.69,0.72 -11.13,-1.89 -12.17,-5.84 -1.04,-3.95 2.73,-7.74 8.4,-8.46l0.3 -0.05 0 -0.01c280.22,-37.07 550.29,-66.39 809.1,-88.5 258.84,-22.12 506.94,-37.07 743.12,-45.42 1168.93,-41.35 2041.23,79.77 2484.59,294.64 398.21,-227.86 1224.38,-347.44 2343.62,-298.68 218.81,9.53 448.94,25.51 689.33,48.35 239.92,22.81 490.21,52.51 749.82,89.53l0.8 0.1 0.37 0.05c5.6,0.81 9.18,4.67 8.02,8.6 -1.16,3.94 -6.65,6.46 -12.24,5.65l-0.37 -0.05 -0.36 -0.06c-259,-36.94 -508.94,-66.6 -748.8,-89.39 -239.76,-22.79 -469.36,-38.73 -687.79,-48.25 -1109.76,-48.35 -1928.79,68.87 -2324.82,292.84 11.1,5.58 21.99,11.23 32.52,16.94 4.54,2.47 5.35,7.04 1.81,10.21 -3.55,3.16 -10.13,3.72 -14.67,1.25 -12.19,-6.61 -24.8,-13.14 -37.77,-19.58 -3.31,0.25 -6.78,-0.62 -9.08,-2.57 -1.03,-0.86 -1.67,-1.86 -2.05,-2.88 -439.47,-213.22 -1307.26,-333.37 -2471.97,-292.17 -235.2,8.31 -482.76,23.25 -741.56,45.36 -258.83,22.12 -528.48,51.38 -807.8,88.33l0 -0.01 -0.04 0.01 -0.33 0.04z"/>
   <path class="fil2" d="M703.47 4128.68c-22.46,4.12 -44.02,-10.77 -48.14,-33.23 -4.12,-22.47 10.77,-44.03 33.23,-48.14l0.22 -0.05c279.76,-51.62 549.31,-90.52 807.55,-117.99 258.2,-27.48 505.96,-43.62 742.08,-49.72 1192.97,-30.9 2078.97,196.7 2516.38,511.05 437.4,-314.35 1323.39,-541.95 2516.36,-511.05 236.13,6.11 483.89,22.25 742.08,49.72 258.25,27.47 527.79,66.37 807.56,117.99l0.22 0.05c22.46,4.11 37.34,25.67 33.23,48.14 -4.11,22.46 -25.67,37.34 -48.14,33.23l-0.22 -0.04c-277.03,-51.12 -544.54,-89.7 -801.39,-117.03 -256.9,-27.33 -502.34,-43.37 -735.28,-49.39 -1196.23,-30.97 -2074.15,198.8 -2489.41,512.85l-0.04 0.04 -0.8 0.58 -0.05 0.04 -0.77 0.53 -0.11 0.08 -0.2 0.14 -1.4 0.89 -0.18 0.11 -0.03 0.01 -0.86 0.52 -0.68 0.39 -0.24 0.12 -0.65 0.34 -0.26 0.14 -0.64 0.3c-2.12,1.04 -4.29,1.87 -6.52,2.51l-0.46 0.14c-1.13,0.31 -2.27,0.58 -3.42,0.79l-0.49 0.1 -0.48 0.08 -0.52 0.08 -0.05 0.01 -1.41 0.18 -0.53 0.06 -0.46 0.05 -0.54 0.04 -0.44 0.03 -0.84 0.06 -0.17 0.01 -0.53 0.01 -0.44 0.01 -0.56 0.02 -0.44 0 -0.55 -0.02 -0.45 -0.01 -0.56 -0.01 -0.15 -0.01 -0.83 -0.06 -0.45 -0.03 -0.56 -0.04 -0.45 -0.05 -0.04 0 -1.95 -0.25 -0.53 -0.08 -0.45 -0.08 -0.53 -0.1 -0.02 0c-1.94,-0.37 -3.86,-0.87 -5.76,-1.52 -1.14,-0.4 -2.27,-0.85 -3.39,-1.34l-0.33 -0.14 -1.54 -0.74 -0.26 -0.14 -0.66 -0.34 -0.23 -0.12 -1.43 -0.83 -0.16 -0.08 -0.16 -0.11 -0.72 -0.46 -0.14 -0.08 -0.19 -0.14 -1.4 -0.95 -0.03 -0.02 -0.05 -0.04 -0.03 -0.02 -0.8 -0.56c-415.26,-314.06 -1293.19,-543.86 -2489.45,-512.88 -232.95,6.02 -478.38,22.06 -735.28,49.39 -256.86,27.33 -524.37,65.92 -801.39,117.03l-0.23 0.04z"/>
   <path class="fil2" d="M8817.16 4149.37c11.25,1.6 18.76,10.7 16.76,20.31 -1.98,9.61 -12.73,16.09 -23.98,14.5l-0.21 -0.03 -1.13 -0.2c-277.52,-41.68 -545.2,-72.7 -801.91,-94.17 -256.91,-21.49 -502.99,-33.42 -737.08,-36.93 -1201.22,-17.98 -2083.93,185.82 -2502.33,458.65 -9.1,5.95 -22.07,4.55 -28.96,-3.15 -6.91,-7.69 -5.12,-18.77 3.97,-24.73l0.68 -0.43 -0.66 -0.38c-418.47,-269.91 -1301.22,-467.45 -2502.42,-440.94 -233.75,5.16 -479.77,18.85 -736.99,42.2 -257.19,23.34 -525.22,56.3 -802.93,100l-0.23 0.04c-11.22,1.75 -22.01,-4.59 -24.07,-14.17 -2.05,-9.58 5.39,-18.77 16.63,-20.53l0.22 -0.03c279.07,-43.91 548.11,-77.02 806.01,-100.42 257.86,-23.4 505.05,-37.14 740.39,-42.34 1211.11,-26.74 2103.45,173.93 2528.34,447.99 3.57,2.29 6.04,5.35 7.29,8.72 436.84,-266.85 1314.85,-463.43 2496.2,-445.74 234.98,3.51 482.11,15.51 740.29,37.09 257.74,21.56 526.43,52.7 804.95,94.52l0.95 0.13 0.21 0.02z"/>
   <path class="fil3" d="M4788.63 470.97c-8.09,-1.95 -15.56,-0.55 -22.41,4.22 -6.86,4.76 -13.98,7.67 -21.37,8.75 -9.38,3.43 -15.49,8.02 -18.3,13.77 -2.81,5.73 -6.54,12.33 -11.2,19.76 -7.39,1.07 -12.75,2.63 -16.1,4.67 -3.34,2.05 -7.01,5.44 -11.01,10.18 -0.65,2.7 -4.5,5.33 -11.54,7.92 -7.03,2.58 -14.23,7.26 -21.57,14.05 -3.35,2.04 -7.05,2.57 -11.09,1.6 -4.04,-0.97 -11.41,2.95 -22.09,11.78 -7.35,6.78 -15.01,14.92 -23.01,24.4l-0.97 4.04 -11.31 99.97 -1.32 23.21c-2.6,10.78 -3.95,20.8 -4.04,30.05 -0.09,9.24 -1.44,19.26 -4.04,30.04l-0.63 46.91 -5.02 3.07 -2.31 27.26c2.05,3.34 3.49,4.76 4.32,4.25 0.84,-0.51 0.44,2.6 -1.19,9.34l-5.64 49.99 -0.97 4.04 -9.14 55.56 -0.28 27.74c-1.63,6.75 -1.35,10.03 0.83,9.84 2.19,-0.18 2.63,2.42 1.32,7.81l-6.69 45.45 -0.97 4.04c-1.63,6.74 -1.35,10.01 0.84,9.83 2.18,-0.19 2.62,2.41 1.32,7.8l-3.91 16.17c-1.63,6.74 -1.83,13.47 -0.59,20.19 1.23,6.72 4.21,12.07 8.95,16.06l-1.74 33.81 6.49 -9.13c3.07,5.02 4.28,8.87 3.62,11.56 -1.95,8.09 -1.73,14.56 0.66,19.42 2.39,4.86 2.94,9.98 1.64,15.37l-7.81 32.35 12.13 2.92 -3.91 16.18 -3.9 16.17 4.04 0.97 21.96 -90.97 2.44 -10.11 2.93 -12.13 2.44 -10.11 6.07 1.46 5.37 -22.23c1.3,-5.4 2.21,-7.67 2.72,-6.84 0.51,0.84 2.44,0.23 5.79,-1.81l-1.46 6.06 10.11 2.44c-1.95,8.09 -2.58,13.64 -1.88,16.67 0.69,3.02 0.07,8.57 -1.89,16.66l-6.34 26.29c-1.96,8.09 -2.25,13.72 -0.88,16.9 1.37,3.18 1.08,8.82 -0.87,16.9l-2.44 10.11 -16.8 43.01 -14.15 -3.42 -3.91 16.18c-3.58,14.82 -8.88,24.96 -15.9,30.39 -7.02,5.44 -11.82,13.54 -14.43,24.33l-0.98 4.04 -13.59 3.14 -10.11 -2.44 4.61 7.52c-1.67,1.03 -3.27,1.71 -4.77,2.06 -1.52,0.35 -3.11,1.04 -4.78,2.06l-5.02 3.06c-1.95,8.09 -1.55,15.32 1.19,21.68 2.74,6.37 4.64,13.25 5.71,20.64l-0.97 4.04c-2.6,10.78 -0.84,21.19 5.3,31.22l-7.04 2.58 -4.54 63.1c-1.3,5.39 -1.7,8.5 -1.19,9.33 0.51,0.84 4.13,2.07 10.87,3.7 5.4,1.3 9.01,1.1 10.85,-0.59 1.83,-1.7 5.77,-3.24 11.82,-4.64 1.63,-6.74 2.86,-10.36 3.69,-10.88 0.84,-0.51 4.28,-1.46 10.32,-2.86l13.6 -3.14c13.48,3.25 32.3,2.09 56.47,-3.48 24.17,-5.57 41.6,-12.78 52.29,-21.61l10.1 2.44c5.34,-4.42 13.29,-9.27 23.85,-14.56 10.55,-5.3 21.36,-10.18 32.42,-14.64 11.06,-4.47 20.85,-9.59 29.39,-15.37 8.53,-5.79 13.45,-11.37 14.74,-16.76l7.81 -32.35 1.47 -6.06c-2.7,-0.65 -4.57,-3.24 -5.61,-7.77 -1.05,-4.53 -1.25,-8.15 -0.59,-10.84 1.63,-6.74 0.91,-12.62 -2.16,-17.64 -3.07,-5.02 -4.28,-8.88 -3.63,-11.57l8.79 -36.38c2.6,-10.79 3.88,-19.04 3.84,-24.76 -0.05,-5.71 0.91,-12.62 2.86,-20.7l0.97 -4.04c1.63,-6.74 0.3,-14.55 -3.97,-23.43 -4.27,-8.88 -6.46,-19.03 -6.55,-30.46l18 -145.43 14.15 -58.63 11.01 -72.22c1.96,-8.09 2.58,-13.64 1.89,-16.67 -0.7,-3.01 -0.24,-7.9 1.39,-14.63l-13.1 1.11c0.65,-2.7 0.38,-4.55 -0.81,-5.54 -1.18,-1 -1.45,-2.85 -0.8,-5.54l3.91 -16.17 9.55 -66.16 1.46 -6.07c-2.04,-3.34 -3.59,-7.28 -4.64,-11.82 -1.04,-4.53 -1.24,-8.14 -0.59,-10.83l1.46 -6.07c3.25,-13.48 3.26,-34.16 0,-62.04 -3.25,-27.89 -3.09,-49.24 0.49,-64.07l0.98 -4.04c-1.07,-7.39 -1.96,-14.03 -2.68,-19.91 -0.72,-5.88 -0.11,-12.86 1.84,-20.94l-6.06 -1.46c-0.65,2.7 -0.05,4.62 1.81,5.78 1.86,1.16 2.46,3.09 1.81,5.79 -1.63,6.74 -3.11,9.95 -4.46,9.62 -2.7,-0.65 -5.02,3.07 -6.97,11.15l-9.83 -30.19 2.93 -12.13 0.97 -4.04 1.47 -6.07c-0.75,-8.74 -2.74,-15.28 -5.97,-19.63 -3.23,-4.34 -3.54,-11.91 -0.94,-22.69l-10.11 -2.44 11.72 -48.52 0.97 -4.05c1.63,-6.74 1.16,-12.2 -1.39,-16.38 -2.56,-4.18 -2.86,-10.32 -0.91,-18.4 -10.78,-2.6 -16.66,-1.88 -17.63,2.16 -0.97,4.04 -5.48,7.94 -13.53,11.71l6.21 18.62z"/>
   <path class="fil3" d="M4268.79 1879.33l-9.78 4.6c-4.35,2.05 -5.97,4.34 -4.88,6.9 1.09,2.55 -2.73,5.87 -11.41,9.96l-9.77 4.6 16.91 0c0.33,0.29 0.59,0.59 0.75,0.88l-7.9 3.71 3.47 1.64c-5.84,3.65 -9.01,6.27 -9.55,7.81 -0.4,1.23 -2.15,2.92 -5.28,5.09l-4.94 2.32 0.78 0.37 -0.33 0.21 -7.19 0.23 3.63 1.93 -8.98 1.31c-2.39,1.44 -4.17,2.52 -5.36,3.24 -2.38,1.44 -5.92,4.96 -10.64,10.57l-5.35 3.23 3.21 0.5c-1.48,1.46 -1.16,2.45 0.94,2.95l0.62 0.15 -7.27 7.58 -3.14 1.47c-13.03,6.13 -21.71,11.75 -26.07,16.86 -4.32,5.1 -13.01,10.73 -26.04,16.85 0.02,4.09 1.09,5.62 3.26,4.6 0,0 -4.34,2.05 -13.03,6.14l-9.77 4.59c-2.17,3.07 -4.35,7.16 -6.52,12.26 -2.18,3.07 -5.44,6.64 -9.77,10.73 -4.35,4.08 -9.78,7.66 -16.3,10.73l9.78 4.59 -19.54 9.2c0,4.09 1.09,5.62 3.26,4.59 0,0 -4.34,2.05 -13.03,6.14l9.78 4.59c13.03,-6.13 20.09,-12 21.17,-17.62 1.1,-5.62 5.98,-10.48 14.67,-14.56l9.78 -4.6 14.05 -6.62c-1.16,2.25 -1.72,4.85 -1.67,7.74 0.05,3.25 0.05,6.03 0,8.37l-5.88 2.76 5.55 2.62c-0.08,0.85 -0.2,1.57 -0.33,2.12 -0.17,0.72 -0.52,1.58 -1.07,2.6 -4.39,2.26 -5.78,3.4 -4.16,3.4 0.63,0 1.18,0.17 1.63,0.52 -1.16,1.62 -2.61,3.46 -4.32,5.5l-5.37 3.24 -5.34 3.24 -1.52 3.92c-3.4,2.33 -6.59,4.79 -9.5,7.35 -7.61,6.64 -11.41,12 -11.41,16.08l-6.52 3.07c0,4.09 -4.87,13.03 -14.66,26.81 -9.78,13.8 -16.83,21.71 -21.17,23.75l-3.27 16.86 -13.03 0 -3.26 7.66 9.77 -4.6 26.06 -12.26 0 2.58 -4.06 2.44c-2.38,1.44 -3.53,4.2 -3.47,8.29 0.03,1.97 0.35,3.61 0.93,4.93 -3.58,4.8 -7.9,10.48 -12.94,17 -8.33,10.76 -7.67,18.7 1.93,23.84l0.02 1.29 -18.25 8.59 9.77 10.72 -9.77 4.6 9.77 4.6c-8.68,4.09 -12.49,7.4 -11.4,9.96 1.09,2.56 -3.79,6.38 -14.66,11.5l-9.76 4.59c8.67,4.09 12.48,7.41 11.39,9.96 -1.09,2.56 -1.64,5.88 -1.64,9.96 -6.5,7.15 -8.68,10.73 -6.5,10.73 2.15,0 1.08,3.07 -3.25,9.2 -6.53,3.06 -9.78,7.66 -9.78,13.79 -0.99,1.39 -1.85,2.66 -2.62,3.84l-10.06 -5.34c5.95,-3.59 7.72,-5.69 5.31,-6.3 -2.41,-0.6 -1.23,-2.34 3.52,-5.22l-10.91 -5.79 5.36 -3.24 -3.64 -1.93 0.69 -0.21 5.83 2.75 -5.83 -2.75 13.65 -4.33 -3.64 -1.93 -5.45 -2.89c3.49,-7.61 3.37,-15.11 -0.37,-22.48l-10.7 6.47 5.45 2.89 3.63 1.93 -8.92 5.39c-2.38,1.44 -2.63,4.68 -0.74,9.74 1.87,5.05 -0.75,9.74 -7.89,14.05l9.09 4.82 5.34 -3.23 -10.7 6.47 0.07 4.08c0,0 -1.14,3.45 -3.44,10.33 -3.67,-4.65 -4.92,-7 -3.71,-7.03 1.19,-0.04 0.58,-0.69 -1.83,-1.99l-16.17 3.58 -7.2 0.23c2.38,-1.44 2.96,-2.82 1.74,-4.14 -1.22,-1.32 -0.64,-2.71 1.74,-4.14l-10.91 -5.79 -5.35 3.24 -8.82 11.52 -5.36 3.24c1.26,3.37 1.92,7.1 1.99,11.18l3.63 1.93c-4.77,2.88 -6.53,4.3 -5.33,4.26 1.21,-0.04 1.81,1.31 1.87,4.03 0.04,2.73 -1.43,4.64 -4.42,5.76 -2.98,1.12 -1.45,3.28 4.62,6.5l-1.72 5.16 10.8 -0.34c0.05,2.73 1.91,6.41 5.59,11.07 3.68,4.65 3.76,9.42 0.24,14.31l3.62 1.93c0.05,2.73 -1.13,4.47 -3.51,5.22 -2.39,0.76 -0.56,2.74 5.5,5.95l5.46 2.9 3.56 -2.16 -5.47 -2.89c-0.03,-2.73 0.81,-5.98 2.57,-9.79 1.73,-3.8 2.57,-7.07 2.54,-9.79l-0.29 -18.39c2.38,-1.44 5.38,-1.19 9.01,0.74l5.45 2.89c4.84,2.57 6.67,3.2 5.45,1.87 -1.23,-1.32 1.76,-1.42 8.99,-0.28 -1.37,2.47 -1.93,4.06 -1.64,4.8 -0.34,0.97 -0.66,1.97 -1,2.98l-0.83 0.5 0.58 0.3c-0.72,2.28 -1.42,4.65 -2.09,7.11 -5.44,19.92 -13.58,32.43 -24.44,37.54l6.52 3.06c6.51,-7.15 10.32,-14.05 11.41,-20.69 1.08,-6.64 7.07,-12.51 17.91,-17.62 -1.12,-1.58 -1.76,-3.42 -1.94,-5.5l2.96 1.58c-1.09,6.17 -1.03,10.26 0.21,12.27 1.23,2 0.66,3.73 -1.72,5.16l5.52 6.98 -5.45 -2.89 0.11 6.14 5.45 2.89 -5.26 9.36 3.64 1.93 -3.46 8.29c7.19,-0.23 11.98,-1.07 14.37,-2.5 5.95,-3.59 9.23,-5.91 9.8,-6.95 0.59,-1.04 -0.96,-3.89 -4.64,-8.54l3.68 -0.64 2.82 3.08 9.76 -4.6 -9.76 4.6 9.75 4.6 -16.29 7.66c-6.52,3.06 -7.59,5.62 -3.25,7.66 0,4.09 1.1,7.66 3.25,10.73 2.17,3.07 -1.08,6.64 -9.77,10.73 8.69,4.08 11.94,8.68 9.78,13.79 -2.17,5.11 -5.42,8.69 -9.78,10.73l-29.31 13.79 -9.78 -4.6 -13.58 6.4 -5.9 0c-3.72,-1.2 -8.09,-1.8 -13.09,-1.8 -6.52,0 -16.29,-3.06 -29.31,-9.19l-16.31 7.66c-6.51,3.07 -11.93,3.58 -16.28,1.53l-9.77 -4.59 -42.34 -4.6 -9.77 4.59 -39.1 -9.19 -9.98 2.82c-18.37,-9.71 -36.93,-17.77 -55.69,-24.22 -39.16,-13.33 -76.62,-19.99 -112.44,-19.99 -52.95,0 -101.8,9.86 -146.61,29.62l-1.02 -0.48 6.51 -3.07 0 -18.39 9.77 -4.6 6.52 -3.06c4.35,-2.05 6.52,-5.62 6.52,-10.73 0,-5.11 2.17,-8.68 6.5,-10.72l6.52 -3.07c-2.17,-11.24 -0.54,-17.62 4.89,-19.15 5.41,-1.54 3.79,-6.39 -4.89,-14.56 10.86,-5.12 18.47,-11.75 22.82,-19.92 4.32,-8.17 6.49,-14.3 6.49,-18.39l6.52 -3.06c-6.52,-7.16 -8.14,-9.46 -4.88,-6.9 3.26,2.56 4.88,-1.28 4.88,-11.49l9.78 -4.6 -6.51 -3.07 16.29 -7.66c-10.86,-5.11 -9.78,-10.73 3.26,-16.86 13.03,-6.13 15.2,-13.28 6.51,-21.45l6.52 -3.07c4.34,-2.05 7.06,-4.34 8.14,-6.9 1.09,-2.55 2.72,-5.36 4.9,-8.43 0,-4.08 1.08,-7.66 3.25,-10.72l19.54 -9.2 -16.29 -7.66 16.29 -7.66 -9.78 -4.6 19.55 -9.2c0,-4.08 2.17,-6.64 6.51,-7.66 4.35,-1.02 2.18,-3.57 -6.51,-7.66l19.54 -9.19 -9.77 -4.6 16.29 -7.67 -9.77 -13.79 16.29 -7.66 -6.52 -3.07 19.54 -9.19c0,-4.09 -0.53,-4.85 -1.61,-2.3 -1.1,2.55 4.88,0.76 17.91,-5.37l-9.78 -4.59 9.78 -4.6c0,-12.26 5.44,-20.94 16.29,-26.05 0,-4.09 0,-6.14 0,-6.14 -2.17,1.03 1.1,-0.51 9.77,-4.59l-9.77 -4.59 19.55 -9.2c4.33,-2.05 3.25,-4.6 -3.27,-7.67l19.54 -9.19 16.3 -7.67c-4.35,-2.04 -3.27,-4.59 3.25,-7.66 10.85,-5.1 15.73,-8.94 14.66,-11.49 -1.09,-2.55 2.72,-5.88 11.41,-9.97 0,-4.08 -1.08,-6.12 -3.26,-6.12 -2.17,0 1.08,-2.05 9.78,-6.14l19.55 -9.19 -9.78 -4.6 16.3 -7.66 9.76 -4.59c13.03,-10.22 27.15,-21.96 42.34,-35.25 15.21,-13.28 31.5,-24 48.87,-32.17 8.69,-4.08 9.78,-6.13 3.26,-6.13 -6.52,0 -5.44,-2.05 3.25,-6.13l65.16 -36.77 9.75 -4.6 97.73 -45.97 16.29 -7.66 35.82 -26.05 16.3 -7.67 9.77 -4.59 16.29 -7.66 29.31 -13.8 3.26 1.54c4.34,2.04 8.68,2.04 13.03,-0.01l35.82 -16.85 9.78 -4.6c17.37,-4.09 36.92,-10.73 58.63,-19.92 21.72,-9.19 46.69,-15.32 74.92,-18.39l16.29 -7.66 9.78 -4.59 16.29 7.66 9.77 -4.6 6.53 -3.06c6.5,-3.07 16.28,-4.6 29.3,-4.6 17.37,-4.09 30.93,-5.88 40.72,-5.37 9.77,0.51 25.51,-0.25 47.23,-2.29 15.2,-3.07 29.31,-3.07 42.34,0 13.03,3.06 26.07,1.52 39.09,-4.61l-19.54 -9.19 -6.52 -3.06 -29.32 -4.6 -16.29 7.66c-4.35,-2.04 -11.94,-3.57 -22.79,-4.6 -10.86,-1.02 -18.47,-0.51 -22.8,1.54l-22.8 -4.6c-6.5,-7.15 -10.31,-11.49 -11.4,-13.03 -1.07,-1.53 -3.8,-5.36 -8.15,-11.49 10.85,-5.11 21.71,-5.11 32.57,0l9.78 4.6 9.78 -4.6 29.32 -4.6 6.51 3.06c13.02,-2.03 23.34,-2.29 30.93,-0.76 7.61,1.53 19.01,0.76 34.21,-2.3l42.34 38.3 -9.75 4.6c13.02,6.13 27.68,8.43 43.97,6.9 16.29,-1.53 28.76,-0.26 37.46,3.83 8.69,0 20.63,0 35.83,0 15.2,0 27.15,0 35.84,0 13.03,2.04 22.8,4.09 29.32,6.13 6.52,2.04 17.37,1.53 32.56,-1.53l0 9.19c13.03,-2.04 19.55,-2.55 19.55,-1.53 0,1.02 4.34,1.53 13.03,1.53l-6.52 3.07 16.29 1.53 -9.76 -4.6 29.31 -4.6 35.84 7.67 0 9.19c8.69,0 12.49,-0.76 11.4,-2.29 -1.09,-1.54 0.54,-1.28 4.88,0.76 10.86,5.11 13.57,6.9 8.15,5.36 -5.42,-1.53 -8.15,-0.25 -8.15,3.83l9.78 -4.6c10.86,5.12 13.03,6.65 6.52,4.6 -6.52,-2.04 -15.2,-0.51 -26.07,4.61l29.33 4.59 16.29 -7.66 16.28 7.66 9.78 4.6 26.05 12.26c6.52,3.06 11.95,3.57 16.29,1.53l3.26 -1.53 26.05 -12.26 16.29 7.66 19.54 0 71.67 42.9c8.69,4.09 13.58,5.37 14.66,3.84 1.09,-1.54 4.9,1.28 11.41,8.43l6.52 3.06 9.77 4.6 9.78 4.59 16.28 7.66c15.21,7.16 26.07,13.29 32.59,18.39 6.5,5.11 14.11,9.7 22.79,13.79l9.78 4.59 6.52 21.45 9.77 4.6 35.83 7.66 26.07 21.45c-6.52,3.07 -6.52,6.13 0,9.2 13.03,6.13 20.08,10.47 21.17,13.02 1.08,2.55 7.06,6.38 17.92,11.5l13.03 0 -6.52 3.06 16.29 1.53c4.35,2.05 7.6,3.58 9.78,4.6 4.34,2.05 10.86,7.15 19.55,15.32l9.76 4.6 -29.32 4.6c6.52,3.07 13.03,3.07 19.56,0l26.04 21.45 -9.76 4.59 6.51 3.07 -6.51 3.07 9.76 4.59 9.78 13.79c-8.68,0 -13.03,-0.51 -13.03,-1.53 0,-1.02 -4.33,0.52 -13.03,4.6 -2.17,-5.11 -6.51,-9.2 -13.03,-12.26l-6.52 -3.07 0 -9.19 -9.77 -4.59 -16.29 -7.67 16.29 16.86 9.77 10.72c6.52,7.15 12.49,14.05 17.91,20.69 5.43,6.64 16.83,14.05 34.21,22.22l3.26 -7.67 -9.78 -4.6 -16.29 -16.85 16.29 -7.67 52.11 33.71c0,8.17 5.97,14.56 17.91,19.16 11.95,4.6 17.91,12 17.91,22.22 0,12.26 0.56,20.18 1.64,23.75 1.07,3.57 5.97,9.45 14.65,17.62l9.78 4.6 9.78 4.59 9.77 19.92 16.29 16.86 -19.53 0 -0.01 9.19c8.69,0 17.37,2.04 26.07,6.13 8.69,4.09 6.51,7.15 -6.53,9.2l19.54 9.19c-10.86,5.11 -15.2,7.66 -13.03,7.66 2.17,0 5.43,3.07 9.78,9.2l9.77 -4.6 -16.29 -7.66 16.29 -1.53c4.35,2.04 5.43,3.06 3.25,3.06 -2.17,0 0,3.58 6.52,10.73l-9.78 4.6 -9.77 -4.6 9.77 19.92 0 -15.32 9.78 4.6 19.54 24.52 -9.78 4.59 6.5 3.07 -16.27 1.53 16.27 -1.53 9.78 4.59 9.76 4.61c4.36,2.04 6.53,6.12 6.53,12.26 0,6.12 -2.18,10.21 -6.53,12.25 -4.32,2.05 -6.5,2.56 -6.5,1.54 0,-1.02 -4.34,-1.54 -13.04,-1.54l19.54 9.2c4.35,2.04 4.9,2.81 1.64,2.3 -3.26,-0.51 -7.06,0.25 -11.41,2.3l6.52 3.06 -6.52 3.07 9.76 4.6c-6.5,7.15 -8.13,10.97 -4.87,11.49 3.26,0.51 7.06,3.83 11.41,9.96l3.27 -7.66 16.28 7.66 0 24.52c-10.86,5.11 -15.2,9.2 -13.03,12.26 2.16,3.07 3.24,8.68 3.26,16.86l9.77 4.6 -9.77 -4.6 0 9.19 19.54 0c-13.03,6.13 -17.91,11.5 -14.66,16.09 3.25,4.6 4.88,12.01 4.88,22.22 0,4.09 -1.09,8.68 -3.27,13.79 -2.18,5.11 2.18,10.22 13.04,15.33 -4.35,6.12 -5.42,10.72 -3.26,13.79 2.17,3.06 3.26,9.7 3.26,19.92l-0.01 1.8 -28.76 0 -7.09 -3.33 7.09 3.33 -58.63 0 -3.81 -1.8c-0.45,0.64 -0.87,1.23 -1.23,1.8l-102.14 0c-25.71,-15.58 -51.74,-27.89 -78.18,-36.99 -15.18,-5.17 -30.13,-9.34 -44.81,-12.51 -0.53,-2.57 -2.62,-5.86 -6.27,-9.9 -0.82,-2.89 -1.61,-5.06 -2.38,-6.53l6.98 -3.29c-10.84,-9.19 -14.65,-13.54 -11.39,-13.03 3.26,0.51 0.55,-3.32 -8.15,-11.49l9.78 -4.6c0,-4.08 -1.64,-12 -4.9,-23.75 -3.25,-11.74 -4.88,-19.66 -4.88,-23.75 0,-4.09 -2.7,-10.98 -8.13,-20.69 -5.45,-9.71 -9.24,-19.15 -11.41,-28.35 0,-4.08 -3.26,-12.26 -9.78,-24.52 -6.52,-12.26 -11.95,-19.41 -16.28,-21.45 -4.35,-6.13 -5.44,-10.73 -3.26,-13.79 2.16,-3.06 -2.18,-7.15 -13.03,-12.26 0,-4.08 -2.72,-7.91 -8.14,-11.49 -5.43,-3.58 -2.72,-7.92 8.13,-13.03l-26.05 -12.26 9.78 -4.59c-6.52,-7.15 -13.57,-16.09 -21.18,-26.82 -7.59,-10.72 -15.74,-20.17 -24.42,-28.35 -4.34,-2.04 -8.14,-6.89 -11.4,-14.56 -3.26,-7.66 -4.89,-13.53 -4.89,-17.62 0,-4.09 -3.81,-8.43 -11.41,-13.03 -7.6,-4.6 -13.57,-9.96 -17.91,-16.08l-9.77 -4.6c-10.86,-5.11 -16.29,-13.8 -16.29,-26.05 -4.35,-2.05 -8.69,-5.62 -13.04,-10.73 -4.33,-5.1 -6.5,-9.7 -6.5,-13.79l-6.52 -3.07c-10.86,-5.11 -22.25,-10.98 -34.21,-17.62 -0.74,-0.41 -1.45,-0.83 -2.1,-1.24l4.48 -2.7 -10.91 -5.79c-0.32,-0.18 -0.6,-0.36 -0.83,-0.56 0.27,-2.6 2.86,-5.04 7.74,-7.33 -41.27,-19.43 -56.83,-41.7 -89.34,-74.35 -8.54,-8.59 -17.64,-15.46 -27.35,-20.6 -4.86,-2.57 -5.47,-3.91 -1.88,-4.03 3.61,-0.11 2.98,-1.46 -1.86,-4.04l-36.42 -23.37 -5.46 -2.9 -54.54 -28.93 -9.08 -4.83c-31.02,-25.84 -57.15,-30.32 -89.07,-47.27l-5.47 -2.89c-9.63,-2.41 -20.51,-6.5 -32.63,-12.25 -12.11,-5.75 -25.98,-9.4 -41.62,-10.95l-9.09 -4.82 -5.45 -2.89 -2.38 1.44 -5.29 -2.49 -7.09 3.34 -3.25 -1.73c-3.64,-1.93 -9.06,-2.78 -16.25,-2.55 -9.65,-2.42 -17.18,-3.38 -22.58,-2.86 -5.4,0.52 -14.12,0.28 -26.14,-0.7 -8.44,-1.78 -16.24,-1.53 -23.42,0.74 -7.16,2.27 -14.39,1.48 -21.65,-2.38l10.7 -6.48 3.58 -2.15 16.16 -3.58 9.08 4.82c2.38,-1.43 6.56,-2.59 12.55,-3.46 5.99,-0.87 10.21,-0.66 12.64,0.62l12.55 -3.47c3.53,-4.88 5.58,-7.83 6.17,-8.88 0.58,-1.04 2.05,-3.65 4.38,-7.8 -6.06,-3.22 -12.06,-3.02 -18.01,0.56l-5.36 3.24 -5.45 -2.89 -16.26 -2.56 -3.56 2.16c-7.23,-1.13 -12.94,-1.13 -17.12,0.03 -4.19,1.16 -10.5,0.85 -18.94,-0.94l-23.01 26.29 5.47 2.89c-7.13,4.32 -15.23,6.11 -24.24,5.37 -9.02,-0.73 -15.92,0.33 -20.68,3.21 -4.8,0.15 -11.41,0.36 -19.81,0.62 -8.41,0.27 -15.01,0.49 -19.81,0.63 -7.19,1.59 -12.57,3.12 -16.16,4.6 -3.57,1.48 -9.59,1.32 -18.03,-0.45l0.11 6.13c-7.24,-1.13 -10.84,-1.36 -10.84,-0.68 0,0.69 -2.38,1.1 -7.19,1.26l3.64 1.92 -8.98 1.31 5.34 -3.23 -16.25 -2.56 -4 1.16c-0.23,-0.56 -0.15,-1.1 0.21,-1.61 1.08,-1.53 -5.98,-0.77 -21.18,2.3l-45.59 21.45 -22.29 10.48 -9.4 -4.99 -8.94 5.39 -10.8 0.34 -39.16 29.87c-4.77,2.88 -7.46,3.81 -8.07,2.81 -0.62,-1 -2.69,0.94 -6.21,5.82l-3.57 2.15 -5.35 3.24 -5.35 3.24 -8.93 5.4c-8.33,5.03 -14.27,9.3 -17.82,12.83 -1.13,1.13 -2.34,2.22 -3.59,3.28l-0.37 -0.18 -35.83 22.98zm1605.32 626.96l3.81 -1.8 -9.77 -4.6 19.54 -9.19c12.11,5.69 16.83,10.88 14.17,15.58l-27.75 0zm56.37 -2.31c-2.92,-2.1 -3.05,-3.46 -0.43,-4.07 4.33,-1.03 2.17,-3.58 -6.52,-7.67l19.55 -9.2 -9.75 -4.59 6.49 -3.07 -26.06 -6.13 6.51 -3.06 9.78 -4.6c-6.52,-11.24 -6.52,-22.47 0,-33.71l19.54 9.19 -9.78 4.6 -6.51 3.06 16.29 7.66c4.35,2.05 4.89,6.9 1.64,14.56 -2.52,5.9 -0.2,11.34 6.97,16.34 -4.8,2.96 -9.46,6.13 -13.96,9.48l-4.41 -2.07 4.41 2.07c-4.74,3.53 -9.33,7.25 -13.75,11.2zm-1785.07 -485.11l-0.4 -0.1c-3.68,-0.86 -1.89,-3.2 5.34,-7 -0.69,2.67 -2.35,5.05 -4.93,7.1zm10.71 -14.79l-4.59 -2.15 16.89 -7.95 -12.3 10.1zm-150.07 310.68c0.56,-1 1.29,-2.1 2.15,-3.32 13.03,-6.13 17.37,-10.22 13.03,-12.26l16.29 -7.67c-10.86,-5.1 -13.57,-6.89 -8.14,-5.36 5.41,1.54 4.89,-1.27 -1.64,-8.42l19.55 -9.2c0,-4.08 -1.64,-5.87 -4.89,-5.36 -3.26,0.51 -2.73,-0.26 1.63,-2.3l-6.52 -3.07c1.96,-0.92 3.73,-1.79 5.3,-2.6 6.02,3.49 8.21,6.68 6.59,9.55 -1.75,3.12 -2.57,8.09 -2.44,14.9 0.03,2.73 0.69,5.77 1.95,9.14 0.37,1.02 0.43,2.03 0.14,3.08 -1.56,0.96 -3.24,1.87 -5.02,2.7l2.5 1.18c-1.18,1.15 -2.73,2.32 -4.67,3.49 2.47,4.02 3.13,7.07 1.95,9.14 -1.08,1.93 -1.62,5.93 -1.6,11.98 -1.45,1.4 -3.02,3.01 -4.7,4.86 2.16,1.02 3.27,3.57 3.27,7.66 0,1.63 -0.69,3.56 -2.07,5.85l-10.6 1.84 -5.35 3.23 5.35 -3.23 -5.35 3.23 -9.1 -4.82c7.14,-4.32 9.21,-6.59 6.21,-6.84 -3.02,-0.25 -2.14,-1.81 2.63,-4.69l-9.09 -4.82 5.36 -3.24 -10.92 -5.79c-0.64,0.38 -1.24,0.75 -1.8,1.13zm38.73 -60.58c3.91,-2.12 6.27,-3.79 7.09,-5l0.08 4.77 -7.16 0.23zm7.07 -6.54c-0.27,-0.23 -0.71,-0.41 -1.3,-0.55 -2.58,-0.61 -2.1,-2.13 1.48,-4.54 -0.14,1.48 -0.2,3.18 -0.18,5.09zm18.14 -38.81l9.78 -4.59 5.63 0.62 -10.71 6.47 -4.71 -2.5zm10.86 -7.42c-2.22,-1.43 -3.02,-2.86 -2.4,-4.29l5.06 2.69 -2.66 1.61zm25.76 -18.99l2.58 -1.21 4.57 -2.15c-0.18,2.29 -0.71,4.83 -1.61,7.58 -2.29,6.88 -4.62,11.05 -7,12.49 0.06,4.08 0.7,6.46 1.91,7.1l0.49 0.27 -3.91 1.84 -0.15 0.04 -0.27 0.15 -1.71 0.82 -1.61 -0.86c3.52,-4.88 3.18,-7.42 -1.04,-7.63 -4.2,-0.21 -2.14,-2.83 6.18,-7.86 -2.47,-4.01 -2.5,-6.74 -0.14,-8.18 0.97,-0.58 1.55,-1.39 1.71,-2.39zm-4.52 39.7c-0.28,0.88 -0.63,1.8 -1.03,2.75 -2.64,6.19 -7.74,11.53 -15.33,16.05 -0.31,-1.26 -0.56,-2.54 -0.71,-3.85 -0.69,-5.77 2.52,-10.82 9.66,-15.14 -3.64,-1.93 -1.89,-5.05 5.25,-9.36 0.04,2.33 0.77,5.51 2.15,9.55zm-13.54 25.98l1.1 0.53 -0.64 0.3 -0.46 -0.82zm-21.49 19.95l-0.43 0.88 -0.03 -1.12 0.46 0.24zm-4.94 11.06c-0.37,0.65 -0.78,1.27 -1.2,1.89l-3.14 -1.67 5.35 -3.24 -1 3.01zm-4.67 6.13c-1.29,1.35 -2.7,2.62 -4.25,3.81l-2.49 -1.32 5.34 -3.23 1.39 0.74zm312.47 -460.78l-0.38 0.31 -0.11 -0.01 0.49 -0.3zm-6.44 6.62c0.33,0.66 1.15,1.33 2.42,1.99l-1.74 1.05 -3.57 2.15 -16.06 9.71 -3.58 2.15c3.65,1.93 3.68,3.97 0.09,6.13l-1.98 1.21 -9.87 4.64 -4.29 -2.28 -2.23 5.35 -1.74 0.81 -1.86 0.88 -1.63 -0.88 0.23 0c2.16,0 2.16,-0.51 0,-1.53l-0.23 -0.1c3.84,-2.19 6.05,-2.85 6.59,-1.95 0.63,1 0.91,0.14 0.87,-2.59l5.36 -3.24c-2.43,-1.28 -3.62,-1.25 -3.62,0.11 0.04,1.37 3.01,0.25 8.95,-3.35 2.39,-1.44 2.69,-2.3 0.86,-2.58 -1.79,-0.28 -0.3,-0.5 4.5,-0.65l-5.44 -2.89 14.28 -8.63 8.92 -5.4 4.77 -0.15zm3.06 1.61l0 -1.71 2.98 -0.09 -2.98 1.8zm-426.86 499.45c6.08,3.21 8.5,4.84 7.3,4.88 -1.2,0.03 -1.78,1.42 -1.74,4.14l-5.57 -9.02zm25.29 3.28l-1.72 5.17 -3.63 -1.93 5.35 -3.24zm90.72 -73.41l10.71 -6.47 5.45 2.89 -10.69 6.47 -5.47 -2.89zm15.9 -19.92l5.36 -3.24 0.11 6.14 -5.47 -2.89zm-0.09 -6.14c-3.63,-1.93 -2.48,-4.68 3.47,-8.28l-3.47 8.28zm1663.12 259.36l9.78 4.6 -9.77 4.59c8.69,0 11.41,-0.25 8.15,-0.76 -3.26,-0.52 0.55,-3.32 11.4,-8.43 0,-4.09 1.62,-4.85 4.88,-2.3 3.27,2.55 1.64,0.26 -4.89,-6.9l-19.54 9.2zm74.91 -41.37l-9.76 -4.6 -19.54 9.2 9.76 4.59 19.54 -9.19zm-13.02 -12.26l-9.77 -4.6 3.24 7.66 6.52 -3.06zm-16.29 -7.66l0.01 -9.2 -9.79 4.6 9.78 4.6zm-35.83 7.66c4.35,-2.05 5.44,-3.06 3.26,-3.06 -2.16,0 -3.26,-2.05 -3.26,-6.14 -8.68,4.09 -11.94,6.14 -9.77,6.14 2.17,0 3.27,2.04 3.27,6.12l6.5 12.26 9.78 -4.6 -9.78 -10.72zm55.39 -26.05l-19.55 -9.19 -9.78 4.6 19.53 9.19 9.8 -4.6zm-29.34 -29.11l-9.75 -4.6 0 9.2 9.75 -4.6zm0 -9.2c6.53,-3.06 4.35,-7.15 -6.5,-12.26l6.5 12.26zm-42.33 -19.92c6.51,-3.07 3.25,-7.66 -9.78,-13.79 0,4.08 -1.63,9.96 -4.89,17.62 -3.25,7.66 1.64,14.56 14.66,20.69 -10.86,5.11 -14.66,8.94 -11.38,11.49 3.24,2.56 9.22,5.88 17.9,9.96 6.52,-7.15 10.32,-15.06 11.41,-23.75 1.07,-8.68 -4.89,-16.09 -17.92,-22.22zm52.11 -24.52l-9.78 -4.6 -26.05 3.06 19.54 9.2 16.29 -7.66zm-32.57 -9.2l6.52 3.07 9.77 -10.73 -16.29 7.66zm-3.26 -26.05l-9.77 4.6 19.54 9.19 -9.78 -13.79zm-9.78 -19.92l-6.51 -3.07 6.51 3.07zm-26.05 36.77c4.34,-6.13 4.34,-10.22 0,-12.26 -4.35,-2.05 -4.35,-6.14 -0.01,-12.26l-16.29 1.52c0,4.1 1.08,8.69 3.25,13.8 4.35,10.22 8.69,16.35 13.03,18.39 0,6.13 -1.08,9.71 -3.26,10.73l-3.26 1.53c0,0 3.26,0.52 9.77,1.54l3.26 1.53 3.26 -1.53c-6.52,-7.16 -5.97,-10.99 1.64,-11.5 7.6,-0.51 3.81,-4.34 -11.4,-11.49zm9.76 -44.43l9.78 4.59 -9.78 -4.59zm-35.83 16.85l0 -9.19 0 9.19zm35.83 -26.05l9.78 4.6 -6.52 -3.07c-2.18,-1.02 0,-3.06 6.52,-6.13l-9.78 4.6zm-35.83 -32.18c-15.2,-7.15 -19.54,-12.26 -13.03,-15.32 6.52,-3.07 5.43,-6.64 -3.26,-10.73 -4.34,-2.04 -9.22,-2.81 -14.65,-2.3 -5.44,0.51 -10.32,-0.26 -14.67,-2.29l9.78 4.59 -9.78 4.6 16.29 7.66 -16.29 7.67c10.86,9.19 20.1,20.17 27.7,32.94 7.61,12.78 20.08,23.24 37.45,31.41 -10.83,-5.11 -15.2,-10.22 -13.03,-15.32 2.19,-5.11 3.26,-9.71 3.26,-13.8 -10.86,-9.19 -17.38,-14.3 -19.55,-15.32 -2.17,-1.03 1.09,-5.63 9.78,-13.8zm19.55 15.33l9.77 4.6 6.51 -3.06 -9.76 -4.6 -6.52 3.06zm16.28 -7.66l0 -9.2 -9.76 4.6 9.76 4.6zm-9.77 -38.3l-9.77 -4.6 -6.52 -3.07 0 -9.19 -9.78 -4.6 -16.29 -7.66c0,12.26 7.6,21.96 22.8,29.11 0,4.08 -0.55,7.4 -1.64,9.95 -1.07,2.56 3.83,6.39 14.66,11.5 4.33,-6.13 7.6,-9.2 9.77,-9.2 2.18,0 -2.17,-2.55 -13.02,-7.66l9.77 -4.59zm-35.84 -32.18c10.86,-13.28 5.44,-18.9 -16.29,-16.86l16.29 16.86zm-35.83 -35.24c17.38,-8.17 20.64,-14.81 9.77,-19.92 -8.69,-4.09 -14.11,-5.11 -16.28,-3.07 -2.18,2.05 -5.43,2.05 -9.78,0l6.52 3.07 -6.52 3.06c13.04,6.13 17.91,11.5 14.66,16.09 -3.26,4.59 0.55,9.45 11.41,14.55 0,-4.08 1.09,-6.13 3.26,-6.13 2.18,0 -2.17,-2.55 -13.04,-7.66zm-16.29 26.05c4.35,-2.05 4.89,-5.37 1.63,-9.97 -3.25,-4.59 -7.06,-7.91 -11.4,-9.96 -4.35,-2.04 -6.52,-3.06 -6.52,-3.06 2.17,1.02 -1.09,1.53 -9.77,1.53l6.51 -3.07 -9.78 -4.59c-8.69,4.09 -10.31,8.43 -4.89,13.02 5.44,4.6 10.32,9.97 14.67,16.09 10.85,5.1 15.74,9.96 14.66,14.55 -1.1,4.6 3.79,9.46 14.66,14.56 4.34,2.05 5.42,3.07 3.27,3.07 -2.19,0 -1.1,3.06 3.24,9.2 10.87,-5.12 13.03,-12.27 6.52,-21.45 -6.52,-9.2 -14.12,-15.84 -22.81,-19.92zm-61.88 -53.64l0 -9.19 0 9.19zm6.51 -30.64l-16.29 7.67 16.29 -7.67zm-42.35 -19.92l19.54 0c-10.86,-5.1 -13.57,-6.89 -8.14,-5.36 5.43,1.53 4.88,-1.28 -1.62,-8.43l-9.78 13.79zm0 -18.39c0,-4.08 0,-6.13 0,-6.13 2.17,1.02 -1.09,-0.51 -9.78,-4.6l9.78 10.73zm-61.89 -53.63c4.34,6.13 8.15,7.91 11.4,5.36 3.26,-2.55 -0.53,-1.27 -11.4,3.83l26.06 12.27 -26.06 -21.45zm-9.77 -4.6l9.77 4.6 -9.77 -4.6zm-52.12 -33.71l6.5 -3.07 9.78 4.6 9.77 -4.6c-17.37,-4.09 -22.79,-5.11 -16.28,-3.06 6.51,2.04 2.17,1.53 -13.03,-1.54l3.26 7.67zm-39.09 -49.03l-6.52 3.06 29.33 13.79 -22.8 -16.85zm-22.79 -38.31c-2.17,-5.1 -11.95,-11.75 -29.32,-19.92l29.32 19.92zm61.89 38.31c4.34,-6.13 3.79,-11.5 -1.62,-16.09 -5.44,-4.59 -11.42,-10.47 -17.93,-17.62l-26.07 -3.06c-4.32,2.04 -6.49,3.06 -6.49,3.06 -2.18,1.02 -6.52,5.11 -13.03,12.26l-6.52 -3.06 -9.77 4.59 -19.55 -9.19c6.52,-3.06 6.52,-6.13 0,-9.2 -4.33,-2.04 -13.03,-3.06 -26.05,-3.06 32.59,15.32 54.29,30.64 65.14,45.97 17.38,-8.18 19.54,-12.27 6.52,-12.27 0,-6.13 3.26,-10.72 9.76,-13.79 0,6.13 3.26,10.73 9.78,13.79l42.33 19.92 9.79 -4.6 -16.29 -7.66zm-133.56 -53.63l-9.78 -4.6 9.78 4.6 16.29 7.66 -16.29 -7.66c-4.35,-2.05 -6.52,-2.05 -6.52,0 0,2.05 2.17,2.05 6.52,0zm-29.32 -13.8l19.54 9.2 -19.54 -9.2zm-26.06 -21.45c-4.35,-6.12 -4.35,-8.16 0,-6.12 4.35,2.04 2.18,3.06 -6.51,3.06l-3.26 7.67 9.76 4.6 26.07 12.25 9.77 -4.6 -35.83 -16.86zm81.44 13.8c4.34,-2.04 6.51,-2.04 6.51,0 0,2.05 -5.42,0.51 -16.29,-4.59 -4.33,-2.05 -4.89,-3.33 -1.62,-3.84 3.25,-0.51 0.55,-0.76 -8.15,-0.77l9.78 -4.6 -26.06 -12.25 -16.29 -7.66 -19.54 0 9.77 4.59 6.53 3.07 29.3 13.79 6.51 3.06c-6.51,3.07 -6.51,6.14 0.01,9.2l9.77 4.6 9.78 4.6 9.77 -4.6 6.52 12.26 9.77 -4.6c-8.69,-4.09 -13.56,-5.36 -14.66,-3.83 -1.1,1.53 -1.63,0.26 -1.63,-3.83l-9.77 -4.6zm-87.95 -41.36l16.29 -1.54 -6.51 -3.06 -9.78 4.6zm-1208.49 476.53l-9.77 4.59 9.77 -4.59zm52.13 -168.56c-6.51,7.15 -9.78,12.78 -9.78,16.86 0,4.09 0,8.18 0.01,12.27 8.69,-4.09 12.48,-8.95 11.4,-14.56 -1.09,-5.63 -1.62,-10.48 -1.62,-14.56zm540.71 -346.29l9.78 4.6 9.76 -4.6 -19.54 0zm-381.11 179.28l-9.77 4.6 29.31 -4.6 -19.54 0zm400.66 -188.47l-9.77 -4.6 9.77 4.6zm-631.93 229.84c2.17,1.02 3.24,2.55 3.24,4.59 0,4.09 2.19,7.15 6.52,9.2 8.69,-4.09 11.94,-6.13 9.77,-6.13 -2.15,0 -3.25,-2.05 -3.25,-6.13 -8.68,0 -12.49,-0.77 -11.39,-2.3 1.08,-1.53 -0.55,-1.28 -4.9,0.77zm361.57 -237.5l-6.51 -3.06c-10.86,-1.03 -16.28,1.53 -16.28,7.66l22.79 -4.6z"/>
   <path class="fil3" d="M5957.35 798.4c7.49,3.63 12.36,9.46 14.63,17.5 2.27,8.03 5.92,14.81 10.94,20.33 5.06,8.62 6.86,16.04 5.38,22.26 -1.48,6.22 -2.78,13.68 -3.91,22.38 5.03,5.52 8.18,10.13 9.47,13.83 1.29,3.71 1.96,8.66 2.04,14.86 -1.21,2.49 0.08,6.97 3.88,13.44 3.8,6.47 6.38,14.66 7.74,24.55 1.28,3.71 3.8,6.47 7.54,8.28 3.74,1.82 6.94,9.53 9.58,23.14 1.36,9.91 2.11,21.07 2.26,33.46l-1.81 3.75 -54.79 84.37 -13.73 18.77c-4.83,9.98 -10.16,18.58 -15.97,25.78 -5.8,7.2 -11.12,15.79 -15.97,25.77l-29.32 36.63 1.93 5.56 -15.55 22.51c-3.7,1.29 -5.72,1.47 -6.04,0.54 -0.32,-0.93 -1.99,1.73 -5.02,7.96l-27.4 42.19 -1.81 3.75 -28.25 48.71 -17.41 21.6c-3.03,6.24 -5.33,8.6 -6.9,7.07 -1.57,-1.53 -3.56,0.2 -5.98,5.18l-23.72 39.35 -1.81 3.75c-3.02,6.24 -5.32,8.59 -6.89,7.06 -1.57,-1.53 -3.56,0.2 -5.98,5.18l-7.26 14.97c-3.03,6.24 -7.15,11.56 -12.37,15.97 -5.22,4.41 -10.93,6.65 -17.12,6.72l-20.13 27.21 0.78 -11.17c-5.56,1.93 -8.94,4.13 -10.15,6.63 -3.63,7.49 -7.91,12.35 -12.84,14.57 -4.93,2.23 -8.61,5.84 -11.03,10.83l-14.53 29.94 -11.22 -5.44 -7.26 14.97 -7.26 14.97 -3.75 -1.82 40.84 -84.21 4.55 -9.36 5.44 -11.23 4.54 -9.35 -5.61 -2.73 9.98 -20.58c2.42,-5 3.17,-7.33 2.24,-7.01 -0.92,0.32 -2.03,-1.37 -3.31,-5.08l-2.73 5.62 -9.36 -4.55c-3.64,7.49 -6.68,12.18 -9.14,14.07 -2.46,1.89 -5.5,6.58 -9.13,14.06l-11.8 24.33c-3.63,7.48 -6.99,12.01 -10.07,13.61 -3.08,1.58 -6.44,6.12 -10.07,13.61l-4.54 9.36 -14.35 43.89 13.1 6.36 -7.26 14.97c-6.66,13.73 -9.01,24.91 -7.04,33.57 1.96,8.66 0.53,17.98 -4.32,27.96l-1.81 3.74 8.5 11.06 9.36 4.54 -8.34 2.89c0.64,1.86 1.43,3.4 2.38,4.62 0.95,1.23 1.74,2.77 2.38,4.62l1.93 5.56c-3.62,7.48 -8.52,12.81 -14.69,15.99 -6.17,3.18 -12.01,7.29 -17.53,12.31l-1.81 3.75c-4.84,9.97 -12.82,16.89 -23.93,20.75l3.79 6.46 -36.58 51.6c-2.42,4.99 -4.09,7.65 -5.02,7.97 -0.93,0.32 -4.51,-1.04 -10.74,-4.06 -5,-2.42 -7.67,-4.87 -8,-7.35 -0.34,-2.47 -2.4,-6.17 -6.18,-11.09 3.03,-6.24 4.38,-9.82 4.06,-10.75 -0.32,-0.93 -2.37,-3.84 -6.15,-8.76l-8.5 -11.05c-12.47,-6.05 -26.27,-18.91 -41.39,-38.57 -15.12,-19.66 -24,-36.3 -26.65,-49.91l-9.35 -4.54c-1.32,-6.81 -4.38,-15.61 -9.17,-26.4 -4.77,-10.79 -10.02,-21.42 -15.73,-31.89 -5.7,-10.48 -10.01,-20.66 -12.93,-30.55 -2.91,-9.89 -3.15,-17.32 -0.73,-22.32l14.52 -29.94 2.73 -5.61c2.5,1.21 5.58,0.4 9.27,-2.44 3.68,-2.83 6.13,-5.5 7.34,-7.99 3.03,-6.24 7.32,-10.32 12.88,-12.25 5.56,-1.93 8.95,-4.14 10.15,-6.63l16.34 -33.68c4.84,-9.98 9.1,-17.17 12.76,-21.55 3.67,-4.38 7.32,-10.32 10.95,-17.8l1.81 -3.75c3.03,-6.24 9.01,-11.43 17.95,-15.56 8.95,-4.14 17.08,-10.6 24.42,-19.36l78.5 -123.73 26.32 -54.27 37.38 -62.77c3.63,-7.49 6.68,-12.18 9.13,-14.07 2.46,-1.89 5.2,-5.95 8.23,-12.19l9.41 9.19c1.21,-2.5 2.59,-3.75 4.13,-3.78 1.55,-0.02 2.93,-1.27 4.14,-3.77l7.26 -14.97 34.66 -57.16 2.73 -5.61c3.7,-1.29 7.39,-3.35 11.09,-6.18 3.68,-2.83 6.13,-5.5 7.34,-7.99l2.73 -5.61c6.05,-12.48 19.19,-28.45 39.42,-47.91 20.23,-19.48 33.67,-36.07 40.32,-49.79l1.82 -3.74c5.52,-5.03 10.42,-9.59 14.72,-13.67 4.29,-4.08 8.25,-9.86 11.88,-17.34l5.61 2.72c-1.21,2.5 -2.9,3.6 -5.08,3.32 -2.17,-0.28 -3.86,0.82 -5.07,3.31 -3.03,6.24 -3.91,9.66 -2.67,10.26 2.5,1.21 1.93,5.56 -1.7,13.04l26.76 -17.06 5.45 -11.22 1.81 -3.75 2.73 -5.62c6.12,-6.27 11.82,-10.06 17.08,-11.37 5.25,-1.3 10.3,-6.94 15.14,-16.92l9.36 4.54 21.78 -44.91 1.82 -3.74c3.02,-6.24 6.85,-10.16 11.48,-11.77 4.64,-1.61 8.76,-6.15 12.39,-13.64 9.98,4.84 14.06,9.13 12.24,12.87 -1.81,3.74 -0.81,9.62 3.01,17.64l-16.62 10.43z"/>
   <path class="fil3" d="M6915.3 1789.5c4.31,7.12 5.24,14.66 2.78,22.64 -2.47,7.97 -3.08,15.65 -1.86,23.01 -0.43,9.99 -2.95,17.19 -7.58,21.61 -4.61,4.42 -9.76,9.97 -15.43,16.66 1.22,7.37 1.36,12.95 0.43,16.76 -0.94,3.81 -3.05,8.33 -6.36,13.57 -2.38,1.44 -3.72,5.9 -4.05,13.4 -0.32,7.49 -2.6,15.76 -6.84,24.81 -0.93,3.81 -0.32,7.5 1.83,11.05 2.15,3.56 0.65,11.77 -4.52,24.63 -4.24,9.05 -9.67,18.83 -16.28,29.32l-3.56 2.15 -91.83 41.07 -21.72 8.31c-9.49,5.75 -18.62,10.07 -27.41,12.97 -8.79,2.89 -17.91,7.21 -27.4,12.96l-44.52 14.82 -1.4 5.72 -25.28 10.45c-3.81,-0.93 -5.6,-1.87 -5.36,-2.82 0.23,-0.95 -2.62,0.37 -8.54,3.96l-45.92 20.53 -3.56 2.15 -50.18 25.55 -26.35 8.68c-5.94,3.59 -9.14,4.32 -9.62,2.19 -0.49,-2.14 -3.1,-1.77 -7.84,1.1l-41.29 20.16 -3.56 2.15c-5.93,3.59 -9.14,4.32 -9.62,2.19 -0.48,-2.14 -3.1,-1.77 -7.84,1.1l-14.22 8.63c-5.93,3.59 -12.28,5.82 -19.06,6.68 -6.78,0.86 -12.78,-0.36 -18.03,-3.66l-31.69 11.91 6.73 -8.95c-5.71,-1.4 -9.75,-1.39 -12.12,0.05 -7.12,4.31 -13.35,6.07 -18.71,5.25 -5.35,-0.81 -10.4,0.23 -15.14,3.1l-28.46 17.25 -6.47 -10.67 -14.22 8.62 -14.23 8.63 -2.15 -3.56 80.03 -48.51 8.89 -5.39 10.67 -6.47 8.89 -5.38 -3.24 -5.34 19.56 -11.86c4.75,-2.87 6.65,-4.43 5.69,-4.66 -0.95,-0.24 -0.96,-2.25 -0.03,-6.07l-5.33 3.24 -5.4 -8.89c-7.12,4.31 -12.22,6.59 -15.31,6.84 -3.08,0.25 -8.19,2.54 -15.3,6.84l-23.12 14.02c-7.11,4.31 -12.39,6.3 -15.84,5.95 -3.45,-0.34 -8.73,1.64 -15.84,5.96l-8.89 5.38 -35.9 29.05 7.55 12.46 -14.23 8.63c-13.05,7.9 -21.1,16.03 -24.15,24.36 -3.05,8.34 -9.32,15.37 -18.81,21.13l-3.56 2.15 1.13 13.9 5.39 8.89 -8.57 -2.1c-0.46,1.9 -0.64,3.63 -0.51,5.18 0.12,1.55 -0.05,3.27 -0.51,5.17l-1.4 5.72c-7.12,4.31 -14.12,6.12 -21.02,5.44 -6.91,-0.69 -14.03,-0.41 -21.4,0.81l-3.56 2.16c-9.49,5.75 -19.94,7.22 -31.36,4.42l-0.33 7.49 -58.75 23.45c-4.74,2.88 -7.59,4.2 -8.54,3.97 -0.95,-0.24 -3.22,-3.32 -6.81,-9.24 -2.88,-4.75 -3.78,-8.25 -2.73,-10.51 1.06,-2.27 1.34,-6.49 0.84,-12.67 5.93,-3.59 9.01,-5.87 9.24,-6.82 0.24,-0.95 0.1,-4.51 -0.4,-10.7l-1.13 -13.9c-7.18,-11.85 -11.79,-30.15 -13.8,-54.86 -2.02,-24.73 -0.43,-43.52 4.74,-56.39l-5.39 -8.88c2.58,-6.43 4.8,-15.48 6.65,-27.14 1.85,-11.66 3.23,-23.43 4.13,-35.33 0.9,-11.9 2.81,-22.78 5.73,-32.67 2.93,-9.88 6.77,-16.25 11.51,-19.13l28.46 -17.24 5.33 -3.24c1.44,2.37 4.48,3.37 9.11,2.99 4.63,-0.38 8.14,-1.29 10.51,-2.73 5.93,-3.59 11.75,-4.69 17.47,-3.28 5.72,1.4 9.76,1.38 12.13,-0.06l32.01 -19.4c9.49,-5.76 16.96,-9.47 22.42,-11.16 5.46,-1.69 11.75,-4.69 18.86,-9l3.56 -2.15c5.93,-3.59 13.78,-4.71 23.53,-3.32 9.75,1.39 20.09,0.39 31.02,-2.99l133.12 -61.24 51.58 -31.26 65.48 -32.4c7.12,-4.31 12.22,-6.59 15.31,-6.84 3.09,-0.25 7.6,-2.18 13.52,-5.76l2.92 12.82c2.37,-1.44 4.21,-1.74 5.52,-0.91 1.32,0.82 3.15,0.52 5.53,-0.92l14.22 -8.62 60.15 -29.17 5.34 -3.24c3.81,0.94 8.03,1.22 12.66,0.84 4.64,-0.37 8.14,-1.29 10.51,-2.72l5.33 -3.24c11.86,-7.19 31.57,-13.46 59.13,-18.81 27.56,-5.35 47.86,-11.98 60.9,-19.89l3.56 -2.15c7.37,-1.23 13.96,-2.38 19.78,-3.48 5.82,-1.1 12.29,-3.81 19.41,-8.12l3.23 5.34c-2.37,1.44 -4.39,1.45 -6.06,0.02 -1.67,-1.42 -3.69,-1.41 -6.06,0.03 -5.93,3.59 -8.53,5.98 -7.82,7.16 1.44,2.38 -1.4,5.72 -8.51,10.03l31.74 0.21 10.67 -6.46 3.56 -2.15 5.34 -3.24c8.55,-1.93 15.39,-2.03 20.51,-0.26 5.12,1.76 12.43,-0.24 21.9,-5.98l5.39 8.89 42.69 -25.88 3.56 -2.15c5.93,-3.59 11.28,-4.8 16.04,-3.64 4.76,1.16 10.7,-0.4 17.81,-4.71 5.75,9.48 6.84,15.3 3.29,17.46 -3.56,2.15 -5.91,7.64 -7.06,16.45l-19.62 -0.27z"/>
   <path class="fil3" d="M3278.62 849.47c-7.49,3.63 -12.36,9.46 -14.63,17.5 -2.27,8.03 -5.92,14.81 -10.94,20.33 -5.06,8.63 -6.86,16.04 -5.38,22.26 1.48,6.22 2.78,13.68 3.91,22.38 -5.02,5.52 -8.18,10.13 -9.46,13.83 -1.29,3.71 -1.96,8.66 -2.04,14.86 1.21,2.49 -0.08,6.97 -3.88,13.45 -3.79,6.46 -6.37,14.65 -7.74,24.55 -1.29,3.7 -3.8,6.46 -7.54,8.28 -3.74,1.82 -6.94,9.53 -9.58,23.14 -1.36,9.91 -2.12,21.07 -2.26,33.46l1.81 3.75 54.79 84.37 13.72 18.77c4.84,9.98 10.16,18.58 15.97,25.78 5.8,7.2 11.12,15.79 15.97,25.77l29.32 36.63 -1.93 5.56 15.54 22.51c3.71,1.29 5.72,1.47 6.05,0.54 0.32,-0.93 1.99,1.73 5.02,7.96l27.4 42.19 1.81 3.75 28.25 48.71 17.41 21.6c3.03,6.24 5.32,8.6 6.9,7.07 1.57,-1.53 3.56,0.2 5.98,5.18l23.71 39.35 1.82 3.75c3.02,6.24 5.32,8.59 6.89,7.06 1.57,-1.53 3.56,0.2 5.98,5.18l7.26 14.97c3.03,6.24 7.15,11.56 12.36,15.97 5.22,4.41 10.93,6.65 17.13,6.72l20.13 27.21 -0.79 -11.17c5.56,1.93 8.95,4.13 10.16,6.63 3.63,7.49 7.91,12.35 12.84,14.58 4.93,2.22 8.61,5.84 11.03,10.83l14.52 29.94 11.23 -5.44 7.26 14.97 7.26 14.97 3.75 -1.82 -40.84 -84.21 -4.55 -9.36 -5.44 -11.23 -4.54 -9.35 5.61 -2.73 -9.98 -20.58c-2.42,-4.99 -3.17,-7.33 -2.24,-7.01 0.92,0.32 2.03,-1.37 3.31,-5.07l2.73 5.61 9.36 -4.55c3.63,7.49 6.68,12.18 9.14,14.07 2.46,1.89 5.5,6.58 9.13,14.06l11.8 24.33c3.63,7.48 6.99,12.01 10.07,13.61 3.08,1.58 6.44,6.12 10.07,13.61l4.54 9.36 14.35 43.89 -13.1 6.36 7.26 14.97c6.66,13.73 9.01,24.91 7.04,33.57 -1.96,8.66 -0.53,17.98 4.32,27.96l1.81 3.74 -8.5 11.06 -9.36 4.54 8.34 2.89c-0.64,1.85 -1.44,3.39 -2.38,4.62 -0.94,1.23 -1.74,2.76 -2.38,4.62l-1.93 5.55c3.63,7.49 8.53,12.82 14.69,15.99 6.16,3.18 12.01,7.29 17.53,12.31l1.81 3.75c4.84,9.97 12.81,16.89 23.93,20.75l-3.8 6.46 36.59 51.61c2.42,4.99 4.09,7.64 5.02,7.96 0.93,0.32 4.51,-1.04 10.74,-4.06 4.99,-2.42 7.66,-4.87 8,-7.35 0.34,-2.47 2.4,-6.17 6.18,-11.09 -3.03,-6.24 -4.39,-9.82 -4.06,-10.75 0.32,-0.93 2.37,-3.84 6.15,-8.76l8.5 -11.05c12.48,-6.05 26.28,-18.91 41.39,-38.57 15.13,-19.66 24.01,-36.3 26.65,-49.91l9.36 -4.54c1.32,-6.81 4.38,-15.61 9.16,-26.4 4.78,-10.79 10.03,-21.42 15.74,-31.89 5.7,-10.48 10.01,-20.66 12.93,-30.55 2.91,-9.89 3.15,-17.32 0.73,-22.32l-14.52 -29.94 -2.73 -5.61c-2.5,1.21 -5.59,0.4 -9.27,-2.44 -3.68,-2.83 -6.13,-5.5 -7.34,-7.99 -3.03,-6.24 -7.32,-10.32 -12.88,-12.25 -5.56,-1.93 -8.95,-4.13 -10.16,-6.63l-16.33 -33.68c-4.84,-9.98 -9.1,-17.17 -12.77,-21.55 -3.66,-4.38 -7.31,-10.32 -10.94,-17.8l-1.82 -3.74c-3.02,-6.24 -9.01,-11.44 -17.95,-15.57 -8.95,-4.14 -17.08,-10.59 -24.42,-19.36l-78.5 -123.73 -26.32 -54.27 -37.38 -62.77c-3.63,-7.49 -6.68,-12.18 -9.14,-14.07 -2.45,-1.89 -5.19,-5.95 -8.22,-12.19l-9.41 9.19c-1.21,-2.5 -2.59,-3.75 -4.14,-3.78 -1.55,-0.02 -2.92,-1.27 -4.13,-3.77l-7.26 -14.97 -34.66 -57.16 -2.73 -5.61c-3.7,-1.29 -7.4,-3.35 -11.09,-6.18 -3.68,-2.83 -6.13,-5.5 -7.34,-7.99l-2.73 -5.61c-6.05,-12.48 -19.19,-28.45 -39.42,-47.91 -20.23,-19.48 -33.67,-36.07 -40.33,-49.79l-1.81 -3.74c-5.52,-5.03 -10.43,-9.59 -14.72,-13.67 -4.29,-4.09 -8.25,-9.87 -11.88,-17.35l-5.61 2.72c1.21,2.5 2.9,3.6 5.08,3.32 2.17,-0.28 3.86,0.82 5.07,3.32 3.03,6.24 3.91,9.65 2.66,10.26 -2.49,1.2 -1.93,5.55 1.71,13.03l-26.77 -17.06 -5.44 -11.22 -1.81 -3.75 -2.73 -5.62c-6.12,-6.27 -11.82,-10.06 -17.08,-11.37 -5.25,-1.3 -10.3,-6.94 -15.14,-16.92l-9.35 4.53 -21.78 -44.9 -1.82 -3.75c-3.02,-6.24 -6.85,-10.16 -11.48,-11.77 -4.64,-1.61 -8.76,-6.15 -12.39,-13.64 -9.98,4.84 -14.06,9.13 -12.24,12.87 1.81,3.74 0.81,9.62 -3.01,17.64l16.62 10.43z"/>
   <path class="fil3" d="M2320.67 1789.5c-4.31,7.12 -5.24,14.66 -2.78,22.64 2.46,7.97 3.08,15.65 1.86,23.01 0.43,9.99 2.95,17.19 7.58,21.61 4.62,4.42 9.77,9.97 15.44,16.66 -1.23,7.37 -1.37,12.95 -0.43,16.76 0.94,3.81 3.05,8.33 6.36,13.57 2.38,1.44 3.72,5.9 4.05,13.4 0.32,7.49 2.6,15.76 6.84,24.81 0.93,3.81 0.32,7.5 -1.83,11.05 -2.16,3.56 -0.65,11.77 4.52,24.63 4.24,9.05 9.67,18.83 16.28,29.32l3.56 2.15 91.84 41.07 21.72 8.31c9.49,5.75 18.62,10.07 27.41,12.97 8.79,2.89 17.91,7.21 27.4,12.96l44.52 14.82 1.4 5.72 25.28 10.45c3.81,-0.93 5.6,-1.87 5.36,-2.82 -0.23,-0.95 2.62,0.37 8.54,3.96l45.92 20.53 3.56 2.15 50.18 25.55 26.35 8.68c5.93,3.59 9.14,4.32 9.62,2.19 0.49,-2.14 3.1,-1.77 7.84,1.1l41.29 20.16 3.56 2.15c5.93,3.59 9.14,4.32 9.62,2.19 0.48,-2.14 3.1,-1.77 7.83,1.1l14.23 8.63c5.93,3.59 12.28,5.82 19.06,6.68 6.78,0.86 12.78,-0.36 18.03,-3.66l31.69 11.91 -6.74 -8.95c5.72,-1.4 9.76,-1.39 12.13,0.05 7.12,4.31 13.35,6.07 18.71,5.25 5.35,-0.81 10.4,0.23 15.14,3.1l28.46 17.25 6.47 -10.67 14.22 8.62 14.23 8.63 2.15 -3.56 -80.03 -48.51 -8.9 -5.39 -10.67 -6.47 -8.89 -5.38 3.24 -5.34 -19.57 -11.86c-4.74,-2.87 -6.64,-4.43 -5.69,-4.66 0.95,-0.24 0.96,-2.25 0.03,-6.07l5.33 3.24 5.4 -8.89c7.12,4.31 12.22,6.59 15.31,6.84 3.08,0.25 8.18,2.54 15.3,6.84l23.12 14.02c7.11,4.31 12.39,6.3 15.84,5.95 3.45,-0.34 8.73,1.64 15.84,5.96l8.89 5.38 35.9 29.05 -7.55 12.46 14.23 8.63c13.05,7.9 21.1,16.03 24.15,24.36 3.05,8.34 9.32,15.37 18.81,21.13l3.56 2.15 -1.13 13.9 -5.39 8.89 8.57 -2.1c0.46,1.9 0.63,3.63 0.51,5.18 -0.13,1.55 0.05,3.27 0.51,5.17l1.4 5.72c7.11,4.31 14.12,6.12 21.02,5.44 6.9,-0.69 14.03,-0.41 21.4,0.81l3.56 2.16c9.48,5.75 19.94,7.22 31.36,4.42l0.33 7.49 58.75 23.45c4.74,2.88 7.58,4.2 8.53,3.97 0.95,-0.24 3.23,-3.32 6.82,-9.24 2.88,-4.75 3.78,-8.25 2.73,-10.51 -1.06,-2.27 -1.34,-6.49 -0.84,-12.67 -5.93,-3.59 -9.01,-5.87 -9.24,-6.82 -0.24,-0.95 -0.1,-4.51 0.4,-10.7l1.13 -13.9c7.19,-11.85 11.79,-30.15 13.8,-54.86 2.02,-24.73 0.43,-43.52 -4.74,-56.39l5.39 -8.88c-2.58,-6.43 -4.8,-15.48 -6.65,-27.14 -1.85,-11.66 -3.23,-23.43 -4.13,-35.33 -0.9,-11.9 -2.82,-22.78 -5.74,-32.67 -2.92,-9.88 -6.76,-16.25 -11.5,-19.13l-28.46 -17.24 -5.34 -3.24c-1.43,2.37 -4.47,3.37 -9.11,2.99 -4.64,-0.38 -8.14,-1.29 -10.51,-2.73 -5.93,-3.59 -11.75,-4.69 -17.47,-3.28 -5.71,1.4 -9.75,1.38 -12.12,-0.06l-32.01 -19.4c-9.49,-5.76 -16.96,-9.47 -22.42,-11.16 -5.46,-1.69 -11.75,-4.69 -18.86,-9l-3.56 -2.15c-5.92,-3.59 -13.77,-4.71 -23.53,-3.32 -9.75,1.39 -20.09,0.39 -31.02,-2.99l-133.12 -61.24 -51.58 -31.26 -65.48 -32.4c-7.12,-4.31 -12.22,-6.59 -15.31,-6.84 -3.09,-0.25 -7.6,-2.18 -13.53,-5.76l-2.91 12.82c-2.37,-1.44 -4.21,-1.74 -5.52,-0.91 -1.32,0.82 -3.16,0.52 -5.53,-0.92l-14.23 -8.62 -60.15 -29.17 -5.34 -3.24c-3.81,0.94 -8.03,1.22 -12.67,0.84 -4.63,-0.37 -8.13,-1.29 -10.51,-2.72l-5.34 -3.24c-11.85,-7.19 -31.57,-13.46 -59.13,-18.81 -27.56,-5.35 -47.86,-11.98 -60.9,-19.89l-3.56 -2.15c-7.37,-1.23 -13.96,-2.38 -19.79,-3.48 -5.82,-1.1 -12.28,-3.81 -19.4,-8.12l-3.23 5.34c2.37,1.44 4.39,1.45 6.06,0.02 1.67,-1.42 3.69,-1.41 6.06,0.03 5.93,3.59 8.53,5.98 7.81,7.16 -1.43,2.38 1.41,5.72 8.52,10.03l-31.74 0.21 -10.67 -6.46 -3.56 -2.15 -5.34 -3.24c-8.56,-1.93 -15.39,-2.03 -20.51,-0.26 -5.12,1.76 -12.43,-0.24 -21.91,-5.98l-5.38 8.89 -42.69 -25.88 -3.56 -2.15c-5.93,-3.59 -11.28,-4.8 -16.04,-3.64 -4.76,1.16 -10.7,-0.4 -17.81,-4.71 -5.75,9.48 -6.84,15.3 -3.29,17.46 3.56,2.15 5.91,7.64 7.06,16.45l19.62 -0.27z"/>
  </g>
  <rect class="fil4" x="0" y="-0" width="9467.49" height="5895.77" rx="1154.57" ry="1200.99"/>
 </g>
</svg>
