<?xml version="1.0" encoding="UTF-8"?>
<!DOCTYPE svg PUBLIC "-//W3C//DTD SVG 1.1//EN" "http://www.w3.org/Graphics/SVG/1.1/DTD/svg11.dtd">
<!-- Creator: CorelDRAW 2020 (64 Bit) -->
<svg xmlns="http://www.w3.org/2000/svg" xml:space="preserve" width="145.095mm" height="90.3563mm" version="1.1" style="shape-rendering:geometricPrecision; text-rendering:geometricPrecision; image-rendering:optimizeQuality; fill-rule:evenodd; clip-rule:evenodd"
viewBox="0 0 13093.27 8153.68"
 xmlns:xlink="http://www.w3.org/1999/xlink"
 xmlns:xodm="http://www.corel.com/coreldraw/odm/2003">
 <defs>
  <style type="text/css">
   <![CDATA[
    .fil0 {fill:none}
    .fil2 {fill:#FEFEFE}
    .fil1 {fill:#FEFEFE;fill-rule:nonzero}
   ]]>
  </style>
 </defs>
 <g id="Camada_x0020_1">
  <metadata id="CorelCorpID_0Corel-Layer"/>
  <rect class="fil0" x="0" y="-0.01" width="13093.27" height="8153.68" rx="1596.74" ry="1660.94"/>
  <path class="fil1" d="M2307.71 7254.88c0,19.75 -14.9,41.21 -44.51,64.41 -56.27,43.74 -119.43,65.68 -189.18,65.68 -84.49,0 -156.44,-29.77 -215.83,-89.18 -59.4,-59.4 -89.19,-131.35 -89.19,-215.83 0,-84.33 29.79,-156.28 89.19,-215.67 59.4,-59.4 131.34,-89.19 215.83,-89.19 69.75,0 132.9,21.96 189.18,65.68 29.62,23.2 44.51,44.68 44.51,64.26 0,15.85 -6.12,29.79 -18.03,41.85 -12.06,12.07 -26.02,18.03 -41.85,18.03 -13.17,0 -26.79,-5.96 -40.91,-17.87 -3.13,-3.13 -9.24,-8.46 -18.34,-15.99 -33.06,-26.02 -71.32,-39.03 -114.57,-39.03 -52.19,0 -96.56,18.34 -133.08,55.02 -36.67,36.52 -55.02,80.88 -55.02,132.91 0,52.19 18.35,96.56 55.02,133.07 36.52,36.68 80.88,55.02 133.08,55.02 43.1,0 81.34,-13.01 114.57,-39.04 3.45,-3.12 9.56,-8.46 18.34,-16.13 14.11,-11.92 27.74,-17.88 40.91,-17.88 15.83,0 29.79,6.11 41.85,18.17 11.91,12.08 18.03,26.02 18.03,41.7zm460.97 -11.91c0,8.92 -2.98,19.12 -8.77,30.56 -17.41,33.86 -44.36,60.97 -81.21,81.5 -35.27,19.9 -72.57,29.93 -111.74,29.93 -61.77,0 -114.42,-21.63 -157.68,-65.04 -43.41,-43.28 -65.05,-95.93 -65.05,-157.85 0,-61.75 21.64,-114.42 65.05,-157.67 43.26,-43.42 95.92,-65.04 157.68,-65.04 30.26,0 60.5,6.89 91.06,20.68 30.4,13.64 55.8,31.97 76.32,54.55 22.26,24.61 33.56,47.81 33.56,69.43 0,19.92 -9.72,35.58 -29.16,46.71l-218.81 126.02c14.89,7.52 30.55,11.29 47.02,11.29 25.38,0 46.38,-7.22 63.16,-21.48 11.44,-13.01 22.88,-25.85 34.02,-38.71 15.35,-15.05 29.77,-22.72 43.41,-22.72 15.83,0 30.09,5.79 42.48,17.08 12.38,11.29 18.65,24.92 18.65,40.75zm-154.07 -175.7c-14.89,-7.37 -30.72,-10.96 -47.48,-10.96 -28.06,0 -52.19,9.56 -72.73,28.67 -20.38,19.12 -31.35,42.8 -32.76,70.85l152.97 -88.55zm563.16 259.24c0,17.09 -5.48,31.04 -16.45,42.02 -10.98,10.96 -24.92,16.45 -42.02,16.45 -17.07,0 -31.03,-5.49 -42,-16.45 -10.97,-10.97 -16.47,-24.92 -16.47,-42.02l0 -219.11c0,-14.1 -5.01,-26.19 -14.89,-36.05 -10.02,-10.03 -22.1,-15.04 -36.2,-15.04 -14.1,0 -26.17,5.01 -36.2,15.04 -9.87,9.86 -14.89,21.95 -14.89,36.05l0 219.11c0,17.09 -5.49,31.04 -16.45,42.02 -10.97,10.96 -24.92,16.45 -42.02,16.45 -17.08,0 -31.03,-5.49 -42,-16.45 -10.97,-10.97 -16.46,-24.92 -16.46,-42.02l0 -328.67c0,-17.09 5.49,-31.03 16.46,-42.02 10.96,-10.97 24.92,-16.45 42,-16.45 16.31,0 29.78,5.01 40.6,15.04 21.79,-10.03 44.83,-15.04 68.96,-15.04 46.56,0 86.21,16.3 118.97,48.89 32.76,32.61 49.05,72.26 49.05,118.81l0 219.43zm388.09 -25.55c0,28.22 -11.92,49.99 -35.74,65.04 -19.9,12.7 -44.98,18.97 -74.92,18.97 -38.87,0 -72.1,-13.64 -99.53,-41.07 -27.42,-27.43 -41.06,-60.65 -41.06,-99.52l0 -188.08 -23.68 0c-17.07,0 -31.03,-5.49 -42,-16.47 -10.97,-10.96 -16.46,-24.92 -16.46,-42 0,-17.09 5.49,-31.03 16.46,-42.02 10.96,-10.97 24.92,-16.45 42,-16.45l23.68 0 0 -105.81c0,-17.07 5.48,-31.03 16.45,-42 10.98,-10.98 24.92,-16.47 42.02,-16.47 17.07,0 31.02,5.49 42,16.47 10.98,10.96 16.45,24.92 16.45,42l0 105.81 23.68 0c17.08,0 31.04,5.48 42.01,16.45 10.97,10.98 16.46,24.92 16.46,42.02 0,17.07 -5.49,31.03 -16.46,42 -10.96,10.98 -24.92,16.47 -42.01,16.47l-23.68 0 0 188.08c0,15.83 7.85,23.67 23.68,23.67 4.39,0 13.33,-4.85 26.49,-14.74 13.32,-9.87 25.07,-14.74 35.27,-14.74 15.04,0 27.27,6.9 36.52,20.69 8.3,12.23 12.38,26.19 12.38,41.69zm344.34 -260.34c0,15.83 -6.25,29.31 -18.63,40.59 -12.39,11.44 -26.65,17.09 -42.64,17.09 -14.58,0 -28.69,-7.06 -42.02,-21 -13.32,-13.95 -22.56,-21 -27.42,-21 -15.84,0 -23.67,7.83 -23.67,23.66l0 246.54c0,17.09 -5.49,31.04 -16.45,42.02 -10.97,10.96 -24.92,16.45 -42.02,16.45 -17.08,0 -31.03,-5.49 -42,-16.45 -10.97,-10.97 -16.46,-24.92 -16.46,-42.02l0 -328.67c0,-17.09 5.49,-31.03 16.46,-42.02 10.96,-10.97 24.92,-16.45 42,-16.45 12.39,0 23.36,3.13 32.77,9.24 15.83,-6.11 32.29,-9.24 49.37,-9.24 24.76,0 48.28,6.42 70.54,19.12 22.1,12.86 39.17,29.93 51.09,51.41 6.11,10.97 9.08,21.16 9.08,30.72zm482.14 121.47c0,62.23 -21.63,114.89 -64.89,157.99 -43.1,43.26 -95.77,64.89 -157.83,64.89 -62.23,0 -114.9,-21.63 -158,-64.89 -43.26,-43.1 -64.89,-95.76 -64.89,-157.99 0,-62.07 21.63,-114.72 64.89,-157.84 43.1,-43.26 95.77,-64.88 158,-64.88 62.06,0 114.73,21.62 157.83,64.88 43.26,43.12 64.89,95.77 64.89,157.84zm-116.92 0c0,-29.31 -10.34,-54.39 -30.88,-74.92 -20.54,-20.53 -45.62,-30.87 -74.92,-30.87 -29.47,0 -54.55,10.34 -75.09,30.87 -20.52,20.53 -30.88,45.61 -30.88,74.92 0,29.47 10.36,54.54 30.88,75.08 20.54,20.54 45.62,30.88 75.09,30.88 29.3,0 54.38,-10.34 74.92,-30.88 20.54,-20.54 30.88,-45.61 30.88,-75.08zm803.76 164.42c0,17.09 -5.5,31.04 -16.47,42.02 -10.96,10.96 -24.92,16.45 -42,16.45 -24.62,0 -42.02,-10.03 -52.19,-30.25 -34.64,20.21 -71.95,30.25 -112.08,30.25 -61.91,0 -114.57,-21.63 -157.83,-65.04 -43.41,-43.28 -65.05,-95.93 -65.05,-157.85 0,-61.75 21.64,-114.42 65.05,-157.67 43.26,-43.42 95.92,-65.04 157.68,-65.04 37.77,0 73.03,8.93 105.95,26.65l0 -132.45c0,-17.07 5.49,-31.03 16.45,-42 10.98,-10.98 24.92,-16.47 42.02,-16.47 17.07,0 31.03,5.49 42,16.47 10.97,10.96 16.47,24.92 16.47,42l0 492.94zm-116.93 -164.42c0,-29.31 -10.35,-54.39 -30.88,-74.92 -20.53,-20.53 -45.62,-30.87 -74.93,-30.87 -29.46,0 -54.54,10.34 -75.08,30.87 -20.53,20.53 -30.87,45.61 -30.87,74.92 0,29.47 10.34,54.54 30.87,75.08 20.54,20.54 45.62,30.88 75.08,30.88 29.31,0 54.4,-10.34 74.93,-30.88 20.53,-20.54 30.88,-45.61 30.88,-75.08zm614.26 80.88c0,8.92 -2.98,19.12 -8.77,30.56 -17.41,33.86 -44.36,60.97 -81.21,81.5 -35.26,19.9 -72.57,29.93 -111.74,29.93 -61.76,0 -114.42,-21.63 -157.68,-65.04 -43.41,-43.28 -65.05,-95.93 -65.05,-157.85 0,-61.75 21.64,-114.42 65.05,-157.67 43.26,-43.42 95.92,-65.04 157.68,-65.04 30.26,0 60.5,6.89 91.07,20.68 30.39,13.64 55.79,31.97 76.32,54.55 22.26,24.61 33.56,47.81 33.56,69.43 0,19.92 -9.72,35.58 -29.16,46.71l-218.81 126.02c14.89,7.52 30.56,11.29 47.02,11.29 25.39,0 46.39,-7.22 63.16,-21.48 11.44,-13.01 22.88,-25.85 34.02,-38.71 15.35,-15.05 29.78,-22.72 43.41,-22.72 15.83,0 30.09,5.79 42.48,17.08 12.38,11.29 18.65,24.92 18.65,40.75zm-154.07 -175.7c-14.89,-7.37 -30.72,-10.96 -47.48,-10.96 -28.06,0 -52.19,9.56 -72.73,28.67 -20.38,19.12 -31.35,42.8 -32.76,70.85l152.97 -88.55zm822.4 -233.7c0,17.09 -5.48,31.03 -16.45,42.02 -10.98,10.96 -24.92,16.45 -42.01,16.45l-215.36 0 0 129.63 160.64 0c17.09,0 31.04,5.48 42.02,16.45 10.97,10.98 16.45,24.92 16.45,42.02 0,17.07 -5.48,31.03 -16.45,42 -10.97,10.97 -24.92,16.47 -42.02,16.47l-160.64 0 0 129.77 215.36 0c17.08,0 31.02,5.49 42.01,16.45 10.97,10.97 16.45,24.92 16.45,42.02 0,17.07 -5.48,31.03 -16.61,42 -10.96,10.97 -25.07,16.47 -42.16,16.47l-273.51 -0.32c-15.67,0 -29.32,-5.95 -40.91,-17.55 -11.75,-11.76 -17.55,-25.38 -17.55,-40.91l0 -492.94c0,-15.67 5.8,-29.31 17.55,-40.9 11.6,-11.76 25.24,-17.57 40.91,-17.57l273.82 0c17.08,0 31.02,5.49 42.01,16.47 10.97,10.96 16.45,24.92 16.45,42zm482.3 492.94c0,17.09 -5.5,31.04 -16.47,42.02 -10.96,10.96 -24.92,16.45 -42,16.45 -24.62,0 -42.02,-10.03 -52.19,-30.25 -34.64,20.21 -71.95,30.25 -112.08,30.25 -61.91,0 -114.57,-21.63 -157.83,-65.04 -43.41,-43.28 -65.05,-95.93 -65.05,-157.85 0,-61.75 21.64,-114.42 65.05,-157.67 43.26,-43.42 95.92,-65.04 157.68,-65.04 37.77,0 73.03,8.93 105.95,26.65l0 -132.45c0,-17.07 5.49,-31.03 16.45,-42 10.98,-10.98 24.92,-16.47 42.02,-16.47 17.07,0 31.03,5.49 42,16.47 10.97,10.96 16.47,24.92 16.47,42l0 492.94zm-116.93 -164.42c0,-29.31 -10.35,-54.39 -30.88,-74.92 -20.53,-20.53 -45.62,-30.87 -74.93,-30.87 -29.46,0 -54.54,10.34 -75.08,30.87 -20.53,20.53 -30.87,45.61 -30.87,74.92 0,29.47 10.34,54.54 30.87,75.08 20.54,20.54 45.62,30.88 75.08,30.88 29.31,0 54.4,-10.34 74.93,-30.88 20.53,-20.54 30.88,-45.61 30.88,-75.08zm544.2 -164.25l0 219.43c0,46.55 -16.31,86.2 -49.06,118.8 -32.76,32.59 -72.42,48.9 -118.96,48.9 -46.55,0 -86.21,-16.31 -118.97,-48.9 -32.76,-32.6 -49.04,-72.25 -49.04,-118.8l0 -219.43c0,-17.09 5.49,-31.03 16.45,-42.02 10.97,-10.97 24.92,-16.45 42.01,-16.45 17.08,0 31.04,5.48 42.01,16.45 10.97,10.98 16.46,24.92 16.46,42.02l0 219.12c0,14.1 5.02,26.17 14.89,36.04 10.03,10.03 22.1,15.05 36.2,15.05 14.1,0 26.17,-5.02 36.2,-15.05 9.88,-9.87 14.89,-21.94 14.89,-36.04l0 -219.12c0,-17.09 5.5,-31.03 16.45,-42.02 10.98,-10.97 24.92,-16.45 42.02,-16.45 17.09,0 31.03,5.48 42,16.45 10.98,10.98 16.47,24.92 16.47,42.02zm453.14 47.48c0,15.83 -5.96,29.78 -18.03,42 -12.06,12.24 -26.02,18.19 -41.84,18.19 -8.93,0 -25.24,-8.15 -48.91,-24.61 -23.66,-16.46 -45.92,-24.6 -66.76,-24.6 -29.47,0 -54.55,10.34 -75.09,30.87 -20.52,20.53 -30.88,45.61 -30.88,74.92 0,29.47 10.36,54.54 30.88,75.08 20.54,20.54 45.62,30.88 75.09,30.88 20.68,0 42.78,-8.16 66.44,-24.45 23.52,-16.32 39.81,-24.46 48.91,-24.46 15.83,0 29.77,6.13 41.69,18.03 12.06,12.06 18.17,26.02 18.17,41.85 0,13.48 -6.11,27.11 -18.33,40.91 -18.02,20.21 -41.85,36.35 -71.47,48.27 -28.37,11.12 -56.74,16.77 -85.58,16.77 -61.76,0 -114.42,-21.63 -157.67,-65.04 -43.42,-43.28 -65.05,-95.93 -65.05,-157.85 0,-61.75 21.63,-114.42 65.05,-157.67 43.25,-43.42 95.92,-65.04 157.67,-65.04 28.37,0 56.74,5.79 85.58,17.24 30.09,11.92 54.07,27.75 71.94,47.81 12.06,13.8 18.18,27.42 18.18,40.91zm372.71 281.19c0,17.09 -5.48,31.04 -16.46,42.02 -10.97,10.96 -24.92,16.45 -42,16.45 -15.99,0 -29.63,-4.86 -40.61,-14.58 -18.65,9.72 -41.68,14.58 -68.96,14.58 -47.17,0 -86.52,-12.84 -117.55,-38.71 -33.7,-27.74 -50.47,-64.73 -50.47,-111.13 0,-46.23 16.78,-83.23 50.47,-110.97 31.03,-25.86 70.22,-38.71 117.55,-38.71 18.97,0 36.06,2.51 51.1,7.36l0 -3.61c0,-14.27 -5.02,-26.33 -15.04,-36.2 -9.88,-10.03 -21.96,-15.05 -36.06,-15.05 -10.18,0 -23.66,6.12 -40.12,18.19 -16.62,12.06 -31.19,18.02 -43.58,18.02 -13.79,0 -26.02,-4.39 -36.52,-13.17 -11.13,-9.24 -16.78,-20.54 -16.78,-34.01 0,-12.53 6.12,-25.39 18.34,-38.24 30.89,-32.92 70.39,-49.37 118.66,-49.37 46.55,0 86.21,16.3 118.97,49.05 32.76,32.76 49.05,72.41 49.05,118.97l0 219.11zm-116.92 -91.38c0,-14.1 -5.02,-26.17 -14.9,-36.05 -10.03,-10.03 -22.1,-15.04 -36.2,-15.04 -14.1,0 -26.17,5.01 -36.2,15.04 -9.88,9.88 -14.89,21.95 -14.89,36.05 0,14.27 5.01,26.34 14.89,36.2 10.03,10.03 22.1,15.04 36.2,15.04 14.1,0 26.18,-5.01 36.2,-15.04 9.88,-9.86 14.9,-21.94 14.9,-36.2zm569.9 -189.81c0,15.83 -5.96,29.78 -18.03,42 -12.06,12.24 -26.02,18.19 -41.84,18.19 -8.93,0 -25.24,-8.15 -48.91,-24.61 -23.66,-16.46 -45.92,-24.6 -66.76,-24.6 -29.47,0 -54.55,10.34 -75.09,30.87 -20.52,20.53 -30.88,45.61 -30.88,74.92 0,29.47 10.36,54.54 30.88,75.08 20.54,20.54 45.62,30.88 75.09,30.88 20.68,0 42.78,-8.16 66.44,-24.45 23.52,-16.32 39.81,-24.46 48.91,-24.46 15.83,0 29.77,6.13 41.69,18.19 12.06,11.9 18.17,25.86 18.17,41.69 0,22.72 -16.45,45.14 -49.37,67.24 9.72,19.74 14.58,40.6 14.58,62.54 0,38.88 -13.64,72.11 -41.07,99.53 -27.43,27.43 -60.5,41.06 -99.52,41.06 -24.6,0 -48.12,-6.27 -70.54,-18.96 -23.34,-13.01 -40.44,-30.09 -51.4,-51.56 -5.8,-11.14 -8.79,-21.48 -8.79,-30.72 0,-29.95 20.38,-45 61.29,-45 14.42,0 28.37,5.03 41.85,14.75 13.48,9.72 22.72,14.57 27.59,14.57 15.83,0 23.67,-8 23.67,-23.82 0,-15.84 -8,-23.67 -24.15,-23.67 -61.75,0 -114.26,-21.63 -157.52,-65.04 -43.1,-43.28 -64.73,-95.93 -64.73,-157.85 0,-61.75 21.63,-114.42 65.05,-157.67 43.25,-43.42 95.92,-65.04 157.67,-65.04 28.52,0 57.05,5.79 85.58,17.24 29.93,11.92 53.91,27.75 71.94,47.81 12.06,13.64 18.18,27.27 18.18,40.91zm391.52 -186.67c0,26.64 -12.84,48.42 -38.39,65.35 -22.58,15.21 -47.81,22.72 -75.56,22.72 -20.69,0 -40.59,-5.79 -59.57,-17.23 -2.35,-1.72 -19.11,-14.27 -49.99,-37.63l-4.7 -0.31c-10.5,18.81 -26.65,28.06 -48.27,28.06 -16.31,0 -30.57,-5.33 -42.8,-15.99 -12.06,-10.66 -18.17,-24.28 -18.17,-40.59 0,-26.49 12.69,-48.27 38.4,-65.36 22.58,-15.04 47.8,-22.58 75.55,-22.58 24.61,0 44.67,5.65 60.19,17.09 10.82,8.31 26.95,20.69 48.58,36.99l6.27 0c10.5,-18.02 26.33,-27.12 47.49,-27.12 16.31,0 30.57,5.33 42.63,16.15 12.23,10.66 18.34,24.13 18.34,40.44zm-18.96 467.85c0,17.09 -5.49,31.04 -16.46,42.02 -10.96,10.96 -24.92,16.45 -42,16.45 -15.99,0 -29.63,-4.86 -40.6,-14.58 -18.65,9.72 -41.69,14.58 -68.96,14.58 -47.02,0 -86.21,-12.84 -117.56,-38.71 -33.7,-27.74 -50.47,-64.73 -50.47,-111.13 0,-46.23 16.77,-83.23 50.47,-110.97 31.35,-25.86 70.54,-38.71 117.56,-38.71 18.96,0 36.04,2.51 51.09,7.36l0 -3.61c0,-13.94 -5.03,-26.01 -15.21,-36.04 -10.03,-10.19 -22.1,-15.21 -35.89,-15.21 -10.03,0 -23.36,6.12 -39.98,18.19 -16.77,12.06 -31.35,18.02 -43.73,18.02 -13.79,0 -26.02,-4.39 -36.53,-13.17 -11.12,-9.24 -16.77,-20.54 -16.77,-34.01 0,-12.38 6.11,-25.08 18.35,-38.24 30.4,-32.92 69.91,-49.37 118.66,-49.37 46.55,0 86.2,16.3 118.95,49.05 32.76,32.76 49.06,72.41 49.06,118.97l0 219.11zm-116.92 -91.38c0,-13.79 -5.03,-25.85 -15.21,-35.89 -10.03,-10.2 -22.1,-15.21 -35.89,-15.21 -13.81,0 -25.87,5.01 -35.91,15.21 -10.18,10.03 -15.21,22.1 -15.21,35.89 0,13.96 5.03,26.02 15.21,36.06 10.03,10.18 22.1,15.19 35.91,15.19 13.79,0 25.85,-5.01 35.89,-15.19 10.18,-10.03 15.21,-22.1 15.21,-36.06zm617.23 -73.04c0,62.23 -21.63,114.89 -64.89,157.99 -43.1,43.26 -95.77,64.89 -157.83,64.89 -62.23,0 -114.9,-21.63 -158,-64.89 -43.26,-43.1 -64.89,-95.76 -64.89,-157.99 0,-62.07 21.63,-114.72 64.89,-157.84 43.1,-43.26 95.77,-64.88 158,-64.88 62.06,0 114.73,21.62 157.83,64.88 43.26,43.12 64.89,95.77 64.89,157.84zm-116.92 0c0,-29.31 -10.34,-54.39 -30.88,-74.92 -20.54,-20.53 -45.62,-30.87 -74.92,-30.87 -29.47,0 -54.55,10.34 -75.09,30.87 -20.52,20.53 -30.88,45.61 -30.88,74.92 0,29.47 10.36,54.54 30.88,75.08 20.54,20.54 45.62,30.88 75.09,30.88 29.3,0 54.38,-10.34 74.92,-30.88 20.54,-20.54 30.88,-45.61 30.88,-75.08zm511.43 164.42c0,17.09 -5.49,31.04 -16.45,42.02 -10.97,10.96 -24.92,16.45 -42.01,16.45 -17.09,0 -31.04,-5.49 -42.01,-16.45 -10.97,-10.97 -16.46,-24.92 -16.46,-42.02l0 -492.94c0,-17.07 5.49,-31.03 16.46,-42 10.96,-10.98 24.92,-16.47 42.01,-16.47 17.08,0 31.03,5.49 42.01,16.47 10.96,10.96 16.45,24.92 16.45,42l0 492.94zm445.61 0c0,17.09 -5.48,31.04 -16.46,42.02 -10.97,10.96 -24.92,16.45 -42.01,16.45 -17.07,0 -31.03,-5.49 -42,-16.45 -10.98,-10.97 -16.47,-24.92 -16.47,-42.02l0 -219.11c0,-14.1 -5.01,-26.19 -14.89,-36.05 -10.03,-10.03 -22.1,-15.04 -36.2,-15.04 -14.1,0 -26.17,5.01 -36.2,15.04 -9.88,9.86 -14.89,21.95 -14.89,36.05l0 219.11c0,17.09 -5.49,31.04 -16.45,42.02 -10.98,10.96 -24.92,16.45 -42.02,16.45 -17.09,0 -31.03,-5.49 -42,-16.45 -10.98,-10.97 -16.47,-24.92 -16.47,-42.02l0 -328.67c0,-17.09 5.49,-31.03 16.47,-42.02 10.96,-10.97 24.91,-16.45 42,-16.45 16.31,0 29.78,5.01 40.6,15.04 21.79,-10.03 44.83,-15.04 68.96,-15.04 46.56,0 86.21,16.3 118.97,48.89 32.76,32.61 49.05,72.26 49.05,118.81l0 219.43zm388.09 -467.39c0,15.52 -4.09,29.47 -12.38,41.54 -9.26,13.96 -21.48,20.85 -36.53,20.85 -10.2,0 -21.94,-4.87 -35.27,-14.74 -13.17,-9.87 -22.1,-14.74 -26.49,-14.74 -15.83,0 -23.68,11.6 -23.68,34.64l0 12.7 23.68 0c17.07,0 31.03,5.48 42,16.45 10.98,10.98 16.47,24.92 16.47,42.02 0,17.07 -5.49,31.03 -16.47,42 -10.96,10.98 -24.92,16.47 -42,16.47l-23.68 0 0 270.2c0,17.09 -5.48,31.04 -16.45,42.02 -10.97,10.96 -24.92,16.45 -42,16.45 -17.09,0 -31.03,-5.49 -42.02,-16.45 -10.97,-10.97 -16.45,-24.92 -16.45,-42.02l0 -270.2 -23.68 0c-17.07,0 -31.03,-5.49 -42,-16.47 -10.98,-10.96 -16.47,-24.92 -16.47,-42 0,-17.09 5.49,-31.03 16.47,-42.02 10.96,-10.97 24.92,-16.45 42,-16.45l23.68 0 0 -23.68c0,-39.01 13.63,-72.09 41.06,-99.52 27.42,-27.42 60.67,-41.07 99.53,-41.07 29.93,0 55.02,6.27 74.92,18.97 23.82,15.05 35.74,36.84 35.74,65.04zm354.52 467.39c0,17.09 -5.48,31.04 -16.45,42.02 -10.98,10.96 -24.92,16.45 -42,16.45 -15.99,0 -29.63,-4.86 -40.61,-14.58 -18.65,9.72 -41.68,14.58 -68.97,14.58 -47.17,0 -86.51,-12.84 -117.55,-38.71 -33.7,-27.74 -50.47,-64.73 -50.47,-111.13 0,-46.23 16.77,-83.23 50.47,-110.97 31.03,-25.86 70.22,-38.71 117.55,-38.71 18.98,0 36.06,2.51 51.11,7.36l0 -3.61c0,-14.27 -5.03,-26.33 -15.05,-36.2 -9.87,-10.03 -21.95,-15.05 -36.06,-15.05 -10.18,0 -23.66,6.12 -40.11,18.19 -16.62,12.06 -31.2,18.02 -43.58,18.02 -13.79,0 -26.02,-4.39 -36.53,-13.17 -11.12,-9.24 -16.77,-20.54 -16.77,-34.01 0,-12.53 6.11,-25.39 18.34,-38.24 30.89,-32.92 70.38,-49.37 118.65,-49.37 46.56,0 86.21,16.3 118.97,49.05 32.77,32.76 49.05,72.41 49.05,118.97l0 219.11zm-116.91 -91.38c0,-14.1 -5.03,-26.17 -14.9,-36.05 -10.03,-10.03 -22.1,-15.04 -36.21,-15.04 -14.1,0 -26.17,5.01 -36.2,15.04 -9.87,9.88 -14.89,21.95 -14.89,36.05 0,14.27 5.02,26.34 14.89,36.2 10.03,10.03 22.1,15.04 36.2,15.04 14.11,0 26.19,-5.01 36.21,-15.04 9.87,-9.86 14.9,-21.94 14.9,-36.2zm544.02 91.38c0,17.09 -5.48,31.04 -16.45,42.02 -10.98,10.96 -24.92,16.45 -42.02,16.45 -17.07,0 -31.03,-5.49 -42,-16.45 -10.98,-10.97 -16.47,-24.92 -16.47,-42.02l0 -219.11c0,-14.1 -5.01,-26.19 -14.89,-36.05 -10.02,-10.03 -22.1,-15.04 -36.2,-15.04 -14.1,0 -26.17,5.01 -36.2,15.04 -9.87,9.86 -14.89,21.95 -14.89,36.05l0 219.11c0,17.09 -5.49,31.04 -16.45,42.02 -10.97,10.96 -24.92,16.45 -42.02,16.45 -17.08,0 -31.03,-5.49 -42,-16.45 -10.97,-10.97 -16.46,-24.92 -16.46,-42.02l0 -328.67c0,-17.09 5.49,-31.03 16.46,-42.02 10.96,-10.97 24.92,-16.45 42,-16.45 16.31,0 29.78,5.01 40.6,15.04 21.79,-10.03 44.83,-15.04 68.96,-15.04 46.56,0 86.21,16.3 118.97,48.89 32.76,32.61 49.05,72.26 49.05,118.81l0 219.43zm388.09 -25.55c0,28.22 -11.92,49.99 -35.74,65.04 -19.9,12.7 -44.98,18.97 -74.92,18.97 -38.87,0 -72.1,-13.64 -99.53,-41.07 -27.43,-27.43 -41.06,-60.65 -41.06,-99.52l0 -188.08 -23.68 0c-17.07,0 -31.03,-5.49 -42,-16.47 -10.97,-10.96 -16.47,-24.92 -16.47,-42 0,-17.09 5.5,-31.03 16.47,-42.02 10.96,-10.97 24.92,-16.45 42,-16.45l23.68 0 0 -105.81c0,-17.07 5.48,-31.03 16.45,-42 10.98,-10.98 24.92,-16.47 42.02,-16.47 17.07,0 31.02,5.49 42,16.47 10.98,10.96 16.45,24.92 16.45,42l0 105.81 23.68 0c17.07,0 31.03,5.48 42,16.45 10.98,10.98 16.47,24.92 16.47,42.02 0,17.07 -5.49,31.03 -16.47,42 -10.96,10.98 -24.92,16.47 -42,16.47l-23.68 0 0 188.08c0,15.83 7.85,23.67 23.68,23.67 4.39,0 13.33,-4.85 26.49,-14.74 13.32,-9.87 25.07,-14.74 35.26,-14.74 15.05,0 27.27,6.9 36.53,20.69 8.3,12.23 12.38,26.19 12.38,41.69zm204.23 -453.29c0,20.07 -7.06,37 -21.16,50.79 -14.1,13.95 -31.35,20.85 -51.41,20.85 -20.22,0 -37.47,-6.89 -51.57,-20.85 -14.1,-13.79 -21.16,-30.72 -21.16,-50.79 0,-20.06 7.06,-37.3 21.16,-51.41 14.1,-14.1 31.35,-21.16 51.57,-21.16 20.06,0 37.3,7.06 51.41,21.16 14.1,14.1 21.16,31.35 21.16,51.41zm-14.1 478.84c0,17.09 -5.5,31.04 -16.47,42.02 -10.96,10.96 -24.91,16.45 -42,16.45 -17.09,0 -31.03,-5.49 -42.02,-16.45 -10.96,-10.97 -16.45,-24.92 -16.45,-42.02l0 -328.67c0,-17.09 5.49,-31.03 16.45,-42.02 10.98,-10.97 24.92,-16.45 42.02,-16.45 17.09,0 31.03,5.48 42,16.45 10.97,10.98 16.47,24.92 16.47,42.02l0 328.67zm290.28 0c0,17.09 -5.5,31.04 -16.47,42.02 -10.96,10.96 -24.92,16.45 -42,16.45 -38.88,0 -72.11,-13.64 -99.53,-41.07 -27.43,-27.43 -41.06,-60.65 -41.06,-99.52l0 -410.81c0,-17.07 5.49,-31.03 16.45,-42 10.97,-10.98 24.92,-16.47 42.02,-16.47 17.07,0 31.03,5.49 42,16.47 10.97,10.96 16.46,24.92 16.46,42l0 410.81c0,15.83 7.84,23.67 23.67,23.67 17.07,0 31.03,5.49 42,16.46 10.97,10.96 16.47,24.92 16.47,42z"/>
  <path class="fil2" d="M3034.65 4960c0,145.11 -49.49,270.56 -148.43,375.76 -247.68,11.14 -499.58,29.63 -754.23,54.74 -79.02,-62.43 -135.61,-139.71 -169.75,-232.29 -6.56,-17.71 -9.85,-34.13 -9.85,-49.22 0,-33.48 13.13,-62.36 38.72,-85.32 26.25,-22.97 55.79,-34.79 89.91,-34.79 38.72,0 74.17,24.28 106.98,72.85 50.54,76.79 82.04,121.42 94.51,133.89 49.88,48.57 115.52,72.85 198.21,72.85 84.66,0 156.86,-30.19 216.58,-90.57 59.72,-60.38 89.91,-133.23 89.91,-217.89 0,-187.71 -105.01,-290.09 -315.03,-308.47 -126.66,-9.84 -228.4,-51.84 -306.5,-125.35 -83.34,-78.1 -125.35,-179.83 -125.35,-305.19 0,-118.13 42.66,-219.86 127.33,-303.87 84.66,-84 186.39,-126.01 304.52,-126.01 171.96,0 295.34,70.88 371.48,213.3 12.47,24.28 18.37,45.29 18.37,64.97 0,33.48 -13.12,62.36 -38.72,85.98 -26.25,23.63 -56.44,36.1 -89.91,36.1 -34.13,0 -71.54,-26.25 -113.54,-77.44 -42.01,-51.85 -91.23,-77.44 -147.68,-77.44 -50.53,0 -93.85,18.38 -129.94,55.13 -36.1,36.75 -54.48,80.08 -54.48,129.29 0,110.92 64.32,172.61 192.96,185.08 164.07,15.76 295.34,70.22 394.44,162.77 106.32,99.1 159.48,229.7 159.48,391.16zm1789.12 59.07c0,19.69 -5.25,40.69 -16.41,64.97 -64.65,121.29 -160.49,220.63 -287.51,297.49 -319.12,-36.55 -653.86,-55.3 -999.91,-57.97 -23.44,-19.3 -46.27,-40.08 -68.53,-62.32 -168.68,-168.02 -253.34,-371.47 -253.34,-609.72 0,-236.92 84.66,-439.73 253.34,-607.74 168.68,-168.68 371.48,-252.68 609.06,-252.68 84.67,0 173.27,15.75 265.81,47.25 105.01,36.1 207.4,93.86 307.81,173.27 125.35,97.79 188.36,190.33 188.36,277.62 0,43.97 -20.34,77.45 -61.04,99.76l-1161.68 670.76c121.43,139.14 274.99,208.71 460.73,208.71 193.62,0 348.5,-70.88 464.02,-211.99 14.44,-21 38.06,-53.16 70.22,-95.82 32.16,-42.01 65.63,-63 100.42,-63 34.13,0 63.66,11.81 89.91,35.44 26.25,23.62 38.72,52.5 38.72,85.98zm-302.56 -773.8c-123.38,-139.14 -276.96,-208.71 -460.73,-208.71 -169.32,0 -314.37,60.38 -434.47,181.15 -120.11,121.42 -180.49,265.8 -180.49,434.47 0,67.61 9.85,133.23 30.19,196.24l1045.51 -603.16zm2845.78 1145.27c0,82.05 -41.35,123.38 -123.38,123.38 -81.39,0 -122.08,-41.34 -122.08,-123.38l0 -984.47c0,-101.73 -36.1,-189.01 -108.3,-261.21 -72.19,-72.2 -159.48,-108.3 -260.56,-108.3 -101.73,0 -189.01,36.1 -261.21,108.3 -72.2,72.19 -108.3,159.48 -108.3,261.21l0 984.47c0,82.05 -41.35,123.38 -123.39,123.38 -81.38,0 -122.07,-41.34 -122.07,-123.38l0 -984.47c0,-101.73 -36.1,-189.01 -108.95,-261.21 -72.85,-72.2 -159.48,-108.3 -259.9,-108.3 -101.73,0 -189.01,36.1 -261.22,108.3 -72.19,72.19 -108.29,159.48 -108.29,261.21l0 984.47c0,76.13 -35.63,117.23 -106.32,122.75 -33.64,-7.87 -67.5,-15.52 -101.65,-22.87 -26.32,-20.27 -39.47,-53.61 -39.47,-99.89l0 -1477.36c0,-81.39 41.35,-122.08 123.38,-122.08 82.7,0 124.05,40.69 124.05,122.08 108.29,-81.39 231.02,-122.08 368.84,-122.08 204.77,0 368.19,82.04 491.58,246.12 122.73,-164.08 286.82,-246.12 492.24,-246.12 169.33,0 314.38,60.38 434.48,180.49 120.11,120.1 180.49,265.15 180.49,434.47l0 984.47zm1872.46 -371.47c0,19.69 -5.25,40.69 -16.41,64.97 -54.68,102.6 -131.71,189.5 -231.04,260.37 -280.91,23.05 -559.82,59.57 -831.39,112.39 -107.29,-41.98 -205.09,-107.13 -293.51,-195.56 -168.68,-168.02 -253.35,-371.47 -253.35,-609.72 0,-236.92 84.67,-439.73 253.35,-607.74 168.67,-168.68 371.47,-252.68 609.06,-252.68 84.66,0 173.26,15.75 265.81,47.25 105,36.1 207.39,93.86 307.81,173.27 125.36,97.79 188.37,190.33 188.37,277.62 0,43.97 -20.35,77.45 -61.04,99.76l-1161.68 670.76c121.42,139.14 274.99,208.71 460.73,208.71 193.61,0 348.49,-70.88 464.01,-211.99 14.44,-21 38.06,-53.16 70.22,-95.82 32.16,-42.01 65.63,-63 100.42,-63 34.13,0 63.66,11.81 89.91,35.44 26.25,23.62 38.72,52.5 38.72,85.98zm-302.55 -773.8c-123.39,-139.14 -276.97,-208.71 -460.73,-208.71 -169.33,0 -314.38,60.38 -434.48,181.15 -120.11,121.42 -180.49,265.8 -180.49,434.47 0,67.61 9.85,133.23 30.19,196.24l1045.51 -603.16zm630.56 1069.75c-108.85,-116.42 -163.28,-255.3 -163.28,-416.06 0,-169.32 60.39,-314.38 181.15,-435.13 120.77,-120.77 265.81,-181.15 435.14,-181.15 137.16,0 259.9,41.35 369.5,123.38 0,-101.73 -36.1,-188.36 -108.3,-261.21 -72.19,-72.2 -159.48,-108.3 -261.21,-108.3 -70.88,0 -142.42,24.94 -213.96,74.17 -71.54,49.22 -116.17,73.5 -133.24,73.5 -33.47,0 -63,-12.46 -88.6,-38.06 -25.6,-25.6 -38.07,-55.13 -38.07,-89.26 0,-26.91 13.13,-55.79 38.72,-85.98 100.42,-120.11 245.47,-179.83 435.14,-179.83 169.32,0 314.37,60.38 434.47,180.49 120.11,120.1 180.49,265.15 180.49,434.47l0 935.84c-345.18,-23.72 -705.06,-34.81 -1067.97,-26.89zm822.51 -416.06c0,-101.07 -36.1,-188.37 -108.3,-260.56 -72.19,-72.2 -159.48,-108.3 -260.56,-108.3 -101.73,0 -189.01,36.1 -261.21,108.3 -72.2,72.19 -108.3,159.49 -108.3,260.56 0,101.73 36.1,189.01 108.3,261.21 72.19,72.2 159.48,108.3 261.21,108.3 101.08,0 188.37,-36.1 260.56,-108.3 72.2,-72.19 108.3,-159.48 108.3,-261.21zm1592.87 -796.11c0,32.81 -13.13,61.04 -40.03,84.66 -26.26,23.62 -55.79,36.1 -88.61,36.1 -32.82,0 -75.48,-31.5 -128.64,-93.85 -53.16,-62.36 -116.16,-93.2 -188.36,-93.2 -67.6,0 -125.36,24.28 -173.27,72.85 -47.91,48.57 -72.19,106.33 -72.19,172.61l0 1108.52c0,4.26 -0.13,8.4 -0.34,12.44 -80.99,-9.48 -163.43,-18.4 -247.09,-26.7l0 -1463.1c0,-81.39 41.35,-122.08 123.38,-122.08 55.79,0 93.2,23.62 113.55,71.53 78.1,-47.91 163.42,-71.53 255.96,-71.53 84.66,0 167.36,22.31 248.09,67.6 80.73,45.29 140.45,105.01 179.17,177.86 12.48,24.94 18.38,47.26 18.38,66.29z"/>
  <path class="fil1" d="M792.56 5925.58c-7.85,0.94 -15.37,-2.54 -16.78,-7.75 -1.41,-5.22 3.81,-10.22 11.67,-11.14l0.31 -0.04 0 -0.01c399.6,-48.96 785.43,-86.57 1155.77,-113.86 370.35,-27.29 725.68,-44.33 1064.16,-52.12 1682.36,-38.78 2944.85,150.89 3575.56,438.62 609.75,-297.58 1850.95,-490.91 3535.67,-448.48 332.08,8.37 681.22,25.86 1045.96,53.48 364.52,27.61 744.98,65.38 1139.91,114.29l0.91 0.09 0.37 0.05c7.77,1 12.86,6.04 11.39,11.25 -1.48,5.22 -9,8.63 -16.77,7.63l-0.36 -0.05 -0.46 -0.07c-394.07,-48.79 -773.95,-86.5 -1138.14,-114.08 -364.41,-27.61 -712.84,-45.08 -1043.81,-53.42 -1670.68,-42.08 -2901.86,147.83 -3509.72,440.91 13.26,6.27 26.3,12.59 38.95,18.94 6.38,3.19 7.64,9.23 2.82,13.48 -4.81,4.23 -13.91,5.08 -20.28,1.89 -14.88,-7.48 -30.28,-14.89 -45.99,-22.23 -2.85,1.43 -5.78,2.84 -8.59,4.28 -6.31,3.2 -15.3,2.36 -20.06,-1.88 -4.77,-4.24 -3.51,-10.27 2.8,-13.46l0.85 -0.42c-628.56,-283.58 -1881.08,-470.08 -3550.09,-431.6 -337.33,7.77 -691.88,24.77 -1061.91,52.03 -370.07,27.28 -755.24,64.82 -1153.73,113.64l0 0 -0.05 0 -0.35 0.05z"/>
  <path class="fil1" d="M999.99 6092.11c-7.86,1 -15.39,-2.61 -16.82,-8.08 -1.43,-5.46 3.76,-10.7 11.61,-11.7l0.41 -0.05 0 -0.01c387.54,-51.27 761.03,-91.82 1118.97,-122.39 357.97,-30.59 701.09,-51.27 1027.72,-62.82 1616.59,-57.18 2822.96,110.33 3436.12,407.48 550.71,-315.12 1693.28,-480.51 3241.17,-413.07 302.61,13.18 620.86,35.27 953.31,66.88 331.82,31.55 677.95,72.62 1036.98,123.82l1.1 0.14 0.51 0.07c7.74,1.13 12.71,6.47 11.1,11.9 -1.61,5.44 -9.19,8.93 -16.93,7.81l-0.52 -0.07 -0.49 -0.09c-358.19,-51.08 -703.86,-92.09 -1035.57,-123.62 -331.57,-31.52 -649.11,-53.56 -951.19,-66.72 -1534.76,-66.86 -2667.46,95.25 -3215.16,404.98 15.35,7.72 30.41,15.53 44.98,23.44 6.28,3.42 7.41,9.74 2.5,14.11 -4.9,4.37 -14,5.15 -20.29,1.73 -16.86,-9.14 -34.29,-18.17 -52.23,-27.08 -4.58,0.34 -9.38,-0.87 -12.55,-3.56 -1.42,-1.19 -2.32,-2.57 -2.84,-3.98 -607.76,-294.88 -1807.89,-461.03 -3418.66,-404.05 -325.29,11.5 -667.63,32.15 -1025.56,62.73 -357.94,30.59 -730.86,71.05 -1117.16,122.17l0 -0.01 -0.05 0.01 -0.46 0.05z"/>
  <path class="fil1" d="M972.87 5709.85c-31.06,5.69 -60.88,-14.89 -66.58,-45.95 -5.69,-31.08 14.89,-60.89 45.97,-66.58l0.3 -0.06c386.9,-71.39 759.69,-125.19 1116.82,-163.19 357.09,-37.99 699.73,-60.32 1026.29,-68.76 1649.83,-42.73 2875.16,272.04 3480.08,706.77 604.91,-434.74 1830.2,-749.5 3480.04,-706.77 326.57,8.45 669.21,30.77 1026.29,68.76 357.15,38 729.92,91.8 1116.83,163.19l0.31 0.06c31.06,5.69 51.63,35.5 45.95,66.58 -5.69,31.06 -35.51,51.63 -66.58,45.95l-0.31 -0.05c-383.12,-70.7 -753.09,-124.06 -1108.31,-161.85 -355.28,-37.8 -694.72,-59.98 -1016.87,-68.3 -1654.35,-42.84 -2868.49,274.92 -3442.79,709.24l-0.05 0.05 -1.1 0.79 -0.08 0.05 -1.06 0.75 -0.15 0.1 -0.28 0.19 -1.93 1.24 -0.23 0.14 -0.05 0.01 -1.19 0.71 -0.94 0.53 -0.32 0.17 -0.91 0.48 -0.36 0.19 -0.88 0.42c-2.92,1.43 -5.94,2.58 -9.01,3.47l-0.65 0.18c-1.56,0.44 -3.12,0.81 -4.72,1.1l-0.69 0.14 -0.66 0.11 -0.72 0.12 -0.06 0.01 -1.95 0.25 -0.73 0.08 -0.63 0.06 -0.75 0.05 -0.6 0.05 -1.17 0.08 -0.23 0.01 -0.74 0.01 -0.6 0.02 -0.79 0.01 -0.61 0 -0.75 -0.01 -0.62 -0.02 -0.78 -0.01 -0.21 -0.01 -1.15 -0.08 -0.62 -0.05 -0.77 -0.05 -0.62 -0.06 -0.05 0 -2.69 -0.34 -0.73 -0.12 -0.62 -0.11 -0.73 -0.14 -0.01 0c-2.69,-0.51 -5.34,-1.2 -7.97,-2.1 -1.58,-0.55 -3.13,-1.18 -4.68,-1.86l-0.45 -0.2 -2.13 -1.02 -0.36 -0.19 -0.91 -0.48 -0.32 -0.17 -1.98 -1.14 -0.23 -0.12 -0.22 -0.14 -1 -0.64 -0.19 -0.11 -0.26 -0.18 -1.94 -1.32 -0.04 -0.03 -0.08 -0.05 -0.04 -0.03 -1.1 -0.77c-574.29,-434.33 -1788.46,-752.13 -3442.85,-709.3 -322.16,8.32 -661.59,30.5 -1016.87,68.3 -355.23,37.79 -725.2,91.15 -1108.31,161.85l-0.32 0.05z"/>
  <path class="fil1" d="M12193.87 5738.46c15.57,2.21 25.94,14.8 23.19,28.09 -2.74,13.28 -17.61,22.26 -33.17,20.06l-0.29 -0.05 -1.58 -0.27c-383.8,-57.64 -753.99,-100.54 -1109.01,-130.23 -355.31,-29.72 -695.62,-46.22 -1019.36,-51.08 -1661.26,-24.86 -2882.01,256.97 -3460.65,634.31 -12.58,8.24 -30.51,6.29 -40.05,-4.36 -9.55,-10.64 -7.07,-25.95 5.5,-34.2l0.93 -0.59 -0.92 -0.53c-578.73,-373.27 -1799.54,-646.47 -3460.78,-609.81 -323.26,7.15 -663.49,26.07 -1019.22,58.36 -355.7,32.28 -726.37,77.87 -1110.43,138.31l-0.32 0.05c-15.53,2.42 -30.44,-6.35 -33.29,-19.6 -2.84,-13.25 7.44,-25.96 22.98,-28.39l0.31 -0.05c385.96,-60.74 758.03,-106.52 1114.7,-138.89 356.62,-32.36 698.47,-51.36 1023.93,-58.56 1674.94,-36.97 2909.01,240.55 3496.63,619.57 4.93,3.17 8.35,7.39 10.09,12.05 604.13,-369.05 1818.4,-640.9 3452.17,-616.44 324.96,4.85 666.75,21.44 1023.81,51.3 356.44,29.82 728.03,72.88 1113.21,130.72l1.33 0.17 0.29 0.04z"/>
  <path class="fil1" d="M6622.54 651.35c-11.19,-2.71 -21.52,-0.76 -31.01,5.83 -9.48,6.58 -19.33,10.61 -29.54,12.09 -12.99,4.76 -21.41,11.1 -25.31,19.05 -3.89,7.93 -9.04,17.05 -15.48,27.32 -10.22,1.48 -17.64,3.63 -22.27,6.46 -4.63,2.82 -9.71,7.52 -15.23,14.07 -0.9,3.73 -6.22,7.38 -15.95,10.96 -9.74,3.56 -19.69,10.03 -29.84,19.42 -4.63,2.83 -9.75,3.56 -15.33,2.22 -5.59,-1.35 -15.78,4.08 -30.56,16.29 -10.15,9.38 -20.76,20.64 -31.82,33.75l-1.34 5.59 -15.63 138.26 -1.83 32.1c-3.6,14.91 -5.47,28.77 -5.59,41.56 -0.14,12.79 -1.99,26.64 -5.59,41.56l-0.88 64.88 -6.94 4.24 -3.19 37.7c2.82,4.63 4.82,6.59 5.97,5.88 1.16,-0.71 0.61,3.6 -1.63,12.91l-7.81 69.13 -1.35 5.59 -12.63 76.84 -0.39 38.37c-2.26,9.32 -1.87,13.85 1.16,13.6 3.02,-0.25 3.63,3.34 1.83,10.8l-9.26 62.86 -1.35 5.59c-2.25,9.32 -1.86,13.85 1.16,13.6 3.02,-0.26 3.64,3.34 1.83,10.79l-5.4 22.37c-2.26,9.31 -2.53,18.62 -0.82,27.91 1.7,9.29 5.83,16.69 12.38,22.23l-2.41 46.75 8.97 -12.62c4.25,6.94 5.92,12.27 5.02,16 -2.7,11.19 -2.4,20.14 0.91,26.86 3.31,6.72 4.06,13.81 2.27,21.26l-10.8 44.74 16.78 4.04 -5.4 22.37 -5.41 22.36 5.59 1.35 30.37 -125.81 3.37 -13.99 4.05 -16.78 3.37 -13.98 8.38 2.02 7.43 -30.74c1.8,-7.46 3.05,-10.61 3.76,-9.46 0.7,1.16 3.37,0.32 8,-2.51l-2.02 8.38 13.99 3.38c-2.7,11.19 -3.57,18.87 -2.61,23.05 0.97,4.18 0.1,11.86 -2.6,23.04l-8.78 36.35c-2.7,11.19 -3.1,18.98 -1.21,23.38 1.9,4.4 1.5,12.19 -1.2,23.38l-3.37 13.98 -23.24 59.49 -19.58 -4.73 -5.4 22.36c-4.95,20.51 -12.28,34.53 -21.98,42.04 -9.71,7.52 -16.36,18.73 -19.96,33.65l-1.35 5.59 -18.8 4.34 -13.98 -3.37 6.36 10.4c-2.31,1.42 -4.51,2.36 -6.61,2.84 -2.08,0.49 -4.29,1.43 -6.61,2.85l-6.94 4.24c-2.7,11.18 -2.15,21.17 1.64,29.98 3.79,8.82 6.43,18.33 7.9,28.54l-1.34 5.59c-3.6,14.91 -1.16,29.3 7.32,43.19l-9.74 3.56 -6.27 87.26c-1.8,7.45 -2.35,11.76 -1.63,12.91 0.7,1.16 5.71,2.86 15.03,5.12 7.46,1.8 12.46,1.53 15,-0.82 2.54,-2.35 7.99,-4.48 16.34,-6.41 2.26,-9.33 3.95,-14.34 5.11,-15.05 1.16,-0.7 5.92,-2.02 14.28,-3.95l18.8 -4.33c18.63,4.49 44.67,2.9 78.09,-4.82 33.42,-7.71 57.53,-17.68 72.32,-29.89l13.98 3.37c7.39,-6.1 18.37,-12.82 32.97,-20.14 14.59,-7.33 29.54,-14.08 44.83,-20.24 15.3,-6.18 28.84,-13.27 40.64,-21.26 11.79,-8 18.59,-15.73 20.39,-23.19l10.79 -44.73 2.03 -8.39c-3.73,-0.9 -6.32,-4.48 -7.76,-10.75 -1.44,-6.26 -1.72,-11.26 -0.82,-14.99 2.26,-9.32 1.25,-17.45 -3,-24.4 -4.24,-6.94 -5.91,-12.27 -5.01,-16.01l12.15 -50.32c3.6,-14.92 5.37,-26.32 5.31,-34.23 -0.06,-7.9 1.25,-17.45 3.95,-28.63l1.35 -5.59c2.25,-9.31 0.42,-20.12 -5.5,-32.4 -5.91,-12.28 -8.92,-26.32 -9.05,-42.13l24.88 -201.12 19.58 -81.08 15.22 -99.89c2.71,-11.19 3.57,-18.87 2.61,-23.05 -0.97,-4.18 -0.32,-10.93 1.93,-20.25l-18.12 1.54c0.89,-3.73 0.52,-6.28 -1.11,-7.66 -1.64,-1.38 -2.01,-3.93 -1.11,-7.66l5.4 -22.37 13.22 -91.5 2.02 -8.38c-2.82,-4.63 -4.96,-10.08 -6.41,-16.34 -1.44,-6.26 -1.72,-11.26 -0.82,-14.99l2.02 -8.39c4.5,-18.63 4.5,-47.24 0,-85.81 -4.49,-38.57 -4.27,-68.09 0.69,-88.6l1.34 -5.59c-1.47,-10.22 -2.71,-19.4 -3.71,-27.53 -0.99,-8.13 -0.14,-17.79 2.56,-28.97l-8.39 -2.02c-0.9,3.73 -0.06,6.39 2.51,8 2.57,1.61 3.4,4.28 2.51,8 -2.26,9.32 -4.31,13.75 -6.17,13.3 -3.73,-0.89 -6.94,4.24 -9.65,15.43l-13.59 -41.74 4.05 -16.78 1.35 -5.59 2.02 -8.39c-1.03,-12.08 -3.78,-21.13 -8.25,-27.14 -4.47,-6.01 -4.9,-16.47 -1.3,-31.38l-13.98 -3.37 16.2 -67.1 1.35 -5.59c2.25,-9.31 1.61,-16.87 -1.92,-22.66 -3.54,-5.78 -3.95,-14.27 -1.25,-25.45 -14.91,-3.6 -23.04,-2.61 -24.39,2.99 -1.35,5.59 -7.58,10.98 -18.72,16.2l8.59 25.75z"/>
  <path class="fil1" d="M5903.62 2599.07l-13.53 6.35c-6.01,2.83 -8.25,6.01 -6.75,9.54 1.51,3.54 -3.76,8.12 -15.76,13.77l-13.51 6.36 23.38 0c0.45,0.41 0.81,0.81 1.04,1.23l-10.91 5.13 4.8 2.26c-8.08,5.05 -12.46,8.66 -13.2,10.81 -0.55,1.69 -2.99,4.02 -7.3,7.02l-6.83 3.22 1.07 0.51 -0.47 0.28 -9.94 0.32 5.03 2.67 -12.43 1.8c-3.3,1.99 -5.77,3.48 -7.41,4.48 -3.29,1.99 -8.18,6.86 -14.72,14.61l-7.4 4.47 4.43 0.7c-2.05,2.01 -1.62,3.38 1.3,4.07l0.87 0.21 -10.06 10.47 -4.33 2.04c-18.01,8.47 -30.02,16.24 -36.05,23.31 -5.98,7.07 -17.99,14.84 -36.01,23.31 0.02,5.65 1.51,7.77 4.51,6.36 0,0 -6.01,2.83 -18.02,8.47l-13.51 6.36c-3,4.23 -6.01,9.89 -9.01,16.95 -3,4.24 -7.51,9.19 -13.51,14.84 -6.02,5.65 -13.52,10.59 -22.53,14.84l13.52 6.35 -27.04 12.71c0,5.65 1.51,7.77 4.51,6.35 0,0 -6.01,2.83 -18.03,8.48l13.52 6.35c18.02,-8.47 27.79,-16.59 29.27,-24.36 1.52,-7.77 8.28,-14.48 20.29,-20.13l13.52 -6.36 19.45 -9.15c-1.61,3.12 -2.38,6.7 -2.31,10.71 0.06,4.49 0.06,8.34 0,11.58l-8.13 3.82 7.68 3.62c-0.13,1.18 -0.28,2.17 -0.45,2.93 -0.23,1 -0.72,2.18 -1.47,3.58 -6.08,3.12 -8,4.7 -5.76,4.7 0.88,0 1.63,0.23 2.26,0.72 -1.61,2.24 -3.61,4.77 -5.97,7.6l-7.42 4.48 -7.39 4.47 -2.09 5.42c-4.71,3.23 -9.12,6.62 -13.15,10.16 -10.52,9.19 -15.78,16.59 -15.78,22.24l-9.01 4.24c0,5.65 -6.75,18.02 -20.28,37.08 -13.53,19.08 -23.27,30.02 -29.27,32.85l-4.52 23.32 -18.01 0 -4.51 10.59 13.52 -6.36 36.04 -16.95 0 3.56 -5.61 3.38c-3.28,1.99 -4.88,5.81 -4.8,11.46 0.05,2.73 0.49,4.99 1.28,6.82 -4.95,6.64 -10.91,14.48 -17.89,23.51 -11.52,14.88 -10.61,25.86 2.67,32.97l0.04 1.77 -25.25 11.88 13.52 14.84 -13.52 6.35 13.52 6.36c-12,5.65 -17.27,10.24 -15.76,13.78 1.51,3.53 -5.24,8.82 -20.27,15.89l-13.5 6.35c12,5.65 17.26,10.24 15.75,13.77 -1.5,3.53 -2.26,8.12 -2.26,13.77 -9,9.89 -12.01,14.84 -9,14.84 2.99,0 1.5,4.24 -4.49,12.71 -9.03,4.23 -13.53,10.59 -13.53,19.07 -1.36,1.93 -2.56,3.68 -3.62,5.32l-13.91 -7.38c8.23,-4.97 10.68,-7.88 7.34,-8.72 -3.33,-0.84 -1.71,-3.25 4.86,-7.22l-15.08 -8.01 7.41 -4.48 -5.04 -2.67 0.97 -0.3 8.06 3.8 -8.06 -3.8 18.88 -5.98 -5.04 -2.66 -7.54 -4.01c4.83,-10.52 4.66,-20.88 -0.51,-31.08l-14.8 8.94 7.54 4.01 5.03 2.67 -12.34 7.45c-3.3,1.99 -3.65,6.48 -1.03,13.46 2.6,6.98 -1.05,13.46 -10.91,19.44l12.58 6.66 7.39 -4.47 -14.81 8.95 0.1 5.65c0,0 -1.58,4.76 -4.76,14.28 -5.09,-6.43 -6.81,-9.67 -5.14,-9.73 1.66,-0.05 0.81,-0.97 -2.53,-2.75l-22.37 4.95 -9.95 0.32c3.29,-1.99 4.1,-3.9 2.4,-5.74 -1.69,-1.82 -0.89,-3.74 2.39,-5.72l-15.08 -8 -7.41 4.48 -12.2 15.94 -7.41 4.48c1.74,4.66 2.65,9.81 2.74,15.47l5.03 2.66c-6.6,3.98 -9.03,5.95 -7.37,5.89 1.67,-0.05 2.51,1.8 2.57,5.57 0.06,3.77 -1.97,6.43 -6.11,7.97 -4.11,1.55 -1.99,4.55 6.39,9l-2.38 7.15 14.94 -0.48c0.08,3.76 2.64,8.87 7.73,15.3 5.09,6.43 5.2,13.03 0.33,19.78l5 2.67c0.07,3.77 -1.55,6.18 -4.85,7.22 -3.31,1.06 -0.78,3.8 7.61,8.24l7.54 4.01 4.93 -2.99 -7.55 -4c-0.05,-3.77 1.12,-8.28 3.55,-13.54 2.39,-5.26 3.56,-9.77 3.51,-13.54l-0.41 -25.44c3.28,-1.99 7.44,-1.65 12.47,1.02l7.53 4.01c6.7,3.55 9.22,4.42 7.53,2.58 -1.7,-1.83 2.45,-1.96 12.43,-0.39 -1.9,3.4 -2.66,5.61 -2.27,6.63 -0.48,1.35 -0.92,2.73 -1.38,4.12l-1.15 0.7 0.79 0.42c-1,3.16 -1.96,6.43 -2.9,9.84 -7.52,27.55 -18.79,44.86 -33.79,51.91l9.01 4.24c9,-9.89 14.27,-19.43 15.76,-28.61 1.5,-9.19 9.77,-17.31 24.78,-24.37 -1.55,-2.18 -2.43,-4.72 -2.68,-7.61l4.1 2.18c-1.52,8.53 -1.43,14.19 0.28,16.96 1.71,2.77 0.91,5.15 -2.38,7.14l7.63 9.66 -7.53 -4 0.14 8.48 7.53 4 -7.27 12.96 5.03 2.66 -4.78 11.46c9.94,-0.32 16.58,-1.46 19.87,-3.46 8.22,-4.97 12.76,-8.18 13.54,-9.61 0.81,-1.44 -1.32,-5.39 -6.41,-11.82l5.09 -0.88 3.89 4.27 13.5 -6.36 -13.5 6.36 13.49 6.36 -22.52 10.59c-9.01,4.23 -10.49,7.76 -4.49,10.59 0,5.66 1.52,10.59 4.49,14.84 3,4.24 -1.5,9.19 -13.51,14.84 12.01,5.65 16.51,12.01 13.53,19.08 -3,7.06 -7.5,12.01 -13.53,14.84l-40.54 19.07 -13.52 -6.36 -18.79 8.84 -8.16 0c-5.15,-1.67 -11.2,-2.48 -18.1,-2.48 -9.02,0 -22.51,-4.24 -40.54,-12.71l-22.54 10.59c-9.01,4.24 -16.5,4.95 -22.51,2.12l-13.51 -6.36 -58.56 -6.35 -13.51 6.35 -54.07 -12.71 -13.8 3.9c-25.4,-13.42 -51.08,-24.57 -77.01,-33.49 -54.16,-18.44 -105.97,-27.65 -155.5,-27.65 -73.23,0 -140.79,13.63 -202.76,40.95l-1.42 -0.66 9.01 -4.24 0 -25.43 13.51 -6.36 9.01 -4.23c6.01,-2.82 9.01,-7.77 9.01,-14.84 0,-7.07 3,-12.01 9.01,-14.84l9.01 -4.23c-3,-15.54 -0.75,-24.37 6.76,-26.49 7.49,-2.12 5.25,-8.83 -6.76,-20.13 15.02,-7.07 25.54,-16.25 31.56,-27.55 5.98,-11.3 8.97,-19.78 8.97,-25.43l9.01 -4.24c-9.01,-9.89 -11.26,-13.07 -6.75,-9.54 4.5,3.54 6.75,-1.76 6.75,-15.88l13.53 -6.36 -9.01 -4.24 22.52 -10.59c-15.01,-7.07 -13.51,-14.84 4.51,-23.31 18.01,-8.47 21.02,-18.36 9,-29.67l9.01 -4.23c6.01,-2.83 9.75,-6.01 11.26,-9.55 1.5,-3.53 3.75,-7.41 6.77,-11.65 0,-5.65 1.5,-10.59 4.49,-14.83l27.03 -12.71 -22.52 -10.59 22.52 -10.59 -13.51 -6.36 27.04 -12.71c0,-5.65 3,-9.19 9,-10.59 6.02,-1.42 3.01,-4.95 -9,-10.59l27.03 -12.71 -13.51 -6.35 22.51 -10.6 -13.51 -19.07 22.52 -10.6 -9.01 -4.23 27.02 -12.71c0,-5.65 -0.73,-6.71 -2.23,-3.18 -1.52,3.53 6.75,1.06 24.76,-7.42l-13.51 -6.36 13.51 -6.35c0.01,-16.96 7.53,-28.97 22.53,-36.02 0,-5.65 0,-8.48 0,-8.48 -3,1.42 1.51,-0.7 13.51,-6.35l-13.51 -6.35 27.03 -12.71c6,-2.83 4.5,-6.36 -4.52,-10.6l27.03 -12.71 22.54 -10.59c-6.01,-2.82 -4.51,-6.35 4.5,-10.59 15.01,-7.06 21.75,-12.36 20.26,-15.89 -1.5,-3.53 3.76,-8.12 15.78,-13.78 0,-5.65 -1.5,-8.47 -4.5,-8.47 -3,0 1.49,-2.82 13.51,-8.48l27.04 -12.71 -13.52 -6.35 22.53 -10.6 13.51 -6.35c18.02,-14.13 37.54,-30.37 58.56,-48.74 21.03,-18.36 43.56,-33.2 67.58,-44.5 12.01,-5.65 13.52,-8.48 4.51,-8.48 -9.02,0 -7.53,-2.83 4.48,-8.48l90.11 -50.85 13.49 -6.36 135.16 -63.57 22.52 -10.59 49.54 -36.02 22.54 -10.59 13.51 -6.36 22.52 -10.59 40.54 -19.08 4.5 2.12c6,2.82 12,2.82 18.02,0l49.54 -23.31 13.52 -6.36c24.02,-5.65 51.07,-14.84 81.09,-27.55 30.04,-12.71 64.58,-21.19 103.62,-25.42l22.52 -10.59 13.52 -6.36 22.52 10.59 13.51 -6.35 9.03 -4.24c8.99,-4.23 22.51,-6.35 40.53,-6.35 24.03,-5.66 42.78,-8.13 56.31,-7.42 13.51,0.7 35.28,-0.36 65.32,-3.18 21.03,-4.24 40.54,-4.24 58.55,0 18.02,4.23 36.06,2.11 54.06,-6.36l-27.02 -12.71 -9.01 -4.24 -40.54 -6.35 -22.53 10.59c-6.01,-2.82 -16.51,-4.95 -31.53,-6.36 -15.02,-1.41 -25.54,-0.7 -31.54,2.12l-31.53 -6.35c-9,-9.88 -14.26,-15.89 -15.76,-18.01 -1.5,-2.12 -5.26,-7.42 -11.27,-15.89 15.01,-7.07 30.03,-7.07 45.04,0l13.52 6.35 13.53 -6.35 40.54 -6.36 9.01 4.24c18,-2.82 32.28,-3.18 42.78,-1.06 10.53,2.12 26.29,1.06 47.3,-3.18l58.56 52.98 -13.49 6.35c18.01,8.47 38.28,11.66 60.81,9.54 22.52,-2.11 39.78,-0.35 51.81,5.3 12.01,0 28.53,0 49.54,0 21.03,0 37.55,0 49.56,0 18.02,2.82 31.54,5.65 40.55,8.48 9.01,2.82 24.03,2.11 45.04,-2.12l0 12.71c18.01,-2.83 27.04,-3.53 27.04,-2.12 0,1.41 6,2.12 18.03,2.12l-9.02 4.23 22.52 2.12 -13.5 -6.35 40.54 -6.36 49.56 10.59 0 12.71c12.01,0 17.27,-1.06 15.76,-3.18 -1.5,-2.12 0.75,-1.77 6.76,1.06 15.02,7.07 18.76,9.54 11.26,7.42 -7.5,-2.12 -11.26,-0.35 -11.26,5.3l13.51 -6.36c15.02,7.07 18.02,9.19 9.02,6.36 -9.02,-2.82 -21.03,-0.7 -36.05,6.36l40.56 6.35 22.51 -10.59 22.52 10.59 13.53 6.36 36.03 16.95c9.01,4.24 16.51,4.95 22.52,2.12l4.5 -2.12 36.03 -16.95 22.53 10.59 27.02 0 99.11 59.33c12.01,5.66 18.79,7.42 20.27,5.3 1.51,-2.12 6.77,1.77 15.78,11.66l9 4.23 13.52 6.36 13.52 6.35 22.51 10.59c21.04,9.9 36.06,18.37 45.07,25.44 9,7.06 19.52,13.41 31.52,19.06l13.53 6.36 9.01 29.67 13.51 6.35 49.56 10.59 36.04 29.67c-9.01,4.24 -9.01,8.47 0,12.71 18.02,8.48 27.77,14.48 29.27,18.01 1.5,3.53 9.76,8.83 24.78,15.89l18.02 0 -9.01 4.24 22.52 2.12c6,2.82 10.5,4.94 13.51,6.35 6.01,2.83 15.02,9.89 27.04,21.19l13.5 6.36 -40.54 6.35c9.01,4.25 18,4.25 27.04,0l36.01 29.67 -13.51 6.36 9.01 4.23 -9.01 4.24 13.51 6.36 13.53 19.06c-12,0 -18.03,-0.7 -18.03,-2.11 0,-1.42 -5.99,0.71 -18.01,6.35 -3,-7.06 -9,-12.71 -18.02,-16.95l-9.01 -4.24 0 -12.71 -13.51 -6.35 -22.52 -10.6 22.52 23.32 13.51 14.83c9.01,9.89 17.27,19.43 24.78,28.61 7.5,9.18 23.28,19.43 47.31,30.73l4.5 -10.6 -13.52 -6.35 -22.52 -23.31 22.52 -10.6 72.07 46.63c0,11.3 8.25,20.13 24.78,26.49 16.51,6.35 24.76,16.59 24.76,30.72 0,16.96 0.78,27.91 2.27,32.85 1.49,4.95 8.26,13.08 20.27,24.37l13.51 6.35 13.53 6.36 13.51 27.54 22.52 23.32 -27.02 0 0 12.71c12,0 24.02,2.82 36.04,8.47 12.02,5.65 9.01,9.89 -9.02,12.71l27.03 12.71c-15.02,7.07 -21.03,10.59 -18.03,10.59 3,0 7.52,4.23 13.54,12.71l13.51 -6.35 -22.52 -10.6 22.51 -2.12c6.02,2.83 7.51,4.24 4.5,4.24 -3,0 0,4.95 9.02,14.84l-13.52 6.36 -13.51 -6.36 13.51 27.55 0 -21.19 13.52 6.35 27.03 33.9 -13.52 6.36 8.99 4.23 -22.5 2.12 22.5 -2.12 13.54 6.36 13.5 6.36c6.03,2.82 9.03,8.47 9.03,16.95 0,8.47 -3,14.12 -9.03,16.95 -5.98,2.82 -8.99,3.54 -8.99,2.13 0,-1.42 -6.01,-2.13 -18.05,-2.13l27.04 12.72c6.03,2.82 6.77,3.88 2.27,3.17 -4.49,-0.7 -9.75,0.36 -15.76,3.19l9.01 4.23 -9.01 4.24 13.5 6.36c-8.99,9.88 -11.24,15.18 -6.74,15.89 4.51,0.7 9.76,5.3 15.77,13.77l4.51 -10.59 22.51 10.59 0 33.9c-15.02,7.07 -21.03,12.72 -18.02,16.96 3,4.24 4.49,12.01 4.51,23.31l13.51 6.36 -13.51 -6.36 0 12.71 27.03 0c-18.02,8.47 -24.78,15.89 -20.27,22.25 4.49,6.35 6.75,16.59 6.75,30.73 0,5.65 -1.51,12.01 -4.51,19.07 -3.01,7.07 3,14.13 18.03,21.2 -6.01,8.47 -7.5,14.83 -4.5,19.07 3,4.24 4.5,13.42 4.5,27.55l-0.01 2.48 -39.77 0 -9.8 -4.6 9.8 4.6 -81.08 0 -5.28 -2.48c-0.62,0.88 -1.2,1.71 -1.7,2.48l-141.25 0c-35.55,-21.54 -71.55,-38.58 -108.12,-51.15 -21,-7.16 -41.66,-12.93 -61.97,-17.31 -0.73,-3.55 -3.63,-8.1 -8.69,-13.69 -1.13,-4 -2.22,-6.99 -3.28,-9.03l9.66 -4.54c-15,-12.72 -20.27,-18.72 -15.76,-18.02 4.5,0.7 0.76,-4.58 -11.26,-15.89l13.52 -6.35c0,-5.65 -2.27,-16.6 -6.77,-32.86 -4.5,-16.23 -6.75,-27.19 -6.75,-32.84 0,-5.65 -3.74,-15.19 -11.25,-28.61 -7.53,-13.43 -12.78,-26.49 -15.77,-39.21 0,-5.65 -4.51,-16.95 -13.53,-33.89 -9.02,-16.96 -16.51,-26.85 -22.51,-29.67 -6.03,-8.48 -7.52,-14.84 -4.5,-19.08 2.99,-4.23 -3.01,-9.88 -18.02,-16.95 0,-5.66 -3.76,-10.95 -11.26,-15.9 -7.51,-4.95 -3.75,-10.95 11.24,-18l-36.03 -16.96 13.53 -6.35c-9.01,-9.89 -18.78,-22.25 -29.3,-37.09 -10.49,-14.84 -21.77,-27.9 -33.78,-39.2 -6,-2.83 -11.25,-9.54 -15.76,-20.14 -4.5,-10.59 -6.76,-18.72 -6.76,-24.36 0,-5.65 -5.26,-11.66 -15.76,-18.01 -10.51,-6.35 -18.77,-13.77 -24.77,-22.24l-13.52 -6.36c-15.02,-7.07 -22.53,-19.07 -22.52,-36.02 -6.01,-2.83 -12.02,-7.77 -18.03,-14.84 -6,-7.06 -9,-13.42 -9,-19.07l-9.01 -4.24c-15.02,-7.07 -30.77,-15.19 -47.3,-24.37 -1.02,-0.57 -2,-1.15 -2.91,-1.71l6.19 -3.74 -15.09 -8c-0.44,-0.24 -0.83,-0.51 -1.16,-0.78 0.39,-3.59 3.96,-6.98 10.7,-10.14 -57.09,-26.86 -78.59,-57.66 -123.56,-102.81 -11.81,-11.88 -24.4,-21.38 -37.83,-28.5 -6.71,-3.56 -7.57,-5.41 -2.59,-5.57 4.99,-0.16 4.12,-2.02 -2.58,-5.58l-50.36 -32.33 -7.55 -4.01 -75.42 -40.01 -12.56 -6.68c-42.9,-35.73 -79.05,-41.94 -123.19,-65.37l-7.56 -4.01c-13.32,-3.34 -28.36,-8.99 -45.12,-16.95 -16.75,-7.95 -35.95,-12.99 -57.56,-15.13l-12.57 -6.67 -7.54 -4.01 -3.3 2 -7.32 -3.45 -9.8 4.61 -4.49 -2.38c-5.03,-2.67 -12.53,-3.84 -22.48,-3.53 -13.36,-3.35 -23.76,-4.67 -31.23,-3.95 -7.46,0.7 -19.52,0.39 -36.16,-0.97 -11.67,-2.45 -22.45,-2.12 -32.39,1.02 -9.9,3.14 -19.9,2.05 -29.95,-3.28l14.82 -8.95 4.95 -2.98 22.33 -4.96 12.57 6.68c3.28,-1.99 9.08,-3.58 17.36,-4.8 8.28,-1.2 14.12,-0.91 17.47,0.87l17.36 -4.8c4.88,-6.75 7.72,-10.84 8.54,-12.28 0.8,-1.44 2.82,-5.04 6.05,-10.79 -8.37,-4.45 -16.68,-4.18 -24.91,0.79l-7.41 4.48 -7.54 -4.01 -22.49 -3.54 -4.94 2.99c-9.99,-1.56 -17.89,-1.55 -23.67,0.05 -5.8,1.6 -14.52,1.16 -26.21,-1.3l-31.82 36.36 7.56 4.01c-9.87,5.96 -21.05,8.44 -33.52,7.42 -12.48,-1.01 -22.02,0.46 -28.61,4.44 -6.64,0.22 -15.76,0.51 -27.39,0.87 -11.63,0.37 -20.76,0.67 -27.41,0.88 -9.93,2.2 -17.37,4.32 -22.33,6.36 -4.94,2.04 -13.26,1.83 -24.93,-0.62l0.15 8.47c-10.01,-1.56 -15,-1.88 -15,-0.94 0,0.95 -3.28,1.53 -9.94,1.73l5.04 2.66 -12.43 1.81 7.38 -4.48 -22.48 -3.53 -5.54 1.61c-0.31,-0.77 -0.21,-1.53 0.29,-2.22 1.5,-2.12 -8.27,-1.06 -29.29,3.18l-63.06 29.67 -30.82 14.49 -12.99 -6.9 -12.36 7.46 -14.94 0.48 -54.15 41.3c-6.59,3.98 -10.31,5.27 -11.15,3.88 -0.86,-1.38 -3.72,1.3 -8.59,8.06l-4.94 2.98 -7.4 4.48 -7.41 4.48 -12.34 7.46c-11.52,6.97 -19.74,12.88 -24.64,17.75 -1.57,1.55 -3.23,3.07 -4.97,4.53l-0.51 -0.25 -49.55 31.78zm2220.11 867.06l5.27 -2.48 -13.51 -6.36 27.02 -12.71c16.75,7.88 23.27,15.05 19.6,21.56l-38.38 0zm77.95 -3.2c-4.03,-2.91 -4.22,-4.78 -0.59,-5.64 6,-1.41 3,-4.95 -9.02,-10.59l27.04 -12.71 -13.5 -6.35 9 -4.24 -36.04 -8.48 8.99 -4.23 13.54 -6.36c-9.02,-15.53 -9.02,-31.07 0,-46.62l27.02 12.72 -13.52 6.35 -9.01 4.23 22.52 10.59c6.01,2.83 6.76,9.55 2.27,20.14 -3.48,8.17 -0.27,15.69 9.64,22.6 -6.64,4.1 -13.08,8.47 -19.32,13.11l-6.08 -2.87 6.08 2.87c-6.55,4.87 -12.9,10.03 -19.01,15.49zm-2468.69 -670.88l-0.56 -0.14c-5.09,-1.19 -2.62,-4.42 7.38,-9.67 -0.96,3.69 -3.26,6.98 -6.82,9.82zm14.81 -20.47l-6.35 -2.99 23.36 -10.98 -17.01 13.97zm-207.55 429.66c0.79,-1.39 1.79,-2.91 2.97,-4.59 18.03,-8.47 24.03,-14.12 18.03,-16.95l22.52 -10.6c-15.01,-7.06 -18.77,-9.53 -11.26,-7.41 7.49,2.12 6.77,-1.77 -2.27,-11.66l27.04 -12.71c0,-5.65 -2.27,-8.12 -6.76,-7.42 -4.51,0.71 -3.76,-0.35 2.26,-3.18l-9.01 -4.23c2.71,-1.28 5.16,-2.48 7.33,-3.6 8.33,4.83 11.36,9.24 9.12,13.21 -2.42,4.32 -3.56,11.2 -3.38,20.62 0.05,3.76 0.95,7.98 2.69,12.63 0.51,1.4 0.6,2.81 0.22,4.25 -2.17,1.33 -4.49,2.58 -6.96,3.74l3.47 1.63c-1.63,1.59 -3.77,3.2 -6.47,4.82 3.42,5.56 4.33,9.76 2.7,12.64 -1.5,2.68 -2.24,8.2 -2.2,16.58 -2.02,1.93 -4.2,4.18 -6.51,6.71 3,1.41 4.51,4.95 4.51,10.59 0,2.26 -0.95,4.93 -2.86,8.09l-14.65 2.54 -7.4 4.48 7.4 -4.48 -7.4 4.48 -12.58 -6.67c9.87,-5.96 12.73,-9.12 8.58,-9.46 -4.17,-0.34 -2.95,-2.5 3.64,-6.48l-12.57 -6.68 7.41 -4.47 -15.09 -8c-0.89,0.53 -1.72,1.05 -2.51,1.57zm53.57 -83.78c5.41,-2.94 8.67,-5.25 9.79,-6.92l0.12 6.61 -9.91 0.32zm9.76 -9.04c-0.38,-0.32 -0.97,-0.58 -1.8,-0.77 -3.57,-0.84 -2.91,-2.94 2.04,-6.27 -0.2,2.06 -0.28,4.4 -0.24,7.04zm25.09 -53.68l13.53 -6.35 7.79 0.86 -14.81 8.94 -6.51 -3.45zm15.02 -10.26c-3.08,-1.99 -4.19,-3.97 -3.32,-5.95l7 3.72 -3.68 2.23zm35.62 -26.27l3.56 -1.68 6.32 -2.97c-0.23,3.16 -0.97,6.67 -2.23,10.47 -3.17,9.53 -6.4,15.29 -9.69,17.27 0.09,5.65 0.97,8.92 2.65,9.82l0.69 0.37 -5.41 2.55 -0.22 0.05 -0.37 0.21 -2.37 1.14 -2.24 -1.19c4.87,-6.75 4.4,-10.27 -1.43,-10.55 -5.81,-0.29 -2.95,-3.92 8.56,-10.87 -3.42,-5.55 -3.47,-9.32 -0.19,-11.31 1.34,-0.8 2.13,-1.92 2.36,-3.31zm-6.26 54.92c-0.39,1.2 -0.87,2.47 -1.42,3.8 -3.65,8.55 -10.71,15.94 -21.2,22.19 -0.43,-1.74 -0.77,-3.51 -0.97,-5.33 -0.96,-7.98 3.48,-14.95 13.36,-20.93 -5.04,-2.66 -2.61,-6.98 7.26,-12.95 0.05,3.22 1.06,7.63 2.96,13.22zm-18.72 35.92l1.53 0.72 -0.88 0.41 -0.64 -1.13zm-29.72 27.58l-0.6 1.22 -0.04 -1.55 0.63 0.33zm-6.82 15.3c-0.53,0.89 -1.09,1.75 -1.67,2.61l-4.36 -2.3 7.41 -4.48 -1.38 4.18zm-6.47 8.47c-1.79,1.87 -3.74,3.62 -5.88,5.28l-3.44 -1.83 7.39 -4.47 1.93 1.02zm432.13 -637.24l-0.52 0.43 -0.16 -0.01 0.69 -0.42zm-8.92 9.16c0.47,0.92 1.6,1.85 3.35,2.76l-2.39 1.45 -4.94 2.99 -22.22 13.43 -4.95 2.98c5.04,2.67 5.09,5.5 0.14,8.48l-2.74 1.67 -13.65 6.43 -5.94 -3.15 -3.1 7.4 -2.39 1.13 -2.57 1.21 -2.25 -1.2 0.31 -0.01c3,0 3,-0.7 0,-2.12l-0.31 -0.14c5.3,-3.02 8.36,-3.93 9.1,-2.69 0.88,1.38 1.26,0.19 1.21,-3.58l7.41 -4.47c-3.37,-1.78 -5.02,-1.73 -5,0.15 0.05,1.89 4.17,0.34 12.37,-4.64 3.32,-1.99 3.72,-3.18 1.2,-3.57 -2.47,-0.39 -0.42,-0.69 6.22,-0.9l-7.53 -4 19.74 -11.94 12.33 -7.46 6.6 -0.21zm4.23 2.24l0 -2.37 4.12 -0.13 -4.12 2.5zm-590.33 690.72c8.4,4.44 11.75,6.7 10.1,6.74 -1.66,0.05 -2.46,1.97 -2.4,5.74l-7.7 -12.48zm34.99 4.54l-2.38 7.15 -5.04 -2.66 7.42 -4.48zm125.46 -101.53l14.82 -8.94 7.54 4 -14.79 8.95 -7.57 -4.01zm21.99 -27.55l7.41 -4.48 0.14 8.48 -7.55 -4zm-0.14 -8.49c-5.02,-2.66 -3.43,-6.48 4.8,-11.45l-4.8 11.45zm2300.04 358.69l13.53 6.35 -13.51 6.36c12.02,0 15.76,-0.35 11.26,-1.06 -4.5,-0.71 0.76,-4.59 15.76,-11.66 0,-5.65 2.25,-6.71 6.74,-3.18 4.53,3.53 2.27,0.35 -6.75,-9.54l-27.04 12.71zm103.6 -57.21l-13.5 -6.36 -27.03 12.71 13.5 6.35 27.03 -12.71zm-18 -16.96l-13.51 -6.35 4.48 10.59 9.02 -4.23zm-22.52 -10.59l0.01 -12.71 -13.54 6.36 13.54 6.35zm-49.55 10.59c6.01,-2.82 7.52,-4.24 4.5,-4.24 -2.99,0 -4.5,-2.82 -4.5,-8.47 -12.01,5.65 -16.51,8.47 -13.51,8.47 3,0 4.52,2.82 4.52,8.47l8.99 16.96 13.52 -6.36 -13.52 -14.83zm76.6 -36.02l-27.04 -12.71 -13.52 6.35 27.01 12.71 13.54 -6.35zm-40.58 -40.26l-13.49 -6.35 0 12.71 13.49 -6.36zm0 -12.71c9.04,-4.23 6.03,-9.89 -8.99,-16.95l8.99 16.95zm-58.54 -27.55c9,-4.24 4.5,-10.59 -13.52,-19.07 0,5.65 -2.26,13.77 -6.77,24.36 -4.48,10.59 2.27,20.14 20.29,28.61 -15.02,7.06 -20.29,12.35 -15.75,15.89 4.48,3.53 12.76,8.12 24.76,13.77 9.01,-9.89 14.28,-20.84 15.76,-32.84 1.5,-12.01 -6.75,-22.25 -24.78,-30.74zm72.07 -33.9l-13.54 -6.36 -36.01 4.24 27.03 12.71 22.52 -10.59zm-45.05 -12.71l9.01 4.24 13.51 -14.84 -22.52 10.59zm-4.5 -36.02l-13.51 6.36 27.03 12.71 -13.52 -19.07zm-13.53 -27.55l-9 -4.23 9 4.23zm-36.02 50.86c6.01,-8.47 6.01,-14.13 0,-16.95 -6.01,-2.83 -6.01,-8.48 -0.01,-16.96l-22.51 2.11c0,5.66 1.5,12.01 4.49,19.08 6.02,14.13 12.02,22.61 18.02,25.43 0,8.47 -1.5,13.43 -4.5,14.84l-4.5 2.12c0,0 4.5,0.7 13.51,2.12l4.5 2.11 4.51 -2.11c-9.01,-9.89 -8.26,-15.19 2.26,-15.9 10.51,-0.7 5.27,-6 -15.76,-15.89zm13.51 -61.44l13.52 6.35 -13.52 -6.35zm-49.56 23.3l0 -12.71 0 12.71zm49.56 -36.02l13.52 6.36 -9.01 -4.24c-3,-1.41 0,-4.23 9.01,-8.48l-13.52 6.36zm-49.56 -44.51c-21.02,-9.88 -27.02,-16.95 -18.01,-21.19 9.01,-4.23 7.52,-9.18 -4.51,-14.83 -5.99,-2.82 -12.74,-3.89 -20.25,-3.19 -7.52,0.71 -14.27,-0.35 -20.29,-3.17l13.52 6.35 -13.52 6.35 22.51 10.6 -22.51 10.59c15.02,12.71 27.79,27.89 38.3,45.55 10.52,17.66 27.78,32.14 51.8,43.44 -14.99,-7.07 -21.02,-14.12 -18.01,-21.19 3.02,-7.06 4.5,-13.42 4.5,-19.07 -15.02,-12.71 -24.04,-19.78 -27.04,-21.2 -3,-1.42 1.51,-7.77 13.51,-19.08zm27.04 21.2l13.52 6.36 9 -4.24 -13.51 -6.35 -9.01 4.23zm22.51 -10.59l0 -12.71 -13.51 6.36 13.51 6.35zm-13.52 -52.97l-13.5 -6.36 -9.01 -4.24 0 -12.71 -13.53 -6.36 -22.52 -10.59c0,16.95 10.52,30.37 31.55,40.26 0,5.65 -0.76,10.23 -2.27,13.76 -1.49,3.54 5.29,8.83 20.28,15.9 5.99,-8.48 10.51,-12.71 13.51,-12.71 3,0 -3,-3.53 -18,-10.59l13.5 -6.35zm-49.55 -44.51c15.02,-18.36 7.52,-26.13 -22.53,-23.31l22.53 23.31zm-49.55 -48.74c24.03,-11.3 28.54,-20.48 13.51,-27.55 -12.01,-5.65 -19.51,-7.07 -22.51,-4.24 -3,2.83 -7.51,2.83 -13.52,0l9.01 4.24 -9.01 4.24c18.03,8.47 24.78,15.89 20.28,22.25 -4.5,6.35 0.75,13.07 15.76,20.12 0,-5.65 1.51,-8.47 4.51,-8.47 3,0 -3,-3.53 -18.03,-10.59zm-22.52 36.02c6.01,-2.82 6.75,-7.42 2.26,-13.77 -4.49,-6.36 -9.76,-10.95 -15.77,-13.78 -6.01,-2.82 -9.01,-4.24 -9.01,-4.24 3,1.42 -1.51,2.12 -13.52,2.12l9.01 -4.23 -13.53 -6.36c-12.01,5.66 -14.26,11.66 -6.76,18.01 7.53,6.35 14.28,13.78 20.29,22.25 15.01,7.07 21.77,13.77 20.27,20.13 -1.52,6.35 5.25,13.07 20.28,20.13 6,2.82 7.5,4.23 4.51,4.23 -3.03,0 -1.51,4.24 4.49,12.72 15.02,-7.07 18.01,-16.96 9.01,-29.67 -9.01,-12.71 -19.52,-21.9 -31.54,-27.55zm-85.58 -74.17l0 -12.71 0 12.71zm9.01 -42.39l-22.53 10.6 22.53 -10.6zm-58.57 -27.54l27.04 0c-15.02,-7.07 -18.77,-9.54 -11.26,-7.42 7.52,2.12 6.75,-1.77 -2.24,-11.66l-13.54 19.08zm0 -25.43c0,-5.65 0,-8.48 0,-8.48 3,1.42 -1.5,-0.7 -13.51,-6.35l13.51 14.84zm-85.58 -74.18c6,8.48 11.26,10.95 15.76,7.42 4.51,-3.53 -0.73,-1.76 -15.76,5.3l36.04 16.96 -36.04 -29.67zm-13.51 -6.35l13.51 6.35 -13.51 -6.35zm-72.09 -46.62l9 -4.24 13.54 6.36 13.5 -6.36c-24.01,-5.65 -31.52,-7.07 -22.51,-4.23 9.01,2.82 3,2.12 -18.03,-2.12l4.5 10.59zm-54.05 -67.81l-9.02 4.23 40.55 19.08 -31.53 -23.31zm-31.53 -52.98c-3,-7.07 -16.51,-16.25 -40.54,-27.55l40.54 27.55zm85.6 52.98c5.99,-8.48 5.24,-15.9 -2.25,-22.25 -7.51,-6.36 -15.8,-14.48 -24.8,-24.37l-36.05 -4.23c-5.98,2.82 -8.99,4.23 -8.99,4.23 -3,1.42 -9.01,7.07 -18.02,16.96l-9.01 -4.23 -13.51 6.35 -27.05 -12.71c9.02,-4.24 9.02,-8.47 0,-12.71 -5.99,-2.82 -18,-4.24 -36.02,-4.24 45.07,21.19 75.08,42.39 90.09,63.57 24.04,-11.3 27.03,-16.96 9.03,-16.96 0,-8.47 4.49,-14.83 13.49,-19.07 0,8.47 4.5,14.84 13.53,19.07l58.55 27.55 13.54 -6.36 -22.51 -10.59zm-184.71 -74.17l-13.51 -6.36 13.51 6.36 22.52 10.59 -22.52 -10.59c-6.01,-2.83 -9.01,-2.83 -9.01,0 0,2.82 3,2.82 9.01,0zm-40.54 -19.08l27.04 12.71 -27.04 -12.71zm-36.04 -29.67c-6.01,-8.47 -6.01,-11.3 0,-8.47 6.01,2.82 3.01,4.24 -9,4.24l-4.51 10.59 13.5 6.36 36.05 16.95 13.51 -6.36 -49.55 -23.31zm112.63 19.08c6,-2.82 9.01,-2.82 9.01,0 0,2.82 -7.5,0.7 -22.52,-6.35 -5.99,-2.82 -6.76,-4.59 -2.25,-5.3 4.5,-0.71 0.77,-1.06 -11.27,-1.06l13.52 -6.36 -36.03 -16.95 -22.52 -10.59 -27.03 0 13.5 6.35 9.03 4.24 40.53 19.07 9.01 4.24c-9.01,4.23 -9.01,8.48 0.01,12.71l13.51 6.35 13.52 6.36 13.51 -6.36 9.01 16.96 13.52 -6.35c-12.02,-5.66 -18.76,-7.42 -20.28,-5.3 -1.52,2.11 -2.26,0.35 -2.26,-5.31l-13.51 -6.35zm-121.62 -57.21l22.52 -2.12 -9.01 -4.24 -13.51 6.36zm-1671.32 659.03l-13.51 6.36 13.51 -6.36zm72.09 -233.1c-9.01,9.89 -13.53,17.66 -13.53,23.31 0,5.65 0,11.31 0.01,16.96 12.03,-5.65 17.26,-12.36 15.76,-20.13 -1.5,-7.78 -2.24,-14.48 -2.24,-20.13zm747.79 -478.91l13.53 6.36 13.5 -6.36 -27.03 0zm-527.07 247.93l-13.51 6.35 40.54 -6.35 -27.04 0zm554.1 -260.65l-13.51 -6.36 13.51 6.36zm-873.94 317.87c3,1.4 4.48,3.53 4.48,6.34 0,5.66 3.02,9.89 9.02,12.71 12.01,-5.65 16.51,-8.47 13.51,-8.47 -2.98,0 -4.49,-2.82 -4.49,-8.47 -12.01,0 -17.27,-1.06 -15.76,-3.18 1.5,-2.12 -0.76,-1.77 -6.77,1.06zm500.04 -328.46l-9.01 -4.24c-15.02,-1.41 -22.51,2.12 -22.51,10.59l31.52 -6.35z"/>
  <path class="fil1" d="M8238.84 1104.16c10.36,5.03 17.1,13.09 20.24,24.2 3.13,11.11 8.18,20.48 15.13,28.12 7,11.92 9.48,22.18 7.44,30.79 -2.04,8.6 -3.84,18.91 -5.41,30.93 6.96,7.63 11.32,14.01 13.09,19.14 1.78,5.13 2.72,11.97 2.82,20.55 -1.68,3.45 0.12,9.64 5.36,18.59 5.25,8.94 8.83,20.26 10.7,33.96 1.78,5.13 5.26,8.94 10.44,11.45 5.17,2.52 9.59,13.17 13.25,32 1.88,13.7 2.91,29.13 3.12,46.27l-2.51 5.18 -75.77 116.69 -18.98 25.96c-6.7,13.8 -14.06,25.68 -22.08,35.64 -8.03,9.95 -15.39,21.84 -22.08,35.64l-40.55 50.66 2.66 7.69 -21.49 31.13c-5.13,1.78 -7.9,2.03 -8.35,0.75 -0.44,-1.28 -2.76,2.39 -6.94,11.02l-37.9 58.34 -2.51 5.18 -39.06 67.36 -24.08 29.87c-4.19,8.64 -7.36,11.89 -9.54,9.77 -2.17,-2.12 -4.93,0.27 -8.27,7.17l-32.78 54.43 -2.51 5.17c-4.19,8.63 -7.36,11.88 -9.53,9.76 -2.17,-2.12 -4.93,0.27 -8.27,7.17l-10.04 20.7c-4.19,8.63 -9.88,15.98 -17.1,22.08 -7.22,6.09 -15.12,9.19 -23.69,9.29l-27.84 37.64 1.09 -15.45c-7.69,2.66 -12.36,5.72 -14.04,9.17 -5.03,10.36 -10.95,17.08 -17.77,20.16 -6.82,3.09 -11.9,8.08 -15.25,14.98l-20.09 41.41 -15.53 -7.53 -10.03 20.7 -10.04 20.71 -5.17 -2.52 56.48 -116.45 6.27 -12.94 7.53 -15.53 6.27 -12.94 -7.76 -3.76 13.81 -28.46c3.35,-6.91 4.39,-10.13 3.1,-9.69 -1.28,0.44 -2.82,-1.9 -4.59,-7.02l-3.76 7.76 -12.94 -6.28c-5.03,10.36 -9.24,16.85 -12.63,19.46 -3.4,2.62 -7.61,9.1 -12.63,19.45l-16.32 33.65c-5.02,10.35 -9.66,16.62 -13.92,18.81 -4.26,2.2 -8.9,8.47 -13.92,18.82l-6.27 12.94 -19.85 60.69 18.12 8.79 -10.03 20.7c-9.21,18.99 -12.45,34.46 -9.74,46.44 2.72,11.97 0.73,24.86 -5.96,38.67l-2.51 5.17 11.76 15.3 12.94 6.27 -11.53 4c0.89,2.56 1.99,4.69 3.29,6.4 1.31,1.7 2.4,3.83 3.29,6.39l2.66 7.69c-5.02,10.35 -11.79,17.72 -20.31,22.11 -8.53,4.39 -16.6,10.07 -24.24,17.02l-2.51 5.18c-6.7,13.8 -17.72,23.36 -33.09,28.7l5.25 8.94 -50.6 71.37c-3.35,6.89 -5.67,10.57 -6.95,11.02 -1.27,0.44 -6.23,-1.43 -14.85,-5.61 -6.91,-3.35 -10.59,-6.73 -11.06,-10.16 -0.47,-3.42 -3.32,-8.54 -8.55,-15.33 4.19,-8.64 6.06,-13.58 5.61,-14.86 -0.45,-1.28 -3.28,-5.32 -8.51,-12.12l-11.76 -15.3c-17.25,-8.37 -36.34,-26.15 -57.25,-53.33 -20.92,-27.2 -33.2,-50.21 -36.85,-69.03l-12.94 -6.27c-1.83,-9.41 -6.05,-21.58 -12.67,-36.51 -6.61,-14.93 -13.86,-29.63 -21.76,-44.11 -7.89,-14.49 -13.84,-28.57 -17.88,-42.24 -4.02,-13.67 -4.36,-23.96 -1.01,-30.86l20.08 -41.41 3.76 -7.76c3.46,1.67 7.72,0.55 12.82,-3.37 5.1,-3.92 8.48,-7.61 10.16,-11.05 4.18,-8.63 10.12,-14.27 17.81,-16.94 7.69,-2.67 12.36,-5.72 14.04,-9.18l22.59 -46.57c6.7,-13.82 12.58,-23.74 17.65,-29.81 5.07,-6.06 10.12,-14.28 15.14,-24.63l2.51 -5.17c4.19,-8.63 12.46,-15.81 24.82,-21.53 12.36,-5.72 23.62,-14.65 33.77,-26.77l108.56 -171.12 36.4 -75.05 51.7 -86.81c5.03,-10.36 9.23,-16.84 12.63,-19.46 3.4,-2.61 7.19,-8.23 11.37,-16.86l13.02 12.71c1.67,-3.45 3.58,-5.19 5.72,-5.22 2.15,-0.03 4.05,-1.76 5.73,-5.22l10.03 -20.7 47.94 -79.05 3.76 -7.77c5.13,-1.78 10.23,-4.62 15.33,-8.55 5.1,-3.92 8.48,-7.61 10.16,-11.05l3.76 -7.76c8.37,-17.25 26.54,-39.34 54.52,-66.26 27.97,-26.93 46.56,-49.88 55.77,-68.85l2.51 -5.18c7.63,-6.96 14.42,-13.26 20.36,-18.9 5.93,-5.65 11.41,-13.64 16.43,-23.99l7.76 3.76c-1.68,3.45 -4.02,4.98 -7.02,4.58 -3,-0.39 -5.34,1.14 -7.02,4.58 -4.18,8.63 -5.41,13.36 -3.68,14.19 3.45,1.68 2.66,7.69 -2.36,18.04l37.02 -23.6 7.53 -15.53 2.51 -5.17 3.77 -7.78c8.47,-8.67 16.34,-13.91 23.62,-15.71 7.26,-1.8 14.25,-9.6 20.94,-23.41l12.94 6.28 30.12 -62.12 2.52 -5.17c4.18,-8.63 9.48,-14.05 15.88,-16.28 6.41,-2.22 12.12,-8.51 17.14,-18.86 13.8,6.7 19.45,12.63 16.94,17.8 -2.51,5.18 -1.13,13.31 4.16,24.4l-22.99 14.42z"/>
  <path class="fil1" d="M9563.66 2474.83c5.96,9.85 7.25,20.29 3.84,31.31 -3.4,11.04 -4.26,21.64 -2.57,31.83 -0.6,13.82 -4.08,23.78 -10.48,29.89 -6.38,6.12 -13.5,13.79 -21.34,23.04 1.69,10.19 1.89,17.91 0.6,23.18 -1.29,5.27 -4.22,11.52 -8.8,18.78 -3.28,1.99 -5.14,8.17 -5.59,18.53 -0.44,10.36 -3.6,21.8 -9.47,34.33 -1.29,5.26 -0.44,10.37 2.54,15.29 2.98,4.92 0.89,16.27 -6.26,34.06 -5.87,12.53 -13.37,26.04 -22.51,40.55l-4.92 2.98 -127.01 56.81 -30.03 11.48c-13.12,7.95 -25.76,13.93 -37.91,17.93 -12.15,4.01 -24.78,9.98 -37.9,17.93l-61.57 20.5 -1.93 7.9 -34.97 14.46c-5.26,-1.29 -7.73,-2.59 -7.42,-3.91 0.32,-1.32 -3.61,0.51 -11.81,5.48l-63.51 28.4 -4.92 2.98 -69.39 35.34 -36.44 12c-8.21,4.97 -12.64,5.97 -13.32,3.02 -0.67,-2.96 -4.28,-2.45 -10.84,1.53l-57.1 27.88 -4.92 2.98c-8.19,4.97 -12.63,5.97 -13.3,3.02 -0.67,-2.96 -4.29,-2.45 -10.85,1.53l-19.67 11.93c-8.19,4.96 -16.98,8.05 -26.35,9.25 -9.37,1.19 -17.68,-0.5 -24.93,-5.07l-43.83 16.47 9.31 -12.37c-7.9,-1.94 -13.49,-1.91 -16.77,0.07 -9.85,5.96 -18.46,8.39 -25.87,7.27 -7.4,-1.12 -14.38,0.31 -20.94,4.29l-39.35 23.85 -8.94 -14.75 -19.68 11.93 -19.67 11.92 -2.99 -4.92 110.69 -67.08 12.31 -7.46 14.75 -8.94 12.3 -7.45 -4.48 -7.37 27.05 -16.41c6.57,-3.98 9.19,-6.13 7.87,-6.45 -1.32,-0.32 -1.33,-3.11 -0.04,-8.38l-7.38 4.48 -7.45 -12.31c-9.85,5.97 -16.9,9.12 -21.18,9.48 -4.27,0.34 -11.33,3.5 -21.16,9.47l-31.98 19.38c-9.84,5.96 -17.15,8.71 -21.91,8.24 -4.77,-0.48 -12.07,2.27 -21.91,8.23l-12.3 7.45 -49.64 40.18 10.43 17.23 -19.67 11.92c-18.04,10.94 -29.17,22.16 -33.4,33.7 -4.22,11.52 -12.9,21.27 -26.02,29.22l-4.92 2.99 1.56 19.22 7.45 12.3 -11.85 -2.91c-0.64,2.63 -0.88,5.02 -0.7,7.16 0.17,2.14 -0.06,4.52 -0.71,7.16l-1.93 7.9c-9.85,5.96 -19.53,8.47 -29.07,7.53 -9.55,-0.94 -19.41,-0.57 -29.6,1.12l-4.92 2.99c-13.12,7.95 -27.58,9.98 -43.38,6.11l-0.45 10.36 -81.25 32.43c-6.55,3.98 -10.49,5.8 -11.81,5.48 -1.32,-0.32 -4.46,-4.58 -9.43,-12.78 -3.98,-6.57 -5.23,-11.42 -3.76,-14.54 1.46,-3.13 1.85,-8.97 1.16,-17.52 8.2,-4.98 12.46,-8.12 12.79,-9.44 0.32,-1.32 0.14,-6.24 -0.56,-14.79l-1.57 -19.23c-9.94,-16.4 -16.3,-41.69 -19.09,-75.88 -2.79,-34.19 -0.6,-60.18 6.56,-77.97l-7.45 -12.3c3.57,-8.9 6.64,-21.4 9.2,-37.53 2.56,-16.13 4.46,-32.41 5.7,-48.86 1.25,-16.45 3.89,-31.51 7.94,-45.18 4.04,-13.66 9.35,-22.48 15.91,-26.46l39.36 -23.86 7.37 -4.47c1.99,3.28 6.19,4.66 12.6,4.13 6.41,-0.52 11.25,-1.78 14.54,-3.76 8.19,-4.97 16.24,-6.49 24.16,-4.55 7.9,1.94 13.49,1.91 16.77,-0.07l44.27 -26.83c13.12,-7.96 23.46,-13.1 31.02,-15.44 7.55,-2.34 16.24,-6.48 26.08,-12.44l4.92 -2.98c8.2,-4.97 19.05,-6.51 32.54,-4.59 13.49,1.91 27.79,0.53 42.9,-4.14l184.11 -84.68 71.33 -43.24 90.56 -44.79c9.85,-5.96 16.9,-9.12 21.17,-9.47 4.28,-0.35 10.51,-3 18.71,-7.98l4.02 17.74c3.28,-1.99 5.83,-2.41 7.64,-1.27 1.81,1.15 4.36,0.72 7.63,-1.26l19.68 -11.93 83.19 -40.33 7.37 -4.48c5.27,1.29 11.11,1.68 17.52,1.16 6.41,-0.52 11.25,-1.78 14.54,-3.76l7.37 -4.48c16.4,-9.94 43.66,-18.61 81.77,-26.01 38.12,-7.41 66.19,-16.58 84.23,-27.51l4.92 -2.98c10.19,-1.7 19.31,-3.3 27.36,-4.81 8.05,-1.52 16.99,-5.26 26.83,-11.23l4.47 7.38c-3.28,1.99 -6.07,2 -8.38,0.04 -2.31,-1.96 -5.1,-1.95 -8.38,0.04 -8.19,4.97 -11.8,8.27 -10.8,9.92 1.99,3.28 -1.94,7.9 -11.78,13.86l43.89 0.3 14.76 -8.94 4.92 -2.99 7.38 -4.48c11.83,-2.68 21.29,-2.8 28.36,-0.36 7.08,2.44 17.18,-0.32 30.3,-8.27l7.45 12.3 59.03 -35.79 4.92 -2.98c8.19,-4.97 15.58,-6.65 22.18,-5.04 6.58,1.62 14.79,-0.56 24.63,-6.52 7.95,13.12 9.47,21.17 4.55,24.15 -4.92,2.98 -8.17,10.56 -9.76,22.74l-27.13 -0.38z"/>
  <path class="fil1" d="M4534.24 1174.8c-10.36,5.02 -17.1,13.08 -20.24,24.19 -3.13,11.11 -8.18,20.48 -15.12,28.12 -7.01,11.92 -9.49,22.18 -7.44,30.79 2.04,8.6 3.84,18.91 5.41,30.93 -6.95,7.63 -11.32,14.01 -13.09,19.14 -1.78,5.13 -2.72,11.97 -2.82,20.55 1.68,3.45 -0.11,9.65 -5.36,18.59 -5.25,8.94 -8.82,20.26 -10.7,33.96 -1.78,5.13 -5.26,8.94 -10.43,11.45 -5.18,2.52 -9.59,13.18 -13.26,32 -1.88,13.7 -2.91,29.13 -3.12,46.27l2.51 5.18 75.77 116.69 18.99 25.96c6.69,13.8 14.05,25.68 22.08,35.64 8.02,9.95 15.39,21.84 22.07,35.64l40.55 50.66 -2.66 7.69 21.49 31.14c5.13,1.77 7.9,2.02 8.36,0.74 0.44,-1.28 2.75,2.39 6.94,11.02l37.89 58.34 2.51 5.18 39.06 67.36 24.08 29.88c4.19,8.63 7.36,11.88 9.53,9.76 2.17,-2.11 4.93,0.28 8.27,7.17l32.79 54.43 2.51 5.17c4.18,8.63 7.35,11.88 9.53,9.76 2.17,-2.12 4.93,0.27 8.27,7.17l10.03 20.7c4.19,8.63 9.88,15.98 17.1,22.08 7.22,6.09 15.12,9.19 23.69,9.29l27.84 37.64 -1.09 -15.45c7.69,2.66 12.37,5.72 14.04,9.17 5.03,10.36 10.95,17.08 17.77,20.16 6.82,3.09 11.91,8.08 15.26,14.98l20.08 41.41 15.53 -7.53 10.03 20.7 10.04 20.7 5.18 -2.52 -56.48 -116.44 -6.28 -12.95 -7.53 -15.53 -6.27 -12.93 7.76 -3.77 -13.81 -28.46c-3.35,-6.91 -4.38,-10.13 -3.1,-9.69 1.28,0.44 2.81,-1.9 4.58,-7.02l3.76 7.76 12.95 -6.27c5.02,10.35 9.23,16.84 12.63,19.45 3.39,2.62 7.61,9.1 12.62,19.45l16.32 33.65c5.03,10.35 9.66,16.62 13.92,18.82 4.26,2.19 8.91,8.46 13.92,18.81l6.27 12.94 19.85 60.7 -18.12 8.79 10.04 20.7c9.2,18.98 12.44,34.45 9.73,46.43 -2.72,11.97 -0.73,24.86 5.97,38.67l2.51 5.17 -11.77 15.3 -12.93 6.28 11.52 4c-0.88,2.55 -1.99,4.69 -3.29,6.39 -1.31,1.7 -2.4,3.83 -3.29,6.39l-2.66 7.69c5.02,10.35 11.79,17.72 20.31,22.11 8.53,4.4 16.6,10.07 24.24,17.02l2.51 5.18c6.7,13.8 17.72,23.36 33.1,28.7l-5.25 8.94 50.6 71.37c3.34,6.9 5.66,10.58 6.94,11.02 1.28,0.44 6.24,-1.43 14.85,-5.61 6.91,-3.35 10.59,-6.73 11.07,-10.16 0.47,-3.42 3.31,-8.54 8.55,-15.33 -4.19,-8.63 -6.06,-13.58 -5.61,-14.86 0.44,-1.28 3.28,-5.32 8.5,-12.12l11.77 -15.3c17.24,-8.37 36.34,-26.14 57.25,-53.33 20.91,-27.2 33.19,-50.21 36.84,-69.02l12.94 -6.28c1.83,-9.41 6.05,-21.58 12.67,-36.51 6.61,-14.93 13.86,-29.63 21.76,-44.11 7.89,-14.49 13.84,-28.57 17.88,-42.24 4.02,-13.67 4.37,-23.96 1.02,-30.86l-20.09 -41.41 -3.76 -7.76c-3.46,1.67 -7.72,0.55 -12.82,-3.37 -5.1,-3.92 -8.48,-7.6 -10.16,-11.05 -4.18,-8.63 -10.12,-14.27 -17.81,-16.94 -7.68,-2.66 -12.36,-5.72 -14.03,-9.18l-22.6 -46.57c-6.7,-13.82 -12.58,-23.74 -17.65,-29.81 -5.07,-6.06 -10.12,-14.28 -15.14,-24.63l-2.51 -5.17c-4.18,-8.63 -12.46,-15.81 -24.82,-21.53 -12.36,-5.72 -23.62,-14.65 -33.76,-26.77l-108.57 -171.12 -36.4 -75.05 -51.7 -86.81c-5.03,-10.36 -9.23,-16.84 -12.63,-19.46 -3.39,-2.61 -7.18,-8.23 -11.37,-16.86l-13.01 12.71c-1.68,-3.45 -3.58,-5.19 -5.73,-5.22 -2.14,-0.03 -4.05,-1.76 -5.72,-5.22l-10.04 -20.7 -47.94 -79.05 -3.76 -7.77c-5.13,-1.78 -10.23,-4.62 -15.33,-8.55 -5.1,-3.92 -8.48,-7.6 -10.15,-11.05l-3.77 -7.76c-8.37,-17.25 -26.54,-39.34 -54.51,-66.26 -27.98,-26.93 -46.57,-49.88 -55.77,-68.85l-2.52 -5.17c-7.63,-6.97 -14.42,-13.27 -20.35,-18.91 -5.94,-5.65 -11.42,-13.64 -16.43,-23.99l-7.77 3.76c1.68,3.45 4.02,4.98 7.02,4.58 3,-0.39 5.35,1.14 7.02,4.58 4.19,8.63 5.41,13.36 3.69,14.19 -3.46,1.68 -2.67,7.69 2.36,18.04l-37.02 -23.6 -7.53 -15.53 -2.51 -5.17 -3.77 -7.77c-8.46,-8.68 -16.34,-13.91 -23.62,-15.72 -7.26,-1.8 -14.24,-9.6 -20.94,-23.41l-12.94 6.28 -30.12 -62.11 -2.51 -5.18c-4.19,-8.63 -9.48,-14.05 -15.89,-16.28 -6.4,-2.22 -12.11,-8.5 -17.14,-18.86 -13.8,6.7 -19.45,12.63 -16.94,17.8 2.52,5.18 1.13,13.31 -4.15,24.4l22.98 14.43z"/>
  <path class="fil1" d="M3209.42 2474.83c-5.96,9.85 -7.25,20.29 -3.84,31.31 3.4,11.04 4.26,21.64 2.57,31.83 0.6,13.82 4.09,23.78 10.48,29.89 6.38,6.12 13.5,13.79 21.35,23.04 -1.7,10.19 -1.9,17.91 -0.6,23.18 1.3,5.27 4.22,11.52 8.8,18.78 3.28,1.99 5.14,8.17 5.59,18.53 0.45,10.36 3.6,21.8 9.47,34.33 1.29,5.26 0.44,10.37 -2.54,15.29 -2.99,4.92 -0.9,16.27 6.25,34.06 5.87,12.53 13.37,26.04 22.51,40.55l4.92 2.98 127.01 56.81 30.04 11.48c13.11,7.95 25.75,13.93 37.9,17.93 12.16,4.01 24.78,9.98 37.9,17.93l61.57 20.5 1.94 7.9 34.96 14.46c5.27,-1.29 7.74,-2.59 7.42,-3.91 -0.32,-1.32 3.61,0.51 11.81,5.48l63.51 28.4 4.92 2.98 69.39 35.34 36.45 12c8.2,4.97 12.63,5.97 13.31,3.02 0.67,-2.96 4.29,-2.45 10.85,1.53l57.09 27.88 4.92 2.98c8.19,4.97 12.63,5.97 13.3,3.02 0.68,-2.96 4.29,-2.45 10.85,1.53l19.67 11.93c8.2,4.96 16.98,8.05 26.36,9.25 9.37,1.19 17.67,-0.5 24.92,-5.07l43.83 16.47 -9.31 -12.37c7.9,-1.94 13.49,-1.91 16.77,0.07 9.85,5.96 18.47,8.39 25.87,7.27 7.4,-1.12 14.38,0.31 20.94,4.29l39.35 23.85 8.95 -14.75 19.67 11.93 19.67 11.92 2.99 -4.92 -110.69 -67.08 -12.3 -7.46 -14.76 -8.94 -12.29 -7.45 4.47 -7.37 -27.05 -16.41c-6.56,-3.98 -9.19,-6.13 -7.87,-6.45 1.32,-0.32 1.33,-3.11 0.04,-8.38l7.38 4.48 7.45 -12.31c9.85,5.97 16.9,9.12 21.18,9.48 4.27,0.34 11.33,3.5 21.16,9.47l31.98 19.38c9.85,5.96 17.15,8.71 21.91,8.24 4.77,-0.48 12.07,2.27 21.92,8.23l12.29 7.45 49.65 40.18 -10.44 17.23 19.67 11.92c18.05,10.94 29.17,22.16 33.4,33.7 4.22,11.52 12.9,21.27 26.02,29.22l4.92 2.99 -1.56 19.22 -7.45 12.3 11.85 -2.91c0.65,2.63 0.88,5.02 0.7,7.16 -0.17,2.14 0.06,4.52 0.71,7.16l1.94 7.9c9.84,5.96 19.52,8.47 29.07,7.53 9.55,-0.94 19.41,-0.57 29.59,1.12l4.92 2.99c13.12,7.95 27.58,9.98 43.38,6.11l0.45 10.36 81.25 32.43c6.56,3.98 10.49,5.8 11.81,5.48 1.32,-0.32 4.46,-4.58 9.43,-12.78 3.98,-6.57 5.23,-11.42 3.76,-14.54 -1.46,-3.13 -1.85,-8.97 -1.15,-17.52 -8.21,-4.98 -12.47,-8.12 -12.8,-9.44 -0.32,-1.32 -0.14,-6.24 0.56,-14.79l1.57 -19.23c9.94,-16.4 16.31,-41.69 19.09,-75.88 2.79,-34.19 0.6,-60.18 -6.56,-77.97l7.45 -12.3c-3.57,-8.9 -6.64,-21.4 -9.2,-37.53 -2.56,-16.13 -4.46,-32.41 -5.7,-48.86 -1.25,-16.45 -3.89,-31.51 -7.93,-45.18 -4.05,-13.66 -9.36,-22.48 -15.92,-26.46l-39.35 -23.86 -7.38 -4.47c-1.99,3.28 -6.18,4.66 -12.6,4.13 -6.41,-0.52 -11.25,-1.78 -14.53,-3.76 -8.2,-4.97 -16.25,-6.49 -24.17,-4.55 -7.9,1.94 -13.48,1.91 -16.77,-0.07l-44.27 -26.83c-13.12,-7.96 -23.45,-13.1 -31.01,-15.44 -7.55,-2.34 -16.25,-6.48 -26.09,-12.44l-4.92 -2.98c-8.2,-4.97 -19.05,-6.51 -32.54,-4.59 -13.49,1.91 -27.78,0.53 -42.89,-4.14l-184.11 -84.68 -71.33 -43.24 -90.56 -44.79c-9.85,-5.96 -16.9,-9.12 -21.18,-9.47 -4.27,-0.35 -10.5,-3 -18.71,-7.98l-4.02 17.74c-3.28,-1.99 -5.83,-2.41 -7.64,-1.27 -1.81,1.15 -4.36,0.72 -7.63,-1.26l-19.68 -11.93 -83.18 -40.33 -7.38 -4.48c-5.27,1.29 -11.11,1.68 -17.52,1.16 -6.41,-0.52 -11.25,-1.78 -14.53,-3.76l-7.38 -4.48c-16.4,-9.94 -43.66,-18.61 -81.77,-26.01 -38.12,-7.41 -66.19,-16.58 -84.22,-27.51l-4.92 -2.98c-10.2,-1.7 -19.31,-3.3 -27.36,-4.81 -8.05,-1.52 -16.99,-5.26 -26.84,-11.23l-4.47 7.38c3.28,1.99 6.07,2 8.38,0.04 2.31,-1.96 5.11,-1.95 8.38,0.04 8.2,4.97 11.8,8.27 10.81,9.92 -1.99,3.28 1.93,7.9 11.78,13.86l-43.9 0.3 -14.75 -8.94 -4.92 -2.99 -7.39 -4.48c-11.82,-2.68 -21.28,-2.8 -28.36,-0.36 -7.08,2.44 -17.18,-0.32 -30.29,-8.27l-7.45 12.3 -59.03 -35.79 -4.93 -2.98c-8.19,-4.97 -15.58,-6.65 -22.17,-5.04 -6.59,1.62 -14.8,-0.56 -24.64,-6.52 -7.95,13.12 -9.47,21.17 -4.55,24.15 4.92,2.98 8.18,10.56 9.76,22.74l27.13 -0.38z"/>
 </g>
</svg>
