<?xml version="1.0" encoding="UTF-8"?>
<!DOCTYPE svg PUBLIC "-//W3C//DTD SVG 1.1//EN" "http://www.w3.org/Graphics/SVG/1.1/DTD/svg11.dtd">
<!-- Creator: CorelDRAW 2020 (64 Bit) -->
<svg xmlns="http://www.w3.org/2000/svg" xml:space="preserve" width="127.906mm" height="76.9631mm" version="1.1" style="shape-rendering:geometricPrecision; text-rendering:geometricPrecision; image-rendering:optimizeQuality; fill-rule:evenodd; clip-rule:evenodd"
viewBox="0 0 11392.73 6855.17"
 xmlns:xlink="http://www.w3.org/1999/xlink"
 xmlns:xodm="http://www.corel.com/coreldraw/odm/2003">
 <defs>
  <style type="text/css">
   <![CDATA[
    .fil1 {fill:#3E4095}
    .fil3 {fill:#FFCC29;fill-rule:nonzero}
    .fil0 {fill:#3E4095;fill-rule:nonzero}
    .fil2 {fill:#201E1E;fill-rule:nonzero}
   ]]>
  </style>
 </defs>
 <g id="Camada_x0020_1">
  <metadata id="CorelCorpID_0Corel-Layer"/>
  <path class="fil0" d="M1512.32 6564.47c0,19.5 -14.71,40.68 -43.94,63.58 -55.54,43.17 -117.89,64.83 -186.73,64.83 -83.4,0 -154.41,-29.38 -213.04,-88.03 -58.64,-58.64 -88.04,-129.65 -88.04,-213.03 0,-83.24 29.4,-154.25 88.04,-212.88 58.63,-58.64 129.64,-88.04 213.04,-88.04 68.84,0 131.18,21.67 186.73,64.83 29.23,22.9 43.94,44.1 43.94,63.43 0,15.64 -6.04,29.4 -17.8,41.31 -11.91,11.92 -25.69,17.8 -41.31,17.8 -13,0 -26.45,-5.88 -40.38,-17.64 -3.09,-3.09 -9.12,-8.35 -18.1,-15.78 -32.64,-25.69 -70.39,-38.52 -113.08,-38.52 -51.52,0 -95.31,18.1 -131.35,54.31 -36.2,36.05 -54.31,79.83 -54.31,131.19 0,51.52 18.11,95.31 54.31,131.34 36.05,36.21 79.83,54.31 131.35,54.31 42.54,0 80.29,-12.84 113.08,-38.53 3.4,-3.08 9.43,-8.35 18.1,-15.92 13.93,-11.77 27.38,-17.64 40.38,-17.64 15.62,0 29.4,6.03 41.31,17.94 11.76,11.93 17.8,25.69 17.8,41.16zm455 -11.76c0,8.81 -2.94,18.87 -8.66,30.17 -17.18,33.42 -43.79,60.18 -80.15,80.45 -34.81,19.64 -71.63,29.54 -110.3,29.54 -60.97,0 -112.94,-21.35 -155.64,-64.19 -42.85,-42.72 -64.21,-94.69 -64.21,-155.8 0,-60.95 21.36,-112.94 64.21,-155.63 42.7,-42.86 94.67,-64.2 155.64,-64.2 29.87,0 59.71,6.81 89.88,20.42 30.01,13.47 55.08,31.56 75.34,53.84 21.97,24.29 33.13,47.19 33.13,68.53 0,19.66 -9.59,35.12 -28.78,46.1l-215.98 124.39c14.7,7.42 30.16,11.14 46.41,11.14 25.06,0 45.78,-7.13 62.34,-21.2 11.29,-12.84 22.59,-25.52 33.58,-38.21 15.15,-14.86 29.38,-22.43 42.85,-22.43 15.62,0 29.71,5.72 41.93,16.86 12.22,11.14 18.41,24.59 18.41,40.22zm-152.08 -173.43c-14.7,-7.28 -30.32,-10.82 -46.87,-10.82 -27.7,0 -51.52,9.43 -71.79,28.3 -20.11,18.87 -30.94,42.25 -32.33,69.93l150.99 -87.41zm555.86 255.88c0,16.87 -5.41,30.64 -16.24,41.47 -10.84,10.82 -24.6,16.24 -41.47,16.24 -16.85,0 -30.63,-5.42 -41.45,-16.24 -10.83,-10.83 -16.26,-24.6 -16.26,-41.47l0 -216.27c0,-13.92 -4.94,-25.85 -14.7,-35.58 -9.89,-9.9 -21.81,-14.85 -35.74,-14.85 -13.92,0 -25.83,4.94 -35.74,14.85 -9.74,9.74 -14.7,21.66 -14.7,35.58l0 216.27c0,16.87 -5.42,30.64 -16.24,41.47 -10.83,10.82 -24.6,16.24 -41.47,16.24 -16.86,0 -30.63,-5.42 -41.45,-16.24 -10.83,-10.83 -16.25,-24.6 -16.25,-41.47l0 -324.41c0,-16.87 5.42,-30.63 16.25,-41.47 10.82,-10.83 24.59,-16.24 41.45,-16.24 16.1,0 29.39,4.94 40.07,14.85 21.51,-9.9 44.25,-14.85 68.07,-14.85 45.96,0 85.1,16.09 117.43,48.26 32.33,32.19 48.42,71.33 48.42,117.27l0 216.59zm383.07 -25.22c0,27.85 -11.77,49.35 -35.28,64.2 -19.64,12.53 -44.39,18.72 -73.95,18.72 -38.36,0 -71.17,-13.46 -98.25,-40.54 -27.07,-27.08 -40.53,-59.86 -40.53,-98.24l0 -185.64 -23.37 0c-16.85,0 -30.63,-5.42 -41.45,-16.26 -10.83,-10.82 -16.25,-24.6 -16.25,-41.45 0,-16.87 5.42,-30.63 16.25,-41.47 10.82,-10.83 24.6,-16.24 41.45,-16.24l23.37 0 0 -104.44c0,-16.85 5.41,-30.63 16.24,-41.45 10.84,-10.84 24.6,-16.26 41.47,-16.26 16.85,0 30.62,5.42 41.45,16.26 10.84,10.82 16.24,24.6 16.24,41.45l0 104.44 23.37 0c16.86,0 30.64,5.41 41.46,16.24 10.83,10.84 16.25,24.6 16.25,41.47 0,16.85 -5.42,30.63 -16.25,41.45 -10.82,10.84 -24.6,16.26 -41.46,16.26l-23.37 0 0 185.64c0,15.62 7.75,23.36 23.37,23.36 4.34,0 13.16,-4.79 26.15,-14.55 13.15,-9.74 24.74,-14.55 34.81,-14.55 14.85,0 26.92,6.81 36.05,20.42 8.19,12.07 12.22,25.85 12.22,41.15zm339.89 -256.97c0,15.62 -6.17,28.93 -18.39,40.06 -12.23,11.29 -26.3,16.87 -42.09,16.87 -14.39,0 -28.32,-6.97 -41.47,-20.73 -13.15,-13.77 -22.27,-20.73 -27.07,-20.73 -15.63,0 -23.36,7.73 -23.36,23.35l0 243.35c0,16.87 -5.42,30.64 -16.24,41.47 -10.83,10.82 -24.6,16.24 -41.47,16.24 -16.86,0 -30.63,-5.42 -41.45,-16.24 -10.83,-10.83 -16.25,-24.6 -16.25,-41.47l0 -324.41c0,-16.87 5.42,-30.63 16.25,-41.47 10.82,-10.83 24.59,-16.24 41.45,-16.24 12.23,0 23.06,3.09 32.34,9.12 15.62,-6.03 31.87,-9.12 48.73,-9.12 24.44,0 47.65,6.33 69.63,18.87 21.81,12.69 38.67,29.54 50.43,50.74 6.03,10.83 8.96,20.89 8.96,30.32zm475.9 119.9c0,61.42 -21.35,113.4 -64.05,155.95 -42.54,42.7 -94.53,64.05 -155.78,64.05 -61.42,0 -113.41,-21.35 -155.95,-64.05 -42.7,-42.54 -64.05,-94.52 -64.05,-155.95 0,-61.26 21.35,-113.24 64.05,-155.79 42.54,-42.7 94.53,-64.04 155.95,-64.04 61.25,0 113.24,21.34 155.78,64.04 42.7,42.56 64.05,94.53 64.05,155.79zm-115.41 0c0,-28.93 -10.21,-53.68 -30.48,-73.95 -20.27,-20.26 -45.03,-30.47 -73.95,-30.47 -29.09,0 -53.84,10.21 -74.12,30.47 -20.25,20.26 -30.48,45.02 -30.48,73.95 0,29.09 10.23,53.83 30.48,74.11 20.27,20.27 45.03,30.48 74.12,30.48 28.92,0 53.67,-10.21 73.95,-30.48 20.27,-20.27 30.48,-45.02 30.48,-74.11zm793.35 162.29c0,16.87 -5.42,30.64 -16.26,41.47 -10.82,10.82 -24.6,16.24 -41.45,16.24 -24.3,0 -41.47,-9.9 -51.52,-29.86 -34.19,19.95 -71.02,29.86 -110.63,29.86 -61.11,0 -113.08,-21.35 -155.78,-64.19 -42.85,-42.72 -64.21,-94.69 -64.21,-155.8 0,-60.95 21.36,-112.94 64.21,-155.63 42.7,-42.86 94.67,-64.2 155.64,-64.2 37.28,0 72.09,8.82 104.58,26.3l0 -130.74c0,-16.85 5.42,-30.63 16.24,-41.45 10.84,-10.84 24.6,-16.26 41.47,-16.26 16.85,0 30.63,5.42 41.45,16.26 10.83,10.82 16.26,24.6 16.26,41.45l0 486.56zm-115.42 -162.29c0,-28.93 -10.22,-53.68 -30.48,-73.95 -20.26,-20.26 -45.03,-30.47 -73.96,-30.47 -29.08,0 -53.83,10.21 -74.11,30.47 -20.26,20.26 -30.47,45.02 -30.47,73.95 0,29.09 10.21,53.83 30.47,74.11 20.27,20.27 45.03,30.48 74.11,30.48 28.93,0 53.69,-10.21 73.96,-30.48 20.26,-20.27 30.48,-45.02 30.48,-74.11zm606.31 79.83c0,8.81 -2.94,18.87 -8.66,30.17 -17.18,33.42 -43.79,60.18 -80.15,80.45 -34.8,19.64 -71.63,29.54 -110.3,29.54 -60.96,0 -112.94,-21.35 -155.64,-64.19 -42.85,-42.72 -64.21,-94.69 -64.21,-155.8 0,-60.95 21.36,-112.94 64.21,-155.63 42.7,-42.86 94.68,-64.2 155.64,-64.2 29.87,0 59.71,6.81 89.89,20.42 30,13.47 55.07,31.56 75.33,53.84 21.97,24.29 33.13,47.19 33.13,68.53 0,19.66 -9.59,35.12 -28.78,46.1l-215.98 124.39c14.7,7.42 30.17,11.14 46.41,11.14 25.06,0 45.79,-7.13 62.34,-21.2 11.29,-12.84 22.59,-25.52 33.58,-38.21 15.15,-14.86 29.39,-22.43 42.85,-22.43 15.62,0 29.71,5.72 41.93,16.86 12.22,11.14 18.41,24.59 18.41,40.22zm-152.08 -173.43c-14.7,-7.28 -30.32,-10.82 -46.87,-10.82 -27.7,0 -51.52,9.43 -71.79,28.3 -20.11,18.87 -30.94,42.25 -32.33,69.93l150.99 -87.41zm811.76 -230.68c0,16.87 -5.41,30.63 -16.24,41.47 -10.84,10.82 -24.6,16.24 -41.46,16.24l-212.57 0 0 127.95 158.56 0c16.87,0 30.64,5.41 41.47,16.24 10.83,10.84 16.24,24.6 16.24,41.47 0,16.85 -5.41,30.63 -16.24,41.45 -10.83,10.83 -24.6,16.26 -41.47,16.26l-158.56 0 0 128.09 212.57 0c16.86,0 30.62,5.42 41.46,16.24 10.83,10.83 16.24,24.6 16.24,41.47 0,16.85 -5.41,30.63 -16.4,41.45 -10.82,10.83 -24.74,16.26 -41.61,16.26l-269.96 -0.32c-15.47,0 -28.94,-5.87 -40.38,-17.32 -11.6,-11.61 -17.32,-25.06 -17.32,-40.38l0 -486.56c0,-15.47 5.73,-28.93 17.32,-40.37 11.45,-11.61 24.91,-17.34 40.38,-17.34l270.28 0c16.86,0 30.62,5.42 41.46,16.26 10.83,10.82 16.24,24.6 16.24,41.45zm476.06 486.56c0,16.87 -5.42,30.64 -16.26,41.47 -10.82,10.82 -24.6,16.24 -41.45,16.24 -24.3,0 -41.47,-9.9 -51.52,-29.86 -34.19,19.95 -71.02,29.86 -110.63,29.86 -61.11,0 -113.08,-21.35 -155.78,-64.19 -42.85,-42.72 -64.21,-94.69 -64.21,-155.8 0,-60.95 21.36,-112.94 64.21,-155.63 42.7,-42.86 94.67,-64.2 155.64,-64.2 37.28,0 72.09,8.82 104.58,26.3l0 -130.74c0,-16.85 5.42,-30.63 16.24,-41.45 10.84,-10.84 24.6,-16.26 41.47,-16.26 16.85,0 30.63,5.42 41.45,16.26 10.83,10.82 16.26,24.6 16.26,41.45l0 486.56zm-115.42 -162.29c0,-28.93 -10.22,-53.68 -30.48,-73.95 -20.26,-20.26 -45.03,-30.47 -73.96,-30.47 -29.08,0 -53.83,10.21 -74.11,30.47 -20.26,20.26 -30.47,45.02 -30.47,73.95 0,29.09 10.21,53.83 30.47,74.11 20.27,20.27 45.03,30.48 74.11,30.48 28.93,0 53.69,-10.21 73.96,-30.48 20.26,-20.27 30.48,-45.02 30.48,-74.11zm537.15 -162.13l0 216.59c0,45.94 -16.1,85.08 -48.43,117.26 -32.33,32.17 -71.48,48.27 -117.42,48.27 -45.95,0 -85.09,-16.1 -117.43,-48.27 -32.33,-32.18 -48.41,-71.32 -48.41,-117.26l0 -216.59c0,-16.87 5.42,-30.63 16.24,-41.47 10.83,-10.83 24.6,-16.24 41.46,-16.24 16.86,0 30.64,5.41 41.46,16.24 10.83,10.84 16.25,24.6 16.25,41.47l0 216.28c0,13.92 4.95,25.83 14.7,35.57 9.9,9.9 21.81,14.86 35.74,14.86 13.92,0 25.83,-4.95 35.74,-14.86 9.75,-9.74 14.7,-21.65 14.7,-35.57l0 -216.28c0,-16.87 5.42,-30.63 16.24,-41.47 10.84,-10.83 24.6,-16.24 41.47,-16.24 16.87,0 30.63,5.41 41.45,16.24 10.84,10.84 16.26,24.6 16.26,41.47zm447.27 46.87c0,15.62 -5.88,29.39 -17.8,41.45 -11.91,12.08 -25.68,17.96 -41.3,17.96 -8.82,0 -24.91,-8.04 -48.28,-24.29 -23.35,-16.25 -45.33,-24.28 -65.89,-24.28 -29.09,0 -53.84,10.21 -74.12,30.47 -20.25,20.26 -30.48,45.02 -30.48,73.95 0,29.09 10.23,53.83 30.48,74.11 20.27,20.27 45.03,30.48 74.12,30.48 20.42,0 42.23,-8.05 65.58,-24.13 23.21,-16.1 39.3,-24.15 48.28,-24.15 15.62,0 29.38,6.05 41.15,17.8 11.91,11.91 17.94,25.69 17.94,41.31 0,13.31 -6.03,26.76 -18.09,40.38 -17.79,19.95 -41.31,35.88 -70.54,47.64 -28,10.97 -56.01,16.55 -84.47,16.55 -60.96,0 -112.94,-21.35 -155.63,-64.19 -42.86,-42.72 -64.21,-94.69 -64.21,-155.8 0,-60.95 21.35,-112.94 64.21,-155.63 42.69,-42.86 94.67,-64.2 155.63,-64.2 28,0 56.01,5.72 84.47,17.01 29.7,11.77 53.37,27.39 71.01,47.19 11.91,13.62 17.95,27.07 17.95,40.38zm367.89 277.54c0,16.87 -5.41,30.64 -16.25,41.47 -10.83,10.82 -24.6,16.24 -41.45,16.24 -15.78,0 -29.24,-4.8 -40.08,-14.39 -18.41,9.59 -41.14,14.39 -68.07,14.39 -46.56,0 -85.4,-12.67 -116.03,-38.21 -33.26,-27.38 -49.82,-63.89 -49.82,-109.69 0,-45.63 16.56,-82.15 49.82,-109.53 30.63,-25.53 69.31,-38.21 116.03,-38.21 18.72,0 35.59,2.48 50.44,7.27l0 -3.56c0,-14.08 -4.95,-25.99 -14.85,-35.74 -9.75,-9.9 -21.67,-14.86 -35.59,-14.86 -10.05,0 -23.35,6.04 -39.6,17.96 -16.41,11.91 -30.78,17.79 -43.01,17.79 -13.61,0 -25.69,-4.34 -36.05,-13 -10.98,-9.12 -16.56,-20.27 -16.56,-33.57 0,-12.37 6.04,-25.06 18.1,-37.75 30.49,-32.49 69.48,-48.73 117.12,-48.73 45.95,0 85.1,16.09 117.43,48.42 32.33,32.33 48.42,71.47 48.42,117.43l0 216.27zm-115.41 -90.19c0,-13.92 -4.95,-25.83 -14.71,-35.58 -9.9,-9.9 -21.81,-14.85 -35.74,-14.85 -13.92,0 -25.83,4.94 -35.74,14.85 -9.75,9.75 -14.7,21.66 -14.7,35.58 0,14.08 4.94,26 14.7,35.74 9.9,9.9 21.81,14.85 35.74,14.85 13.92,0 25.84,-4.94 35.74,-14.85 9.75,-9.74 14.71,-21.65 14.71,-35.74zm562.52 -187.35c0,15.62 -5.88,29.39 -17.8,41.45 -11.91,12.08 -25.68,17.96 -41.3,17.96 -8.82,0 -24.91,-8.04 -48.28,-24.29 -23.35,-16.25 -45.33,-24.28 -65.89,-24.28 -29.09,0 -53.84,10.21 -74.12,30.47 -20.25,20.26 -30.48,45.02 -30.48,73.95 0,29.09 10.23,53.83 30.48,74.11 20.27,20.27 45.03,30.48 74.12,30.48 20.42,0 42.23,-8.05 65.58,-24.13 23.21,-16.1 39.3,-24.15 48.28,-24.15 15.62,0 29.38,6.05 41.15,17.96 11.91,11.75 17.94,25.53 17.94,41.15 0,22.43 -16.24,44.55 -48.73,66.37 9.59,19.49 14.39,40.07 14.39,61.73 0,38.37 -13.46,71.18 -40.54,98.25 -27.08,27.08 -59.71,40.53 -98.24,40.53 -24.28,0 -47.5,-6.19 -69.63,-18.71 -23.04,-12.84 -39.91,-29.7 -50.73,-50.9 -5.73,-10.99 -8.68,-21.2 -8.68,-30.32 0,-29.56 20.11,-44.42 60.5,-44.42 14.23,0 28,4.96 41.31,14.55 13.31,9.59 22.43,14.38 27.23,14.38 15.62,0 23.36,-7.89 23.36,-23.51 0,-15.63 -7.89,-23.36 -23.84,-23.36 -60.95,0 -112.78,-21.35 -155.48,-64.19 -42.54,-42.72 -63.89,-94.69 -63.89,-155.8 0,-60.95 21.35,-112.94 64.21,-155.63 42.69,-42.86 94.67,-64.2 155.63,-64.2 28.15,0 56.31,5.72 84.47,17.01 29.54,11.77 53.21,27.39 71.01,47.19 11.91,13.46 17.95,26.92 17.95,40.38zm386.45 -184.25c0,26.29 -12.67,47.8 -37.89,64.51 -22.29,15.01 -47.19,22.43 -74.58,22.43 -20.42,0 -40.06,-5.72 -58.8,-17 -2.32,-1.7 -18.87,-14.08 -49.35,-37.14l-4.64 -0.3c-10.37,18.56 -26.3,27.69 -47.64,27.69 -16.1,0 -30.18,-5.26 -42.25,-15.78 -11.91,-10.52 -17.94,-23.97 -17.94,-40.06 0,-26.14 12.52,-47.64 37.9,-64.51 22.29,-14.85 47.18,-22.29 74.57,-22.29 24.29,0 44.09,5.58 59.41,16.87 10.68,8.2 26.61,20.42 47.96,36.51l6.19 0c10.37,-17.79 25.99,-26.77 46.88,-26.77 16.1,0 30.18,5.26 42.08,15.94 12.07,10.52 18.1,23.82 18.1,39.91zm-18.71 461.8c0,16.87 -5.42,30.64 -16.25,41.47 -10.82,10.82 -24.6,16.24 -41.45,16.24 -15.78,0 -29.25,-4.8 -40.07,-14.39 -18.41,9.59 -41.15,14.39 -68.07,14.39 -46.41,0 -85.1,-12.67 -116.04,-38.21 -33.27,-27.38 -49.82,-63.89 -49.82,-109.69 0,-45.63 16.55,-82.15 49.82,-109.53 30.94,-25.53 69.63,-38.21 116.04,-38.21 18.71,0 35.57,2.48 50.43,7.27l0 -3.56c0,-13.76 -4.96,-25.67 -15.01,-35.57 -9.9,-10.06 -21.81,-15.02 -35.42,-15.02 -9.9,0 -23.06,6.04 -39.46,17.96 -16.55,11.91 -30.94,17.79 -43.16,17.79 -13.61,0 -25.68,-4.34 -36.06,-13 -10.97,-9.12 -16.55,-20.27 -16.55,-33.57 0,-12.22 6.03,-24.75 18.11,-37.75 30.01,-32.49 69,-48.73 117.12,-48.73 45.94,0 85.08,16.09 117.41,48.42 32.33,32.33 48.43,71.47 48.43,117.43l0 216.27zm-115.41 -90.19c0,-13.61 -4.96,-25.52 -15.01,-35.42 -9.9,-10.07 -21.81,-15.01 -35.42,-15.01 -13.63,0 -25.54,4.94 -35.44,15.01 -10.05,9.9 -15.01,21.81 -15.01,35.42 0,13.78 4.96,25.69 15.01,35.59 9.9,10.05 21.81,14.99 35.44,14.99 13.61,0 25.52,-4.94 35.42,-14.99 10.05,-9.9 15.01,-21.81 15.01,-35.59zm609.24 -72.09c0,61.42 -21.35,113.4 -64.05,155.95 -42.54,42.7 -94.53,64.05 -155.78,64.05 -61.42,0 -113.41,-21.35 -155.95,-64.05 -42.7,-42.54 -64.05,-94.52 -64.05,-155.95 0,-61.26 21.35,-113.24 64.05,-155.79 42.54,-42.7 94.53,-64.04 155.95,-64.04 61.25,0 113.24,21.34 155.78,64.04 42.7,42.56 64.05,94.53 64.05,155.79zm-115.41 0c0,-28.93 -10.21,-53.68 -30.48,-73.95 -20.27,-20.26 -45.03,-30.47 -73.95,-30.47 -29.09,0 -53.84,10.21 -74.12,30.47 -20.25,20.26 -30.48,45.02 -30.48,73.95 0,29.09 10.23,53.83 30.48,74.11 20.27,20.27 45.03,30.48 74.12,30.48 28.92,0 53.67,-10.21 73.95,-30.48 20.27,-20.27 30.48,-45.02 30.48,-74.11zm504.81 162.29c0,16.87 -5.42,30.64 -16.24,41.47 -10.83,10.82 -24.6,16.24 -41.46,16.24 -16.87,0 -30.64,-5.42 -41.46,-16.24 -10.83,-10.83 -16.25,-24.6 -16.25,-41.47l0 -486.56c0,-16.85 5.42,-30.63 16.25,-41.45 10.82,-10.84 24.59,-16.26 41.46,-16.26 16.86,0 30.63,5.42 41.46,16.26 10.82,10.82 16.24,24.6 16.24,41.45l0 486.56zm439.84 0c0,16.87 -5.41,30.64 -16.25,41.47 -10.83,10.82 -24.59,16.24 -41.46,16.24 -16.85,0 -30.63,-5.42 -41.45,-16.24 -10.84,-10.83 -16.26,-24.6 -16.26,-41.47l0 -216.27c0,-13.92 -4.94,-25.85 -14.7,-35.58 -9.9,-9.9 -21.81,-14.85 -35.74,-14.85 -13.92,0 -25.83,4.94 -35.74,14.85 -9.75,9.74 -14.7,21.66 -14.7,35.58l0 216.27c0,16.87 -5.42,30.64 -16.24,41.47 -10.84,10.82 -24.6,16.24 -41.47,16.24 -16.87,0 -30.63,-5.42 -41.45,-16.24 -10.84,-10.83 -16.26,-24.6 -16.26,-41.47l0 -324.41c0,-16.87 5.42,-30.63 16.26,-41.47 10.82,-10.83 24.58,-16.24 41.45,-16.24 16.1,0 29.39,4.94 40.07,14.85 21.51,-9.9 44.25,-14.85 68.07,-14.85 45.96,0 85.1,16.09 117.43,48.26 32.33,32.19 48.42,71.33 48.42,117.27l0 216.59zm383.07 -461.34c0,15.32 -4.03,29.09 -12.22,41 -9.14,13.78 -21.2,20.58 -36.06,20.58 -10.07,0 -21.65,-4.81 -34.81,-14.55 -13,-9.74 -21.81,-14.55 -26.14,-14.55 -15.62,0 -23.37,11.45 -23.37,34.19l0 12.53 23.37 0c16.85,0 30.63,5.41 41.45,16.24 10.84,10.84 16.26,24.6 16.26,41.47 0,16.85 -5.42,30.63 -16.26,41.45 -10.82,10.84 -24.6,16.26 -41.45,16.26l-23.37 0 0 266.7c0,16.87 -5.41,30.64 -16.24,41.47 -10.83,10.82 -24.6,16.24 -41.45,16.24 -16.87,0 -30.63,-5.42 -41.47,-16.24 -10.83,-10.83 -16.24,-24.6 -16.24,-41.47l0 -266.7 -23.37 0c-16.85,0 -30.63,-5.42 -41.45,-16.26 -10.84,-10.82 -16.26,-24.6 -16.26,-41.45 0,-16.87 5.42,-30.63 16.26,-41.47 10.82,-10.83 24.6,-16.24 41.45,-16.24l23.37 0 0 -23.37c0,-38.51 13.45,-71.16 40.53,-98.24 27.07,-27.07 59.88,-40.54 98.25,-40.54 29.54,0 54.31,6.19 73.95,18.72 23.51,14.86 35.28,36.36 35.28,64.2zm349.93 461.34c0,16.87 -5.41,30.64 -16.24,41.47 -10.84,10.82 -24.6,16.24 -41.45,16.24 -15.78,0 -29.25,-4.8 -40.08,-14.39 -18.41,9.59 -41.14,14.39 -68.08,14.39 -46.56,0 -85.39,-12.67 -116.02,-38.21 -33.27,-27.38 -49.82,-63.89 -49.82,-109.69 0,-45.63 16.55,-82.15 49.82,-109.53 30.63,-25.53 69.31,-38.21 116.02,-38.21 18.73,0 35.59,2.48 50.45,7.27l0 -3.56c0,-14.08 -4.96,-25.99 -14.86,-35.74 -9.74,-9.9 -21.66,-14.86 -35.59,-14.86 -10.05,0 -23.35,6.04 -39.59,17.96 -16.41,11.91 -30.79,17.79 -43.01,17.79 -13.61,0 -25.69,-4.34 -36.06,-13 -10.97,-9.12 -16.55,-20.27 -16.55,-33.57 0,-12.37 6.03,-25.06 18.1,-37.75 30.49,-32.49 69.47,-48.73 117.11,-48.73 45.96,0 85.1,16.09 117.43,48.42 32.34,32.33 48.42,71.47 48.42,117.43l0 216.27zm-115.4 -90.19c0,-13.92 -4.96,-25.83 -14.71,-35.58 -9.9,-9.9 -21.81,-14.85 -35.74,-14.85 -13.92,0 -25.83,4.94 -35.74,14.85 -9.74,9.75 -14.7,21.66 -14.7,35.58 0,14.08 4.95,26 14.7,35.74 9.9,9.9 21.81,14.85 35.74,14.85 13.93,0 25.85,-4.94 35.74,-14.85 9.74,-9.74 14.71,-21.65 14.71,-35.74zm536.98 90.19c0,16.87 -5.41,30.64 -16.24,41.47 -10.84,10.82 -24.6,16.24 -41.47,16.24 -16.85,0 -30.63,-5.42 -41.45,-16.24 -10.84,-10.83 -16.26,-24.6 -16.26,-41.47l0 -216.27c0,-13.92 -4.94,-25.85 -14.7,-35.58 -9.89,-9.9 -21.81,-14.85 -35.74,-14.85 -13.92,0 -25.83,4.94 -35.74,14.85 -9.74,9.74 -14.7,21.66 -14.7,35.58l0 216.27c0,16.87 -5.42,30.64 -16.24,41.47 -10.83,10.82 -24.6,16.24 -41.47,16.24 -16.86,0 -30.63,-5.42 -41.45,-16.24 -10.83,-10.83 -16.25,-24.6 -16.25,-41.47l0 -324.41c0,-16.87 5.42,-30.63 16.25,-41.47 10.82,-10.83 24.59,-16.24 41.45,-16.24 16.1,0 29.39,4.94 40.07,14.85 21.51,-9.9 44.25,-14.85 68.07,-14.85 45.96,0 85.1,16.09 117.43,48.26 32.33,32.19 48.42,71.33 48.42,117.27l0 216.59zm383.07 -25.22c0,27.85 -11.77,49.35 -35.28,64.2 -19.64,12.53 -44.39,18.72 -73.95,18.72 -38.36,0 -71.17,-13.46 -98.25,-40.54 -27.08,-27.08 -40.53,-59.86 -40.53,-98.24l0 -185.64 -23.37 0c-16.85,0 -30.63,-5.42 -41.45,-16.26 -10.83,-10.82 -16.26,-24.6 -16.26,-41.45 0,-16.87 5.42,-30.63 16.26,-41.47 10.82,-10.83 24.6,-16.24 41.45,-16.24l23.37 0 0 -104.44c0,-16.85 5.41,-30.63 16.24,-41.45 10.84,-10.84 24.6,-16.26 41.47,-16.26 16.85,0 30.62,5.42 41.45,16.26 10.84,10.82 16.24,24.6 16.24,41.45l0 104.44 23.37 0c16.85,0 30.63,5.41 41.45,16.24 10.84,10.84 16.26,24.6 16.26,41.47 0,16.85 -5.42,30.63 -16.26,41.45 -10.82,10.84 -24.6,16.26 -41.45,16.26l-23.37 0 0 185.64c0,15.62 7.75,23.36 23.37,23.36 4.34,0 13.16,-4.79 26.15,-14.55 13.15,-9.74 24.74,-14.55 34.8,-14.55 14.86,0 26.92,6.81 36.06,20.42 8.19,12.07 12.22,25.85 12.22,41.15zm201.59 -447.42c0,19.81 -6.97,36.52 -20.89,50.13 -13.92,13.77 -30.94,20.58 -50.74,20.58 -19.96,0 -36.98,-6.81 -50.9,-20.58 -13.92,-13.61 -20.89,-30.32 -20.89,-50.13 0,-19.8 6.97,-36.82 20.89,-50.74 13.92,-13.92 30.94,-20.89 50.9,-20.89 19.8,0 36.82,6.97 50.74,20.89 13.92,13.92 20.89,30.94 20.89,50.74zm-13.92 472.64c0,16.87 -5.42,30.64 -16.26,41.47 -10.82,10.82 -24.58,16.24 -41.45,16.24 -16.87,0 -30.63,-5.42 -41.47,-16.24 -10.82,-10.83 -16.24,-24.6 -16.24,-41.47l0 -324.41c0,-16.87 5.42,-30.63 16.24,-41.47 10.84,-10.83 24.6,-16.24 41.47,-16.24 16.87,0 30.63,5.41 41.45,16.24 10.83,10.84 16.26,24.6 16.26,41.47l0 324.41zm286.52 0c0,16.87 -5.42,30.64 -16.26,41.47 -10.82,10.82 -24.6,16.24 -41.45,16.24 -38.37,0 -71.18,-13.46 -98.25,-40.54 -27.08,-27.08 -40.53,-59.86 -40.53,-98.24l0 -405.49c0,-16.85 5.42,-30.63 16.24,-41.45 10.83,-10.84 24.6,-16.26 41.47,-16.26 16.85,0 30.63,5.42 41.45,16.26 10.83,10.82 16.25,24.6 16.25,41.45l0 405.49c0,15.62 7.74,23.36 23.36,23.36 16.85,0 30.63,5.42 41.45,16.25 10.83,10.82 16.26,24.59 16.26,41.45z"/>
  <path class="fil1" d="M2229.85 4299.31c0,143.23 -48.85,267.05 -146.51,370.89 -244.47,11 -493.11,29.24 -744.46,54.03 -78,-61.62 -133.86,-137.9 -167.55,-229.29 -6.48,-17.48 -9.72,-33.69 -9.72,-48.58 0,-33.05 12.96,-61.55 38.22,-84.22 25.91,-22.68 55.06,-34.34 88.75,-34.34 38.22,0 73.21,23.97 105.59,71.91 49.89,75.8 80.97,119.84 93.28,132.15 49.24,47.94 114.02,71.91 195.64,71.91 83.57,0 154.83,-29.8 213.78,-89.4 58.95,-59.6 88.75,-131.5 88.75,-215.07 0,-185.28 -103.65,-286.34 -310.96,-304.48 -125.02,-9.71 -225.44,-51.17 -302.53,-123.73 -82.27,-77.09 -123.73,-177.5 -123.73,-301.24 0,-116.6 42.1,-217.01 125.68,-299.94 83.57,-82.92 183.98,-124.38 300.58,-124.38 169.73,0 291.52,69.97 366.67,210.54 12.31,23.97 18.13,44.7 18.13,64.13 0,33.05 -12.95,61.55 -38.22,84.87 -25.91,23.33 -55.71,35.63 -88.75,35.63 -33.69,0 -70.62,-25.91 -112.07,-76.44 -41.46,-51.18 -90.05,-76.44 -145.76,-76.44 -49.88,0 -92.63,18.14 -128.26,54.41 -35.63,36.28 -53.77,79.04 -53.77,127.62 0,109.49 63.49,170.37 190.46,182.68 161.95,15.55 291.52,69.31 389.34,160.67 104.94,97.82 157.41,226.73 157.41,386.1zm1765.95 58.31c0,19.44 -5.18,40.16 -16.19,64.13 -63.81,119.72 -158.41,217.78 -283.79,293.64 -314.99,-36.07 -645.4,-54.58 -986.97,-57.22 -23.13,-19.05 -45.68,-39.56 -67.64,-61.51 -166.49,-165.84 -250.06,-366.66 -250.06,-601.82 0,-233.86 83.57,-434.03 250.06,-599.87 166.49,-166.49 366.67,-249.41 601.17,-249.41 83.58,0 171.02,15.54 262.37,46.64 103.65,35.63 204.71,92.64 303.83,171.02 123.73,96.53 185.92,187.87 185.92,274.03 0,43.4 -20.08,76.45 -60.25,98.47l-1146.64 662.07c119.85,137.34 271.43,206 454.77,206 191.11,0 343.99,-69.97 458.01,-209.25 14.25,-20.73 37.57,-52.47 69.31,-94.58 31.74,-41.46 64.78,-62.19 99.12,-62.19 33.69,0 62.84,11.66 88.75,34.98 25.91,23.32 38.22,51.82 38.22,84.87zm-298.65 -763.78c-121.79,-137.34 -273.38,-206 -454.77,-206 -167.13,0 -310.3,59.6 -428.85,178.8 -118.55,119.84 -178.15,262.36 -178.15,428.85 0,66.73 9.72,131.5 29.79,193.7l1031.97 -595.35zm2808.94 1130.44c0,80.98 -40.81,121.79 -121.79,121.79 -80.33,0 -120.49,-40.8 -120.49,-121.79l0 -971.73c0,-100.41 -35.63,-186.57 -106.89,-257.82 -71.26,-71.27 -157.41,-106.89 -257.18,-106.89 -100.41,0 -186.57,35.63 -257.82,106.89 -71.27,71.26 -106.89,157.41 -106.89,257.82l0 971.73c0,80.98 -40.81,121.79 -121.8,121.79 -80.32,0 -120.49,-40.8 -120.49,-121.79l0 -971.73c0,-100.41 -35.63,-186.57 -107.54,-257.82 -71.91,-71.27 -157.41,-106.89 -256.53,-106.89 -100.41,0 -186.57,35.63 -257.83,106.89 -71.26,71.26 -106.88,157.41 -106.88,257.82l0 971.73c0,75.15 -35.17,115.71 -104.94,121.16 -33.21,-7.77 -66.62,-15.32 -100.33,-22.57 -25.98,-20.01 -38.96,-52.92 -38.96,-98.59l0 -1458.23c0,-80.33 40.81,-120.49 121.79,-120.49 81.63,0 122.45,40.16 122.45,120.49 106.88,-80.33 228.03,-120.49 364.07,-120.49 202.12,0 363.43,80.97 485.21,242.93 121.15,-161.96 283.1,-242.93 485.86,-242.93 167.14,0 310.3,59.6 428.86,178.15 118.55,118.54 178.15,261.72 178.15,428.85l0 971.73zm1848.22 -366.66c0,19.44 -5.18,40.16 -16.19,64.13 -53.98,101.27 -130.01,187.05 -228.05,257 -277.27,22.75 -552.57,58.8 -820.63,110.94 -105.9,-41.44 -202.43,-105.74 -289.71,-193.03 -166.49,-165.84 -250.07,-366.66 -250.07,-601.82 0,-233.86 83.58,-434.03 250.07,-599.87 166.48,-166.49 366.66,-249.41 601.17,-249.41 83.57,0 171.02,15.54 262.37,46.64 103.64,35.63 204.7,92.64 303.82,171.02 123.74,96.53 185.93,187.87 185.93,274.03 0,43.4 -20.09,76.45 -60.25,98.47l-1146.64 662.07c119.84,137.34 271.43,206 454.77,206 191.1,0 343.98,-69.97 458,-209.25 14.25,-20.73 37.57,-52.47 69.31,-94.58 31.74,-41.46 64.78,-62.19 99.12,-62.19 33.69,0 62.84,11.66 88.75,34.98 25.91,23.32 38.22,51.82 38.22,84.87zm-298.64 -763.78c-121.8,-137.34 -273.39,-206 -454.77,-206 -167.14,0 -310.3,59.6 -428.86,178.8 -118.55,119.84 -178.15,262.36 -178.15,428.85 0,66.73 9.72,131.5 29.8,193.7l1031.97 -595.35zm622.4 1055.9c-107.44,-114.91 -161.16,-252 -161.16,-410.67 0,-167.13 59.61,-310.3 178.8,-429.5 119.2,-119.2 262.37,-178.8 429.51,-178.8 135.39,0 256.53,40.81 364.72,121.79 0,-100.41 -35.63,-185.92 -106.89,-257.82 -71.26,-71.27 -157.41,-106.89 -257.82,-106.89 -69.97,0 -140.58,24.62 -211.19,73.21 -70.62,48.58 -114.67,72.55 -131.51,72.55 -33.04,0 -62.19,-12.3 -87.45,-37.57 -25.27,-25.27 -37.58,-54.41 -37.58,-88.1 0,-26.56 12.96,-55.06 38.22,-84.87 99.12,-118.55 242.29,-177.5 429.51,-177.5 167.13,0 310.3,59.6 428.85,178.15 118.55,118.54 178.15,261.72 178.15,428.85l0 923.73c-340.71,-23.42 -695.93,-34.36 -1054.14,-26.54zm811.86 -410.67c0,-99.76 -35.63,-185.93 -106.89,-257.18 -71.26,-71.27 -157.41,-106.89 -257.18,-106.89 -100.41,0 -186.57,35.63 -257.82,106.89 -71.27,71.26 -106.89,157.42 -106.89,257.18 0,100.41 35.63,186.57 106.89,257.82 71.26,71.27 157.41,106.89 257.82,106.89 99.77,0 185.93,-35.63 257.18,-106.89 71.27,-71.26 106.89,-157.41 106.89,-257.82zm1572.25 -785.8c0,32.39 -12.96,60.25 -39.51,83.57 -25.92,23.32 -55.06,35.63 -87.46,35.63 -32.4,0 -74.5,-31.09 -126.98,-92.63 -52.47,-61.55 -114.66,-91.99 -185.92,-91.99 -66.72,0 -123.74,23.97 -171.02,71.91 -47.29,47.94 -71.26,104.95 -71.26,170.37l0 1094.16c0,4.2 -0.12,8.29 -0.34,12.28 -79.94,-9.35 -161.32,-18.16 -243.89,-26.36l0 -1444.16c0,-80.33 40.81,-120.49 121.79,-120.49 55.07,0 91.99,23.32 112.08,70.61 77.09,-47.29 161.31,-70.61 252.65,-70.61 83.57,0 165.19,22.02 244.87,66.72 79.68,44.7 138.63,103.65 176.85,175.56 12.32,24.62 18.14,46.65 18.14,65.43z"/>
  <path class="fil2" d="M16.79 5252.39c-7.75,0.93 -15.17,-2.5 -16.56,-7.65 -1.39,-5.15 3.76,-10.08 11.52,-11l0.3 -0.04 0 -0.01c394.42,-48.33 775.26,-85.45 1140.8,-112.39 365.56,-26.94 716.28,-43.75 1050.39,-51.45 1660.58,-38.27 2906.72,148.94 3529.26,432.94 601.85,-293.73 1826.98,-484.55 3489.89,-442.67 327.78,8.26 672.4,25.53 1032.42,52.79 359.8,27.26 735.33,64.53 1125.15,112.81l0.9 0.09 0.37 0.05c7.67,0.99 12.69,5.96 11.24,11.11 -1.46,5.15 -8.88,8.52 -16.55,7.54l-0.36 -0.04 -0.45 -0.07c-388.97,-48.16 -763.92,-85.38 -1123.41,-112.6 -359.69,-27.26 -703.61,-44.5 -1030.3,-52.73 -1649.05,-41.53 -2864.29,145.92 -3464.28,435.2 13.08,6.19 25.96,12.43 38.44,18.7 6.3,3.15 7.54,9.11 2.79,13.31 -4.75,4.18 -13.73,5.01 -20.01,1.86 -14.69,-7.38 -29.89,-14.7 -45.4,-21.95 -2.81,1.41 -5.7,2.81 -8.48,4.22 -6.23,3.16 -15.1,2.32 -19.8,-1.85 -4.71,-4.19 -3.46,-10.14 2.76,-13.29l0.84 -0.42c-620.42,-279.91 -1856.73,-464 -3504.13,-426.02 -332.96,7.67 -682.92,24.45 -1048.16,51.36 -365.28,26.93 -745.46,63.98 -1138.79,112.17l0 0 -0.05 0 -0.35 0.04z"/>
  <path class="fil2" d="M221.54 5416.76c-7.76,0.99 -15.2,-2.57 -16.6,-7.97 -1.42,-5.39 3.71,-10.56 11.46,-11.55l0.4 -0.05 0 -0.01c382.52,-50.61 751.18,-90.63 1104.48,-120.81 353.34,-30.2 692.01,-50.61 1014.41,-62.01 1595.66,-56.44 2786.41,108.9 3391.63,402.21 543.58,-311.04 1671.36,-474.28 3199.2,-407.72 298.69,13.01 612.83,34.82 940.97,66.01 327.52,31.14 669.17,71.68 1023.56,122.21l1.09 0.13 0.51 0.07c7.64,1.11 12.54,6.39 10.96,11.75 -1.59,5.37 -9.07,8.82 -16.71,7.7l-0.52 -0.07 -0.48 -0.09c-353.55,-50.41 -694.74,-90.9 -1022.16,-122.02 -327.28,-31.11 -640.7,-52.86 -938.88,-65.86 -1514.89,-65.99 -2632.92,94.01 -3173.53,399.74 15.15,7.62 30.02,15.33 44.4,23.13 6.2,3.38 7.31,9.61 2.47,13.93 -4.84,4.31 -13.81,5.09 -20.02,1.71 -16.64,-9.02 -33.85,-17.94 -51.55,-26.73 -4.52,0.34 -9.25,-0.86 -12.39,-3.51 -1.4,-1.18 -2.29,-2.54 -2.81,-3.93 -599.89,-291.07 -1784.48,-455.06 -3374.39,-398.82 -321.07,11.35 -658.99,31.74 -1012.28,61.91 -353.31,30.2 -721.39,70.13 -1102.7,120.58l0 -0.01 -0.05 0.01 -0.45 0.05z"/>
  <path class="fil2" d="M194.76 5039.45c-30.66,5.61 -60.09,-14.7 -65.72,-45.35 -5.61,-30.68 14.7,-60.1 45.37,-65.72l0.29 -0.06c381.89,-70.46 749.85,-123.57 1102.36,-161.08 352.46,-37.5 690.67,-59.53 1013,-67.87 1628.47,-42.18 2837.93,268.51 3435.02,697.62 597.08,-429.11 1806.51,-739.8 3434.98,-697.62 322.34,8.34 660.55,30.37 1013,67.87 352.52,37.51 720.47,90.61 1102.37,161.08l0.3 0.06c30.66,5.61 50.97,35.04 45.35,65.72 -5.62,30.66 -35.05,50.97 -65.72,45.35l-0.3 -0.05c-378.16,-69.79 -743.34,-122.45 -1093.96,-159.76 -350.68,-37.31 -685.72,-59.21 -1003.7,-67.42 -1632.93,-42.28 -2831.35,271.36 -3398.21,700.06l-0.05 0.05 -1.09 0.78 -0.08 0.05 -1.04 0.74 -0.15 0.1 -0.28 0.19 -1.91 1.22 -0.23 0.14 -0.04 0.01 -1.18 0.7 -0.93 0.53 -0.32 0.17 -0.9 0.47 -0.36 0.19 -0.86 0.42c-2.89,1.41 -5.86,2.55 -8.9,3.43l-0.64 0.18c-1.54,0.44 -3.08,0.8 -4.66,1.09l-0.68 0.13 -0.65 0.11 -0.71 0.12 -0.06 0.01 -1.92 0.25 -0.72 0.08 -0.62 0.06 -0.74 0.05 -0.6 0.04 -1.16 0.08 -0.22 0.01 -0.73 0.01 -0.6 0.02 -0.77 0.01 -0.61 0 -0.74 -0.01 -0.61 -0.02 -0.77 -0.01 -0.2 -0.01 -1.13 -0.08 -0.61 -0.04 -0.76 -0.05 -0.61 -0.06 -0.05 0 -2.65 -0.34 -0.72 -0.12 -0.61 -0.11 -0.72 -0.13 -0.01 0c-2.65,-0.5 -5.27,-1.18 -7.86,-2.08 -1.56,-0.54 -3.09,-1.17 -4.62,-1.83l-0.45 -0.2 -2.1 -1.01 -0.36 -0.19 -0.9 -0.47 -0.31 -0.17 -1.95 -1.12 -0.22 -0.12 -0.21 -0.14 -0.99 -0.63 -0.19 -0.11 -0.26 -0.18 -1.92 -1.3 -0.04 -0.03 -0.08 -0.05 -0.04 -0.03 -1.09 -0.76c-566.86,-428.71 -1765.3,-742.4 -3398.27,-700.11 -317.99,8.21 -653.02,30.11 -1003.7,67.42 -350.63,37.3 -715.81,89.97 -1093.96,159.76l-0.31 0.05z"/>
  <path class="fil2" d="M11270.49 5067.69c15.36,2.18 25.61,14.61 22.89,27.73 -2.71,13.11 -17.38,21.97 -32.74,19.8l-0.29 -0.04 -1.56 -0.27c-378.83,-56.89 -744.23,-99.24 -1094.65,-128.55 -350.71,-29.33 -686.61,-45.62 -1006.16,-50.41 -1639.75,-24.54 -2844.7,253.65 -3415.85,626.1 -12.42,8.13 -30.11,6.21 -39.53,-4.3 -9.42,-10.5 -6.98,-25.62 5.43,-33.76l0.92 -0.58 -0.91 -0.53c-571.24,-368.44 -1776.24,-638.1 -3415.97,-601.91 -319.08,7.05 -654.9,25.73 -1006.03,57.6 -351.09,31.86 -716.97,76.86 -1096.05,136.52l-0.31 0.05c-15.33,2.39 -30.04,-6.27 -32.86,-19.35 -2.81,-13.08 7.35,-25.63 22.69,-28.02l0.3 -0.04c380.96,-59.95 748.21,-105.14 1100.27,-137.09 352,-31.94 689.43,-50.7 1010.68,-57.8 1653.25,-36.49 2871.35,237.44 3451.36,611.55 4.86,3.13 8.24,7.29 9.96,11.89 596.31,-364.27 1794.86,-632.6 3407.48,-608.46 320.75,4.79 658.12,21.16 1010.55,50.64 351.83,29.43 718.61,71.93 1098.8,129.03l1.31 0.17 0.29 0.04z"/>
  <path class="fil3" d="M5771.29 46.44c-11.04,-2.67 -21.24,-0.75 -30.6,5.75 -9.35,6.49 -19.08,10.47 -29.16,11.94 -12.82,4.69 -21.14,10.96 -24.98,18.8 -3.84,7.83 -8.92,16.83 -15.28,26.97 -10.09,1.46 -17.41,3.58 -21.98,6.38 -4.57,2.79 -9.58,7.42 -15.04,13.89 -0.89,3.68 -6.14,7.29 -15.75,10.81 -9.61,3.52 -19.44,9.9 -29.46,19.17 -4.57,2.8 -9.62,3.52 -15.13,2.19 -5.52,-1.34 -15.58,4.03 -30.17,16.08 -10.02,9.26 -20.5,20.37 -31.41,33.31l-1.33 5.51 -15.43 136.47 -1.81 31.68c-3.55,14.71 -5.4,28.4 -5.52,41.02 -0.13,12.62 -1.97,26.29 -5.52,41.02l-0.86 64.04 -6.85 4.19 -3.14 37.21c2.79,4.57 4.76,6.5 5.9,5.81 1.14,-0.7 0.61,3.55 -1.61,12.75l-7.7 68.24 -1.34 5.52 -12.47 75.84 -0.38 37.87c-2.23,9.2 -1.84,13.67 1.14,13.42 2.98,-0.25 3.58,3.3 1.81,10.66l-9.14 62.05 -1.34 5.51c-2.22,9.2 -1.83,13.67 1.14,13.42 2.98,-0.26 3.59,3.3 1.81,10.65l-5.33 22.08c-2.23,9.19 -2.49,18.38 -0.81,27.55 1.67,9.17 5.75,16.48 12.22,21.94l-2.38 46.15 8.85 -12.46c4.2,6.85 5.84,12.11 4.95,15.79 -2.66,11.04 -2.37,19.88 0.9,26.51 3.27,6.64 4.01,13.63 2.24,20.99l-10.66 44.16 16.56 3.99 -5.33 22.08 -5.34 22.07 5.52 1.34 29.98 -124.18 3.33 -13.81 4 -16.56 3.33 -13.8 8.27 2 7.33 -30.35c1.78,-7.37 3.01,-10.47 3.71,-9.33 0.69,1.14 3.33,0.31 7.89,-2.48l-2 8.27 13.81 3.34c-2.66,11.04 -3.53,18.62 -2.57,22.75 0.95,4.12 0.1,11.7 -2.57,22.74l-8.67 35.88c-2.66,11.04 -3.06,18.73 -1.19,23.08 1.88,4.35 1.48,12.03 -1.18,23.08l-3.33 13.8 -22.94 58.72 -19.33 -4.67 -5.33 22.07c-4.89,20.25 -12.12,34.08 -21.7,41.5 -9.58,7.42 -16.15,18.49 -19.7,33.21l-1.34 5.52 -18.55 4.28 -13.8 -3.33 6.28 10.27c-2.28,1.4 -4.45,2.33 -6.52,2.81 -2.06,0.48 -4.23,1.42 -6.52,2.81l-6.85 4.19c-2.66,11.04 -2.12,20.9 1.62,29.59 3.74,8.7 6.34,18.09 7.79,28.17l-1.33 5.52c-3.55,14.71 -1.15,28.92 7.22,42.63l-9.61 3.52 -6.19 86.13c-1.77,7.36 -2.32,11.61 -1.61,12.75 0.69,1.15 5.64,2.82 14.84,5.05 7.37,1.77 12.3,1.51 14.8,-0.81 2.51,-2.32 7.88,-4.43 16.13,-6.32 2.23,-9.21 3.9,-14.15 5.04,-14.86 1.15,-0.69 5.84,-2 14.09,-3.9l18.55 -4.28c18.39,4.44 44.09,2.86 77.08,-4.76 32.99,-7.61 56.78,-17.45 71.38,-29.5l13.8 3.33c7.29,-6.02 18.13,-12.66 32.55,-19.88 14.4,-7.23 29.15,-13.9 44.25,-19.98 15.1,-6.1 28.47,-13.09 40.12,-20.99 11.64,-7.9 18.35,-15.53 20.13,-22.89l10.65 -44.15 2 -8.28c-3.68,-0.89 -6.23,-4.43 -7.66,-10.61 -1.43,-6.18 -1.7,-11.12 -0.81,-14.79 2.23,-9.2 1.24,-17.23 -2.96,-24.08 -4.19,-6.85 -5.83,-12.11 -4.94,-15.8l11.99 -49.67c3.55,-14.72 5.3,-25.98 5.24,-33.78 -0.06,-7.8 1.24,-17.23 3.9,-28.26l1.34 -5.52c2.22,-9.19 0.42,-19.86 -5.42,-31.98 -5.83,-12.12 -8.81,-25.98 -8.93,-41.59l24.56 -198.51 19.33 -80.03 15.03 -98.59c2.67,-11.04 3.53,-18.62 2.57,-22.75 -0.95,-4.12 -0.31,-10.79 1.91,-19.99l-17.89 1.52c0.88,-3.68 0.52,-6.2 -1.1,-7.56 -1.62,-1.36 -1.99,-3.88 -1.1,-7.56l5.33 -22.08 13.05 -90.32 2 -8.27c-2.79,-4.57 -4.9,-9.95 -6.32,-16.13 -1.43,-6.18 -1.7,-11.12 -0.81,-14.79l2 -8.28c4.44,-18.39 4.44,-46.63 0,-84.7 -4.44,-38.07 -4.21,-67.21 0.68,-87.45l1.33 -5.52c-1.45,-10.09 -2.67,-19.15 -3.66,-27.18 -0.98,-8.03 -0.14,-17.56 2.53,-28.59l-8.28 -2c-0.89,3.68 -0.06,6.31 2.48,7.89 2.54,1.59 3.36,4.22 2.48,7.9 -2.23,9.2 -4.26,13.57 -6.09,13.13 -3.68,-0.88 -6.85,4.19 -9.52,15.23l-13.41 -41.2 4 -16.56 1.34 -5.52 2 -8.28c-1.02,-11.93 -3.73,-20.86 -8.14,-26.79 -4.41,-5.93 -4.84,-16.26 -1.28,-30.97l-13.8 -3.33 15.99 -66.23 1.34 -5.52c2.22,-9.19 1.59,-16.65 -1.9,-22.37 -3.49,-5.71 -3.9,-14.08 -1.24,-25.12 -14.71,-3.55 -22.74,-2.57 -24.08,2.95 -1.34,5.51 -7.48,10.84 -18.47,15.99l8.48 25.41z"/>
  <path class="fil3" d="M5061.67 1968.95l-13.35 6.27c-5.93,2.8 -8.14,5.93 -6.66,9.41 1.49,3.49 -3.71,8.02 -15.56,13.59l-13.33 6.28 23.08 0c0.45,0.4 0.8,0.8 1.02,1.21l-10.77 5.07 4.74 2.23c-7.97,4.99 -12.3,8.55 -13.03,10.67 -0.54,1.67 -2.95,3.97 -7.21,6.93l-6.74 3.18 1.06 0.5 -0.46 0.28 -9.82 0.31 4.96 2.64 -12.27 1.78c-3.26,1.97 -5.69,3.44 -7.31,4.42 -3.25,1.97 -8.08,6.77 -14.53,14.42l-7.3 4.41 4.37 0.69c-2.02,1.99 -1.59,3.34 1.28,4.02l0.86 0.2 -9.93 10.33 -4.28 2.01c-17.78,8.36 -29.63,16.03 -35.58,23.01 -5.91,6.97 -17.76,14.64 -35.55,23.01 0.02,5.58 1.49,7.67 4.45,6.28 0,0 -5.93,2.8 -17.79,8.36l-13.33 6.28c-2.96,4.18 -5.93,9.76 -8.9,16.73 -2.97,4.19 -7.41,9.07 -13.33,14.64 -5.94,5.58 -13.34,10.46 -22.24,14.64l13.34 6.27 -26.69 12.55c0,5.58 1.49,7.67 4.45,6.27 0,0 -5.93,2.8 -17.8,8.37l13.34 6.27c17.79,-8.36 27.43,-16.38 28.89,-24.05 1.5,-7.67 8.18,-14.3 20.02,-19.87l13.34 -6.28 19.19 -9.03c-1.59,3.08 -2.35,6.62 -2.28,10.57 0.06,4.44 0.06,8.23 0,11.43l-8.03 3.77 7.58 3.57c-0.12,1.17 -0.28,2.14 -0.45,2.89 -0.23,0.99 -0.71,2.16 -1.45,3.54 -6,3.08 -7.89,4.64 -5.68,4.64 0.86,0 1.61,0.23 2.23,0.71 -1.59,2.21 -3.56,4.71 -5.9,7.5l-7.32 4.42 -7.29 4.41 -2.07 5.35c-4.65,3.19 -9.01,6.54 -12.98,10.03 -10.39,9.07 -15.58,16.38 -15.58,21.96l-8.9 4.19c0,5.58 -6.66,17.79 -20.01,36.6 -13.35,18.83 -22.97,29.63 -28.89,32.42l-4.46 23.02 -17.78 0 -4.45 10.46 13.34 -6.28 35.57 -16.73 0 3.52 -5.54 3.34c-3.24,1.97 -4.82,5.74 -4.74,11.31 0.04,2.69 0.48,4.93 1.26,6.73 -4.88,6.56 -10.77,14.3 -17.65,23.2 -11.37,14.69 -10.47,25.53 2.64,32.55l0.04 1.75 -24.92 11.72 13.34 14.64 -13.34 6.27 13.34 6.28c-11.85,5.58 -17.05,10.11 -15.56,13.6 1.49,3.48 -5.18,8.7 -20.01,15.69l-13.32 6.27c11.85,5.58 17.04,10.11 15.54,13.59 -1.48,3.48 -2.23,8.02 -2.23,13.59 -8.88,9.76 -11.86,14.64 -8.88,14.64 2.95,0 1.48,4.19 -4.44,12.55 -8.92,4.18 -13.35,10.46 -13.35,18.82 -1.34,1.91 -2.53,3.63 -3.57,5.25l-13.73 -7.29c8.12,-4.91 10.54,-7.78 7.24,-8.6 -3.29,-0.83 -1.68,-3.21 4.8,-7.13l-14.88 -7.91 7.31 -4.42 -4.97 -2.64 0.95 -0.29 7.95 3.75 -7.95 -3.75 18.63 -5.91 -4.97 -2.63 -7.45 -3.95c4.77,-10.39 4.6,-20.61 -0.5,-30.68l-14.61 8.83 7.45 3.95 4.96 2.64 -12.18 7.36c-3.26,1.97 -3.6,6.4 -1.02,13.29 2.57,6.89 -1.03,13.29 -10.77,19.19l12.42 6.57 7.29 -4.41 -14.62 8.84 0.1 5.58c0,0 -1.56,4.7 -4.69,14.1 -5.02,-6.35 -6.72,-9.55 -5.08,-9.6 1.64,-0.05 0.8,-0.95 -2.49,-2.72l-22.08 4.89 -9.82 0.31c3.25,-1.97 4.04,-3.85 2.37,-5.66 -1.67,-1.8 -0.88,-3.69 2.36,-5.65l-14.88 -7.9 -7.31 4.42 -12.04 15.73 -7.31 4.42c1.72,4.6 2.62,9.68 2.71,15.27l4.96 2.63c-6.51,3.93 -8.92,5.87 -7.28,5.82 1.65,-0.05 2.48,1.78 2.54,5.5 0.06,3.72 -1.94,6.35 -6.03,7.86 -4.06,1.53 -1.97,4.49 6.31,8.88l-2.35 7.05 14.75 -0.47c0.08,3.71 2.61,8.76 7.63,15.11 5.02,6.35 5.13,12.86 0.33,19.52l4.93 2.64c0.07,3.72 -1.53,6.1 -4.78,7.13 -3.27,1.04 -0.77,3.75 7.51,8.13l7.45 3.95 4.86 -2.95 -7.46 -3.95c-0.04,-3.72 1.1,-8.18 3.5,-13.37 2.36,-5.19 3.51,-9.65 3.46,-13.36l-0.4 -25.11c3.24,-1.97 7.35,-1.63 12.31,1.01l7.44 3.95c6.61,3.5 9.1,4.36 7.44,2.55 -1.67,-1.81 2.41,-1.93 12.27,-0.38 -1.87,3.36 -2.63,5.54 -2.24,6.55 -0.47,1.34 -0.91,2.69 -1.36,4.07l-1.13 0.69 0.78 0.41c-0.99,3.12 -1.93,6.35 -2.86,9.71 -7.42,27.19 -18.54,44.28 -33.36,51.24l8.9 4.19c8.88,-9.76 14.08,-19.18 15.56,-28.24 1.48,-9.07 9.65,-17.08 24.46,-24.06 -1.53,-2.16 -2.4,-4.66 -2.65,-7.51l4.04 2.16c-1.5,8.42 -1.42,14 0.28,16.74 1.68,2.73 0.9,5.09 -2.35,7.05l7.54 9.53 -7.44 -3.95 0.14 8.37 7.44 3.95 -7.18 12.79 4.96 2.63 -4.72 11.31c9.81,-0.31 16.36,-1.44 19.61,-3.41 8.11,-4.91 12.59,-8.07 13.37,-9.49 0.8,-1.43 -1.3,-5.32 -6.32,-11.67l5.02 -0.87 3.84 4.21 13.32 -6.28 -13.32 6.28 13.32 6.28 -22.23 10.46c-8.89,4.18 -10.36,7.66 -4.44,10.45 0,5.58 1.5,10.46 4.44,14.64 2.97,4.19 -1.48,9.07 -13.33,14.64 11.86,5.58 16.3,11.86 13.35,18.83 -2.96,6.97 -7.4,11.86 -13.35,14.64l-40.01 18.82 -13.34 -6.28 -18.54 8.73 -8.05 0c-5.09,-1.65 -11.05,-2.45 -17.87,-2.45 -8.91,0 -22.22,-4.19 -40.02,-12.55l-22.25 10.46c-8.89,4.19 -16.28,4.88 -22.22,2.09l-13.33 -6.28 -57.8 -6.27 -13.33 6.27 -53.37 -12.55 -13.62 3.85c-25.07,-13.24 -50.42,-24.25 -76.01,-33.05 -53.46,-18.2 -104.6,-27.29 -153.49,-27.29 -72.28,0 -138.97,13.45 -200.13,40.42l-1.4 -0.65 8.89 -4.19 0 -25.1 13.33 -6.28 8.9 -4.18c5.93,-2.79 8.9,-7.67 8.9,-14.64 0,-6.97 2.97,-11.86 8.89,-14.64l8.9 -4.18c-2.96,-15.34 -0.74,-24.06 6.67,-26.14 7.39,-2.09 5.18,-8.72 -6.67,-19.87 14.82,-6.97 25.21,-16.04 31.15,-27.19 5.91,-11.15 8.85,-19.52 8.85,-25.1l8.9 -4.19c-8.9,-9.76 -11.12,-12.9 -6.66,-9.41 4.44,3.49 6.66,-1.74 6.66,-15.68l13.35 -6.28 -8.9 -4.19 22.23 -10.46c-14.81,-6.97 -13.33,-14.64 4.45,-23.01 17.78,-8.36 20.74,-18.13 8.88,-29.29l8.9 -4.18c5.93,-2.8 9.63,-5.93 11.12,-9.42 1.48,-3.48 3.71,-7.31 6.68,-11.5 0,-5.58 1.48,-10.46 4.44,-14.63l26.68 -12.55 -22.23 -10.46 22.23 -10.46 -13.33 -6.28 26.69 -12.55c0,-5.58 2.96,-9.07 8.88,-10.46 5.94,-1.4 2.97,-4.88 -8.88,-10.46l26.68 -12.55 -13.33 -6.27 22.22 -10.47 -13.33 -18.82 22.23 -10.47 -8.9 -4.18 26.67 -12.55c0,-5.58 -0.72,-6.63 -2.2,-3.14 -1.5,3.48 6.66,1.04 24.44,-7.32l-13.33 -6.28 13.33 -6.27c0.01,-16.74 7.43,-28.59 22.24,-35.56 0,-5.58 0,-8.37 0,-8.37 -2.97,1.4 1.49,-0.69 13.33,-6.27l-13.33 -6.27 26.68 -12.55c5.92,-2.8 4.44,-6.28 -4.46,-10.47l26.68 -12.55 22.25 -10.46c-5.93,-2.79 -4.45,-6.27 4.44,-10.46 14.81,-6.97 21.47,-12.2 20,-15.69 -1.48,-3.48 3.71,-8.02 15.58,-13.6 0,-5.58 -1.48,-8.36 -4.44,-8.36 -2.97,0 1.47,-2.79 13.33,-8.37l26.69 -12.54 -13.34 -6.27 22.24 -10.47 13.33 -6.27c17.79,-13.95 37.05,-29.98 57.8,-48.11 20.76,-18.13 42.99,-32.77 66.71,-43.92 11.86,-5.58 13.34,-8.37 4.45,-8.37 -8.91,0 -7.43,-2.8 4.43,-8.37l88.95 -50.19 13.32 -6.28 133.41 -62.75 22.23 -10.46 48.9 -35.56 22.25 -10.46 13.33 -6.28 22.23 -10.45 40.02 -18.83 4.44 2.09c5.92,2.79 11.85,2.79 17.79,0l48.9 -23.01 13.34 -6.28c23.71,-5.58 50.41,-14.64 80.04,-27.19 29.65,-12.54 63.75,-20.91 102.28,-25.09l22.23 -10.46 13.34 -6.28 22.23 10.46 13.33 -6.27 8.92 -4.19c8.87,-4.18 22.21,-6.27 40,-6.27 23.72,-5.58 42.23,-8.03 55.58,-7.32 13.33,0.69 34.83,-0.36 64.48,-3.14 20.75,-4.19 40.01,-4.19 57.79,0 17.79,4.18 35.59,2.08 53.36,-6.28l-26.67 -12.55 -8.9 -4.19 -40.02 -6.27 -22.24 10.46c-5.93,-2.79 -16.3,-4.88 -31.12,-6.28 -14.82,-1.39 -25.21,-0.69 -31.13,2.09l-31.12 -6.27c-8.88,-9.75 -14.07,-15.69 -15.55,-17.78 -1.48,-2.09 -5.19,-7.32 -11.12,-15.69 14.81,-6.97 29.64,-6.97 44.46,0l13.34 6.27 13.35 -6.27 40.02 -6.28 8.89 4.19c17.77,-2.79 31.86,-3.14 42.23,-1.05 10.39,2.09 25.95,1.05 46.69,-3.14l57.8 52.29 -13.32 6.27c17.78,8.36 37.78,11.51 60.02,9.41 22.23,-2.08 39.26,-0.35 51.14,5.23 11.86,0 28.16,0 48.9,0 20.75,0 37.06,0 48.92,0 17.79,2.79 31.13,5.58 40.03,8.37 8.9,2.78 23.72,2.08 44.46,-2.09l0 12.55c17.78,-2.8 26.69,-3.48 26.69,-2.09 0,1.39 5.92,2.09 17.8,2.09l-8.91 4.18 22.23 2.09 -13.32 -6.27 40.01 -6.28 48.92 10.46 0 12.55c11.86,0 17.05,-1.04 15.55,-3.14 -1.48,-2.09 0.74,-1.75 6.67,1.04 14.83,6.97 18.52,9.41 11.12,7.32 -7.4,-2.09 -11.12,-0.35 -11.12,5.23l13.33 -6.28c14.82,6.98 17.79,9.07 8.91,6.28 -8.91,-2.79 -20.75,-0.69 -35.58,6.28l40.04 6.27 22.21 -10.46 22.23 10.46 13.35 6.28 35.57 16.73c8.9,4.19 16.3,4.88 22.23,2.09l4.44 -2.09 35.57 -16.73 22.24 10.46 26.67 0 97.83 58.56c11.86,5.58 18.54,7.32 20.01,5.23 1.49,-2.09 6.68,1.75 15.58,11.51l8.88 4.18 13.34 6.28 13.34 6.27 22.21 10.46c20.77,9.77 35.59,18.13 44.48,25.11 8.88,6.97 19.27,13.24 31.11,18.81l13.35 6.28 8.9 29.29 13.33 6.27 48.92 10.46 35.57 29.29c-8.9,4.19 -8.9,8.36 0,12.55 17.79,8.37 27.41,14.3 28.89,17.78 1.48,3.48 9.64,8.71 24.46,15.69l17.79 0 -8.89 4.19 22.23 2.09c5.92,2.79 10.37,4.87 13.33,6.27 5.93,2.8 14.83,9.76 26.69,20.91l13.32 6.28 -40.02 6.27c8.89,4.2 17.77,4.2 26.69,0l35.55 29.29 -13.33 6.28 8.89 4.18 -8.89 4.19 13.33 6.28 13.35 18.81c-11.85,0 -17.8,-0.69 -17.8,-2.08 0,-1.4 -5.91,0.7 -17.78,6.27 -2.97,-6.97 -8.88,-12.55 -17.79,-16.73l-8.9 -4.19 0 -12.55 -13.33 -6.27 -22.23 -10.47 22.23 23.02 13.33 14.63c8.9,9.76 17.05,19.18 24.46,28.24 7.4,9.06 22.98,19.18 46.7,30.33l4.44 -10.47 -13.34 -6.27 -22.23 -23.01 22.23 -10.47 71.14 46.02c0,11.15 8.14,19.87 24.46,26.15 16.3,6.27 24.44,16.38 24.44,30.32 0,16.74 0.77,27.55 2.24,32.42 1.47,4.88 8.15,12.91 20.01,24.06l13.33 6.27 13.35 6.28 13.33 27.18 22.23 23.02 -26.67 0 0 12.55c11.85,0 23.71,2.78 35.57,8.36 11.86,5.58 8.89,9.76 -8.91,12.55l26.68 12.55c-14.83,6.97 -20.75,10.46 -17.8,10.46 2.97,0 7.42,4.18 13.36,12.55l13.33 -6.27 -22.23 -10.47 22.22 -2.09c5.94,2.8 7.41,4.19 4.44,4.19 -2.96,0 0,4.88 8.91,14.64l-13.34 6.28 -13.33 -6.28 13.33 27.19 0 -20.91 13.34 6.27 26.68 33.46 -13.34 6.28 8.87 4.18 -22.21 2.09 22.21 -2.09 13.36 6.28 13.32 6.28c5.95,2.78 8.92,8.36 8.92,16.73 0,8.36 -2.97,13.94 -8.92,16.73 -5.91,2.79 -8.87,3.49 -8.87,2.1 0,-1.4 -5.93,-2.1 -17.81,-2.1l26.69 12.56c5.95,2.79 6.68,3.83 2.24,3.13 -4.44,-0.69 -9.63,0.36 -15.56,3.14l8.9 4.18 -8.9 4.19 13.32 6.28c-8.87,9.75 -11.1,14.98 -6.65,15.69 4.45,0.69 9.64,5.23 15.57,13.59l4.45 -10.46 22.22 10.46 0 33.46c-14.83,6.97 -20.75,12.56 -17.79,16.74 2.96,4.19 4.44,11.86 4.45,23.01l13.33 6.28 -13.33 -6.28 0 12.55 26.68 0c-17.79,8.36 -24.46,15.69 -20.01,21.96 4.44,6.27 6.66,16.38 6.66,30.33 0,5.58 -1.49,11.86 -4.45,18.82 -2.97,6.97 2.97,13.95 17.8,20.92 -5.93,8.36 -7.4,14.63 -4.44,18.82 2.97,4.19 4.44,13.24 4.44,27.19l-0.01 2.45 -39.25 0 -9.67 -4.54 9.67 4.54 -80.03 0 -5.21 -2.45c-0.61,0.87 -1.18,1.68 -1.67,2.45l-139.42 0c-35.09,-21.26 -70.62,-38.08 -106.72,-50.49 -20.73,-7.06 -41.12,-12.76 -61.16,-17.08 -0.72,-3.5 -3.58,-8 -8.58,-13.51 -1.11,-3.95 -2.19,-6.9 -3.24,-8.92l9.53 -4.48c-14.8,-12.56 -20.01,-18.48 -15.55,-17.79 4.44,0.69 0.75,-4.52 -11.12,-15.69l13.34 -6.27c0,-5.58 -2.24,-16.39 -6.68,-32.43 -4.44,-16.02 -6.66,-26.84 -6.66,-32.41 0,-5.58 -3.7,-14.99 -11.11,-28.24 -7.44,-13.25 -12.61,-26.14 -15.57,-38.7 0,-5.58 -4.45,-16.73 -13.35,-33.45 -8.91,-16.74 -16.3,-26.5 -22.22,-29.29 -5.95,-8.37 -7.42,-14.64 -4.44,-18.83 2.95,-4.18 -2.97,-9.75 -17.79,-16.73 0,-5.58 -3.71,-10.8 -11.12,-15.69 -7.41,-4.88 -3.71,-10.8 11.1,-17.77l-35.57 -16.74 13.35 -6.27c-8.9,-9.76 -18.54,-21.96 -28.92,-36.61 -10.36,-14.64 -21.48,-27.54 -33.34,-38.69 -5.92,-2.8 -11.11,-9.41 -15.56,-19.88 -4.44,-10.46 -6.67,-18.47 -6.67,-24.05 0,-5.58 -5.19,-11.51 -15.56,-17.78 -10.38,-6.27 -18.53,-13.59 -24.45,-21.96l-13.34 -6.28c-14.83,-6.97 -22.24,-18.82 -22.23,-35.56 -5.93,-2.8 -11.86,-7.67 -17.8,-14.64 -5.92,-6.97 -8.88,-13.24 -8.88,-18.82l-8.9 -4.19c-14.83,-6.97 -30.37,-14.99 -46.69,-24.06 -1.01,-0.56 -1.98,-1.13 -2.87,-1.68l6.11 -3.69 -14.89 -7.9c-0.44,-0.24 -0.82,-0.5 -1.14,-0.77 0.38,-3.55 3.91,-6.89 10.56,-10.01 -56.35,-26.52 -77.57,-56.92 -121.96,-101.48 -11.66,-11.73 -24.08,-21.1 -37.34,-28.13 -6.63,-3.51 -7.47,-5.34 -2.56,-5.5 4.93,-0.16 4.07,-2 -2.55,-5.5l-49.71 -31.91 -7.46 -3.95 -74.45 -39.49 -12.4 -6.59c-42.34,-35.27 -78.03,-41.4 -121.59,-64.52l-7.46 -3.95c-13.15,-3.3 -27.99,-8.87 -44.54,-16.73 -16.53,-7.85 -35.49,-12.83 -56.82,-14.94l-12.41 -6.58 -7.45 -3.95 -3.26 1.98 -7.22 -3.4 -9.67 4.55 -4.44 -2.35c-4.96,-2.64 -12.36,-3.79 -22.19,-3.48 -13.18,-3.3 -23.45,-4.6 -30.83,-3.9 -7.37,0.69 -19.27,0.38 -35.69,-0.96 -11.52,-2.42 -22.16,-2.09 -31.97,1.01 -9.77,3.1 -19.64,2.02 -29.56,-3.24l14.63 -8.84 4.88 -2.94 22.05 -4.9 12.41 6.59c3.24,-1.96 8.96,-3.54 17.14,-4.74 8.18,-1.18 13.94,-0.9 17.24,0.86l17.14 -4.74c4.82,-6.66 7.62,-10.7 8.43,-12.12 0.79,-1.43 2.79,-4.97 5.97,-10.65 -8.27,-4.39 -16.46,-4.12 -24.58,0.77l-7.31 4.43 -7.45 -3.95 -22.2 -3.49 -4.87 2.95c-9.86,-1.54 -17.65,-1.53 -23.36,0.05 -5.73,1.58 -14.33,1.15 -25.87,-1.28l-31.41 35.89 7.46 3.95c-9.74,5.89 -20.78,8.33 -33.09,7.32 -12.32,-1 -21.73,0.45 -28.24,4.38 -6.56,0.21 -15.56,0.5 -27.03,0.86 -11.48,0.37 -20.5,0.66 -27.05,0.86 -9.8,2.17 -17.15,4.27 -22.05,6.28 -4.87,2.01 -13.08,1.81 -24.61,-0.61l0.15 8.36c-9.88,-1.54 -14.8,-1.85 -14.8,-0.93 0,0.94 -3.24,1.51 -9.81,1.71l4.98 2.63 -12.27 1.79 7.29 -4.42 -22.19 -3.48 -5.47 1.59c-0.3,-0.76 -0.2,-1.51 0.29,-2.19 1.48,-2.09 -8.16,-1.04 -28.91,3.14l-62.24 29.29 -30.42 14.3 -12.83 -6.81 -12.2 7.37 -14.75 0.47 -53.45 40.77c-6.5,3.93 -10.18,5.2 -11.01,3.83 -0.85,-1.36 -3.67,1.28 -8.48,7.95l-4.87 2.94 -7.3 4.42 -7.31 4.42 -12.18 7.37c-11.37,6.88 -19.48,12.71 -24.32,17.52 -1.55,1.53 -3.19,3.03 -4.91,4.47l-0.51 -0.25 -48.91 31.37zm2191.36 855.84l5.2 -2.45 -13.33 -6.28 26.67 -12.55c16.53,7.78 22.97,14.86 19.35,21.28l-37.88 0zm76.94 -3.16c-3.98,-2.87 -4.17,-4.72 -0.58,-5.57 5.92,-1.39 2.97,-4.88 -8.91,-10.46l26.69 -12.55 -13.32 -6.27 8.88 -4.19 -35.57 -8.37 8.87 -4.18 13.36 -6.28c-8.91,-15.33 -8.91,-30.67 0,-46.01l26.67 12.56 -13.34 6.27 -8.89 4.18 22.23 10.46c5.93,2.8 6.67,9.42 2.24,19.88 -3.44,8.06 -0.27,15.49 9.51,22.3 -6.56,4.04 -12.91,8.36 -19.07,12.94l-6 -2.83 6 2.83c-6.47,4.81 -12.73,9.9 -18.77,15.28zm-2436.73 -662.2l-0.55 -0.14c-5.02,-1.18 -2.58,-4.36 7.29,-9.55 -0.94,3.64 -3.22,6.89 -6.73,9.69zm14.62 -20.2l-6.27 -2.95 23.06 -10.84 -16.79 13.79zm-204.86 424.09c0.77,-1.37 1.76,-2.87 2.93,-4.53 17.8,-8.36 23.72,-13.94 17.8,-16.73l22.23 -10.47c-14.81,-6.97 -18.53,-9.41 -11.12,-7.31 7.39,2.09 6.68,-1.75 -2.24,-11.51l26.69 -12.55c0,-5.58 -2.24,-8.02 -6.67,-7.32 -4.45,0.7 -3.71,-0.35 2.23,-3.14l-8.9 -4.18c2.67,-1.26 5.09,-2.45 7.23,-3.55 8.22,4.77 11.21,9.12 9.01,13.04 -2.39,4.27 -3.51,11.05 -3.34,20.35 0.04,3.71 0.94,7.87 2.65,12.47 0.51,1.38 0.6,2.77 0.21,4.2 -2.14,1.31 -4.44,2.55 -6.87,3.69l3.42 1.61c-1.61,1.57 -3.72,3.16 -6.39,4.76 3.38,5.49 4.28,9.64 2.66,12.48 -1.48,2.65 -2.21,8.1 -2.17,16.36 -2,1.91 -4.14,4.12 -6.42,6.63 2.96,1.39 4.45,4.88 4.45,10.46 0,2.23 -0.94,4.86 -2.82,7.98l-14.47 2.51 -7.3 4.42 7.3 -4.42 -7.3 4.42 -12.42 -6.58c9.74,-5.89 12.57,-9.01 8.47,-9.33 -4.12,-0.34 -2.91,-2.47 3.59,-6.4l-12.41 -6.59 7.31 -4.41 -14.89 -7.9c-0.88,0.53 -1.7,1.03 -2.48,1.55zm52.88 -82.69c5.34,-2.9 8.56,-5.18 9.66,-6.83l0.12 6.52 -9.78 0.31zm9.64 -8.92c-0.37,-0.32 -0.96,-0.57 -1.77,-0.76 -3.53,-0.83 -2.88,-2.9 2.01,-6.19 -0.2,2.03 -0.28,4.35 -0.24,6.95zm24.76 -52.99l13.35 -6.27 7.69 0.85 -14.62 8.83 -6.42 -3.4zm14.83 -10.13c-3.04,-1.96 -4.13,-3.92 -3.28,-5.87l6.91 3.67 -3.63 2.2zm35.16 -25.93l3.52 -1.66 6.23 -2.93c-0.23,3.12 -0.96,6.58 -2.2,10.33 -3.13,9.41 -6.32,15.09 -9.57,17.05 0.09,5.58 0.96,8.81 2.62,9.69l0.68 0.37 -5.34 2.52 -0.21 0.05 -0.37 0.2 -2.34 1.12 -2.21 -1.18c4.81,-6.66 4.35,-10.14 -1.42,-10.41 -5.74,-0.29 -2.91,-3.87 8.45,-10.73 -3.38,-5.48 -3.43,-9.2 -0.19,-11.16 1.32,-0.79 2.1,-1.9 2.33,-3.27zm-6.18 54.21c-0.38,1.18 -0.86,2.44 -1.4,3.75 -3.61,8.44 -10.57,15.73 -20.92,21.9 -0.43,-1.72 -0.76,-3.46 -0.96,-5.26 -0.94,-7.87 3.44,-14.76 13.19,-20.66 -4.97,-2.63 -2.57,-6.89 7.17,-12.78 0.05,3.18 1.04,7.53 2.92,13.05zm-18.48 35.46l1.51 0.71 -0.87 0.4 -0.63 -1.11zm-29.33 27.22l-0.59 1.2 -0.04 -1.53 0.62 0.33zm-6.73 15.11c-0.53,0.88 -1.08,1.73 -1.65,2.57l-4.3 -2.27 7.31 -4.43 -1.36 4.12zm-6.39 8.36c-1.76,1.84 -3.7,3.57 -5.81,5.21l-3.39 -1.81 7.29 -4.41 1.91 1.01zm426.53 -628.99l-0.52 0.43 -0.16 -0.01 0.68 -0.42zm-8.8 9.04c0.46,0.91 1.58,1.83 3.3,2.73l-2.36 1.43 -4.87 2.95 -21.93 13.25 -4.88 2.94c4.98,2.64 5.02,5.42 0.13,8.37l-2.71 1.65 -13.48 6.34 -5.86 -3.11 -3.06 7.3 -2.36 1.11 -2.54 1.19 -2.22 -1.18 0.3 -0.01c2.96,0 2.96,-0.69 0,-2.09l-0.3 -0.13c5.23,-2.98 8.25,-3.88 8.98,-2.65 0.87,1.36 1.25,0.19 1.19,-3.54l7.31 -4.41c-3.32,-1.75 -4.95,-1.71 -4.93,0.15 0.04,1.86 4.12,0.34 12.21,-4.58 3.28,-1.96 3.67,-3.14 1.18,-3.53 -2.44,-0.38 -0.41,-0.68 6.14,-0.89l-7.43 -3.95 19.49 -11.78 12.17 -7.37 6.51 -0.2zm4.18 2.21l0 -2.34 4.07 -0.12 -4.07 2.47zm-582.68 681.77c8.29,4.38 11.6,6.61 9.97,6.65 -1.64,0.05 -2.43,1.94 -2.37,5.66l-7.6 -12.32zm34.53 4.48l-2.35 7.05 -4.97 -2.63 7.32 -4.43zm123.84 -100.21l14.63 -8.83 7.45 3.95 -14.6 8.84 -7.47 -3.95zm21.71 -27.19l7.31 -4.43 0.14 8.37 -7.46 -3.95zm-0.13 -8.38c-4.95,-2.63 -3.38,-6.4 4.74,-11.3l-4.74 11.3zm2270.26 354.05l13.35 6.27 -13.33 6.28c11.86,0 15.56,-0.35 11.12,-1.04 -4.44,-0.7 0.75,-4.53 15.56,-11.51 0,-5.58 2.22,-6.63 6.65,-3.14 4.47,3.48 2.24,0.35 -6.66,-9.41l-26.69 12.55zm102.26 -56.47l-13.32 -6.28 -26.68 12.55 13.32 6.27 26.68 -12.54zm-17.77 -16.74l-13.33 -6.27 4.43 10.45 8.91 -4.18zm-22.23 -10.46l0.01 -12.55 -13.37 6.28 13.36 6.27zm-48.91 10.46c5.93,-2.79 7.42,-4.19 4.44,-4.19 -2.95,0 -4.44,-2.79 -4.44,-8.36 -11.86,5.58 -16.3,8.36 -13.33,8.36 2.97,0 4.46,2.79 4.46,8.36l8.87 16.74 13.34 -6.28 -13.34 -14.63zm75.6 -35.56l-26.69 -12.55 -13.34 6.27 26.66 12.55 13.37 -6.27zm-40.06 -39.74l-13.32 -6.27 0 12.55 13.32 -6.28zm0 -12.55c8.92,-4.18 5.95,-9.76 -8.87,-16.73l8.87 16.73zm-57.78 -27.19c8.88,-4.19 4.44,-10.46 -13.34,-18.82 0,5.58 -2.23,13.59 -6.68,24.05 -4.43,10.46 2.24,19.88 20.02,28.24 -14.82,6.97 -20.02,12.19 -15.54,15.69 4.43,3.48 12.59,8.02 24.44,13.59 8.9,-9.76 14.09,-20.57 15.56,-32.41 1.48,-11.86 -6.66,-21.96 -24.46,-30.34zm71.14 -33.46l-13.36 -6.28 -35.55 4.19 26.68 12.55 22.23 -10.46zm-44.46 -12.55l8.9 4.19 13.33 -14.64 -22.23 10.46zm-4.44 -35.56l-13.33 6.28 26.68 12.54 -13.34 -18.82zm-13.35 -27.19l-8.88 -4.18 8.88 4.18zm-35.56 50.2c5.93,-8.36 5.93,-13.95 0,-16.73 -5.93,-2.8 -5.93,-8.37 -0.01,-16.74l-22.22 2.08c0,5.58 1.48,11.86 4.44,18.83 5.94,13.95 11.86,22.32 17.79,25.1 0,8.36 -1.48,13.25 -4.44,14.64l-4.44 2.09c0,0 4.44,0.69 13.33,2.09l4.44 2.08 4.45 -2.08c-8.9,-9.76 -8.15,-14.99 2.23,-15.69 10.38,-0.69 5.2,-5.92 -15.56,-15.69zm13.33 -60.65l13.34 6.27 -13.34 -6.27zm-48.92 23l0 -12.55 0 12.55zm48.92 -35.56l13.34 6.28 -8.9 -4.19c-2.97,-1.39 0,-4.18 8.9,-8.37l-13.34 6.28zm-48.92 -43.93c-20.74,-9.75 -26.67,-16.73 -17.78,-20.91 8.9,-4.18 7.42,-9.06 -4.45,-14.63 -5.91,-2.79 -12.58,-3.84 -19.99,-3.14 -7.42,0.7 -14.08,-0.35 -20.02,-3.13l13.34 6.27 -13.34 6.27 22.22 10.47 -22.22 10.46c14.83,12.55 27.43,27.53 37.8,44.96 10.39,17.43 27.42,31.73 51.13,42.88 -14.79,-6.97 -20.74,-13.94 -17.78,-20.91 2.98,-6.97 4.44,-13.24 4.44,-18.82 -14.83,-12.55 -23.73,-19.52 -26.69,-20.92 -2.97,-1.4 1.49,-7.67 13.33,-18.83zm26.69 20.92l13.34 6.28 8.88 -4.19 -13.33 -6.27 -8.89 4.18zm22.22 -10.46l0 -12.55 -13.33 6.28 13.33 6.27zm-13.34 -52.28l-13.32 -6.28 -8.9 -4.19 0 -12.54 -13.35 -6.28 -22.23 -10.46c0,16.73 10.39,29.98 31.14,39.74 0,5.58 -0.75,10.1 -2.24,13.58 -1.47,3.49 5.22,8.72 20.01,15.69 5.91,-8.37 10.38,-12.55 13.33,-12.55 2.97,0 -2.96,-3.48 -17.77,-10.46l13.32 -6.27zm-48.91 -43.93c14.82,-18.13 7.42,-25.79 -22.24,-23.01l22.24 23.01zm-48.91 -48.11c23.72,-11.15 28.17,-20.22 13.33,-27.19 -11.86,-5.58 -19.26,-6.97 -22.22,-4.19 -2.97,2.8 -7.41,2.8 -13.34,0l8.89 4.19 -8.89 4.19c17.8,8.36 24.46,15.69 20.01,21.96 -4.44,6.27 0.74,12.9 15.56,19.86 0,-5.58 1.49,-8.36 4.45,-8.36 2.97,0 -2.97,-3.48 -17.8,-10.46zm-22.23 35.56c5.93,-2.79 6.66,-7.32 2.23,-13.59 -4.44,-6.28 -9.64,-10.8 -15.57,-13.6 -5.93,-2.79 -8.89,-4.19 -8.89,-4.19 2.96,1.4 -1.49,2.09 -13.34,2.09l8.9 -4.18 -13.35 -6.28c-11.86,5.58 -14.07,11.51 -6.67,17.78 7.43,6.27 14.1,13.6 20.02,21.96 14.81,6.97 21.49,13.59 20.01,19.87 -1.5,6.27 5.18,12.9 20.01,19.87 5.92,2.79 7.4,4.18 4.45,4.18 -2.99,0 -1.49,4.19 4.44,12.56 14.83,-6.98 17.78,-16.74 8.9,-29.29 -8.9,-12.55 -19.27,-21.62 -31.13,-27.19zm-84.47 -73.21l0 -12.55 0 12.55zm8.89 -41.84l-22.24 10.47 22.24 -10.47zm-57.82 -27.18l26.69 0c-14.82,-6.97 -18.53,-9.41 -11.12,-7.32 7.42,2.09 6.66,-1.75 -2.21,-11.51l-13.36 18.83zm0 -25.1c0,-5.58 0,-8.37 0,-8.37 2.97,1.4 -1.48,-0.69 -13.33,-6.27l13.33 14.64zm-84.47 -73.22c5.92,8.37 11.12,10.8 15.55,7.32 4.45,-3.48 -0.72,-1.74 -15.55,5.23l35.57 16.74 -35.57 -29.29zm-13.33 -6.27l13.33 6.27 -13.33 -6.27zm-71.16 -46.01l8.88 -4.19 13.36 6.28 13.32 -6.28c-23.7,-5.58 -31.11,-6.97 -22.21,-4.18 8.89,2.79 2.96,2.09 -17.8,-2.09l4.44 10.46zm-53.35 -66.93l-8.91 4.18 40.03 18.83 -31.12 -23.01zm-31.12 -52.29c-2.96,-6.97 -16.3,-16.04 -40.02,-27.19l40.02 27.19zm84.49 52.29c5.91,-8.37 5.18,-15.69 -2.22,-21.96 -7.41,-6.28 -15.6,-14.3 -24.48,-24.06l-35.58 -4.18c-5.91,2.78 -8.87,4.18 -8.87,4.18 -2.97,1.4 -8.89,6.97 -17.79,16.74l-8.9 -4.18 -13.33 6.27 -26.7 -12.55c8.91,-4.19 8.91,-8.36 0,-12.55 -5.91,-2.79 -17.77,-4.19 -35.56,-4.19 44.48,20.91 74.11,41.84 88.92,62.75 23.73,-11.15 26.68,-16.74 8.92,-16.74 0,-8.36 4.44,-14.63 13.32,-18.82 0,8.36 4.44,14.64 13.35,18.82l57.79 27.19 13.36 -6.28 -22.22 -10.45zm-182.32 -73.21l-13.33 -6.28 13.33 6.28 22.23 10.46 -22.23 -10.46c-5.93,-2.8 -8.89,-2.8 -8.89,0 0,2.79 2.96,2.79 8.89,0zm-40.02 -18.83l26.69 12.55 -26.69 -12.55zm-35.57 -29.29c-5.93,-8.36 -5.93,-11.15 0,-8.36 5.93,2.79 2.97,4.19 -8.88,4.19l-4.45 10.46 13.32 6.28 35.58 16.73 13.33 -6.28 -48.91 -23.01zm111.17 18.83c5.92,-2.79 8.89,-2.79 8.89,0 0,2.79 -7.4,0.69 -22.23,-6.27 -5.91,-2.79 -6.67,-4.53 -2.22,-5.23 4.44,-0.7 0.76,-1.05 -11.12,-1.05l13.34 -6.28 -35.57 -16.73 -22.23 -10.46 -26.68 0 13.32 6.27 8.92 4.19 40 18.82 8.89 4.19c-8.89,4.18 -8.89,8.37 0.01,12.55l13.33 6.27 13.34 6.28 13.33 -6.28 8.9 16.74 13.34 -6.27c-11.86,-5.58 -18.52,-7.32 -20.01,-5.23 -1.5,2.08 -2.23,0.35 -2.23,-5.24l-13.33 -6.27zm-120.05 -56.47l22.23 -2.09 -8.9 -4.19 -13.33 6.28zm-1649.68 650.49l-13.33 6.28 13.33 -6.28zm71.16 -230.08c-8.89,9.76 -13.35,17.43 -13.35,23.01 0,5.58 0,11.16 0.01,16.74 11.87,-5.58 17.04,-12.2 15.55,-19.87 -1.48,-7.68 -2.21,-14.3 -2.21,-19.87zm738.11 -472.71l13.35 6.28 13.32 -6.28 -26.68 0zm-520.24 244.72l-13.33 6.27 40.02 -6.27 -26.69 0zm546.93 -257.27l-13.33 -6.28 13.33 6.28zm-862.62 313.75c2.96,1.38 4.43,3.48 4.43,6.26 0,5.58 2.98,9.76 8.91,12.55 11.86,-5.58 16.3,-8.36 13.33,-8.36 -2.94,0 -4.44,-2.79 -4.44,-8.36 -11.86,0 -17.05,-1.04 -15.55,-3.14 1.48,-2.09 -0.75,-1.75 -6.68,1.05zm493.57 -324.21l-8.9 -4.19c-14.82,-1.39 -22.21,2.09 -22.21,10.46l31.11 -6.27z"/>
  <path class="fil3" d="M7366.66 493.39c10.23,4.96 16.88,12.92 19.98,23.89 3.09,10.96 8.07,20.22 14.94,27.75 6.91,11.77 9.36,21.89 7.34,30.39 -2.01,8.49 -3.79,18.66 -5.34,30.53 6.87,7.54 11.17,13.83 12.92,18.89 1.75,5.06 2.68,11.81 2.79,20.28 -1.66,3.4 0.12,9.51 5.29,18.35 5.18,8.83 8.71,20 10.56,33.52 1.75,5.06 5.19,8.83 10.31,11.3 5.1,2.49 9.47,13 13.08,31.58 1.85,13.52 2.88,28.75 3.08,45.68l-2.48 5.11 -74.79 115.18 -18.73 25.63c-6.61,13.62 -13.88,25.35 -21.8,35.18 -7.93,9.82 -15.19,21.56 -21.8,35.17l-40.03 50 2.63 7.59 -21.22 30.73c-5.06,1.75 -7.8,2 -8.24,0.74 -0.44,-1.26 -2.73,2.36 -6.85,10.88l-37.41 57.58 -2.48 5.11 -38.56 66.49 -23.76 29.48c-4.13,8.52 -7.27,11.74 -9.41,9.65 -2.14,-2.09 -4.86,0.27 -8.17,7.08l-32.36 53.73 -2.48 5.1c-4.13,8.52 -7.27,11.72 -9.41,9.64 -2.15,-2.09 -4.86,0.27 -8.17,7.08l-9.91 20.43c-4.13,8.52 -9.75,15.77 -16.88,21.8 -7.13,6.01 -14.92,9.07 -23.38,9.17l-27.48 37.15 1.08 -15.25c-7.59,2.63 -12.2,5.65 -13.86,9.05 -4.96,10.23 -10.8,16.86 -17.54,19.9 -6.73,3.05 -11.75,7.97 -15.05,14.79l-19.83 40.87 -15.33 -7.44 -9.9 20.43 -9.91 20.44 -5.1 -2.49 55.75 -114.95 6.19 -12.77 7.44 -15.33 6.19 -12.77 -7.66 -3.71 13.63 -28.09c3.3,-6.82 4.33,-10 3.06,-9.57 -1.26,0.44 -2.78,-1.87 -4.53,-6.93l-3.71 7.66 -12.77 -6.2c-4.96,10.23 -9.12,16.63 -12.47,19.2 -3.36,2.58 -7.51,8.98 -12.47,19.19l-16.1 33.21c-4.95,10.22 -9.54,16.41 -13.74,18.57 -4.2,2.17 -8.78,8.36 -13.74,18.58l-6.19 12.77 -19.6 59.91 17.89 8.68 -9.9 20.43c-9.09,18.74 -12.29,34.02 -9.61,45.84 2.68,11.81 0.72,24.54 -5.89,38.17l-2.48 5.1 11.61 15.1 12.77 6.19 -11.38 3.95c0.88,2.53 1.96,4.63 3.25,6.32 1.29,1.67 2.37,3.78 3.25,6.31l2.63 7.59c-4.95,10.22 -11.63,17.49 -20.05,21.82 -8.42,4.34 -16.39,9.94 -23.92,16.8l-2.48 5.11c-6.61,13.62 -17.49,23.06 -32.66,28.32l5.18 8.83 -49.94 70.45c-3.3,6.81 -5.59,10.43 -6.86,10.88 -1.26,0.44 -6.15,-1.41 -14.66,-5.54 -6.82,-3.3 -10.46,-6.64 -10.92,-10.03 -0.46,-3.38 -3.28,-8.43 -8.44,-15.13 4.13,-8.52 5.98,-13.41 5.54,-14.67 -0.45,-1.26 -3.24,-5.26 -8.4,-11.96l-11.61 -15.1c-17.03,-8.26 -35.87,-25.81 -56.51,-52.64 -20.65,-26.85 -32.77,-49.56 -36.38,-68.14l-12.77 -6.19c-1.81,-9.29 -5.97,-21.3 -12.51,-36.04 -6.52,-14.73 -13.68,-29.24 -21.47,-43.54 -7.78,-14.3 -13.66,-28.2 -17.64,-41.69 -3.97,-13.49 -4.3,-23.65 -1,-30.46l19.82 -40.87 3.71 -7.66c3.41,1.65 7.62,0.54 12.66,-3.33 5.03,-3.87 8.37,-7.51 10.03,-10.91 4.12,-8.52 9.98,-14.08 17.58,-16.72 7.59,-2.64 12.2,-5.65 13.86,-9.06l22.29 -45.97c6.61,-13.64 12.42,-23.43 17.42,-29.42 5.01,-5.99 9.98,-14.09 14.95,-24.31l2.48 -5.1c4.13,-8.52 12.3,-15.61 24.5,-21.25 12.2,-5.65 23.31,-14.47 33.33,-26.43l107.15 -168.9 35.93 -74.08 51.03 -85.69c4.96,-10.23 9.11,-16.62 12.47,-19.2 3.36,-2.57 7.1,-8.12 11.22,-16.64l12.85 12.54c1.65,-3.4 3.54,-5.12 5.65,-5.15 2.12,-0.03 4,-1.74 5.66,-5.15l9.9 -20.43 47.31 -78.03 3.71 -7.67c5.06,-1.75 10.1,-4.56 15.13,-8.44 5.03,-3.87 8.37,-7.51 10.03,-10.91l3.71 -7.66c8.26,-17.03 26.2,-38.83 53.82,-65.4 27.61,-26.58 45.96,-49.23 55.05,-67.96l2.48 -5.11c7.54,-6.87 14.23,-13.08 20.09,-18.65 5.85,-5.58 11.26,-13.47 16.22,-23.68l7.66 3.71c-1.66,3.4 -3.96,4.92 -6.93,4.52 -2.97,-0.38 -5.27,1.12 -6.93,4.52 -4.12,8.52 -5.34,13.18 -3.63,14.01 3.4,1.66 2.63,7.59 -2.32,17.81l36.54 -23.29 7.43 -15.33 2.48 -5.1 3.72 -7.68c8.36,-8.56 16.13,-13.73 23.31,-15.51 7.17,-1.78 14.06,-9.48 20.66,-23.1l12.77 6.2 29.73 -61.32 2.49 -5.1c4.12,-8.52 9.35,-13.87 15.68,-16.07 6.32,-2.19 11.96,-8.4 16.91,-18.62 13.62,6.61 19.19,12.47 16.72,17.57 -2.48,5.11 -1.11,13.14 4.11,24.08l-22.7 14.23z"/>
  <path class="fil3" d="M8674.32 1846.31c5.89,9.73 7.15,20.02 3.79,30.91 -3.36,10.89 -4.2,21.36 -2.54,31.42 -0.59,13.64 -4.03,23.47 -10.34,29.5 -6.3,6.04 -13.32,13.61 -21.07,22.74 1.67,10.06 1.86,17.68 0.59,22.88 -1.27,5.2 -4.17,11.37 -8.68,18.54 -3.23,1.97 -5.08,8.06 -5.52,18.29 -0.44,10.23 -3.55,21.52 -9.34,33.88 -1.27,5.19 -0.44,10.23 2.51,15.09 2.94,4.85 0.88,16.06 -6.18,33.62 -5.79,12.36 -13.2,25.71 -22.22,40.03l-4.85 2.94 -125.37 56.07 -29.64 11.33c-12.95,7.85 -25.43,13.75 -37.42,17.7 -11.99,3.95 -24.46,9.85 -37.41,17.7l-60.77 20.24 -1.91 7.8 -34.51 14.27c-5.19,-1.27 -7.63,-2.56 -7.32,-3.86 0.32,-1.3 -3.56,0.5 -11.66,5.41l-62.69 28.03 -4.85 2.94 -68.5 34.88 -35.97 11.85c-8.11,4.91 -12.48,5.9 -13.15,2.98 -0.66,-2.92 -4.22,-2.41 -10.7,1.51l-56.36 27.52 -4.85 2.94c-8.09,4.91 -12.47,5.9 -13.13,2.98 -0.66,-2.92 -4.23,-2.41 -10.71,1.51l-19.42 11.78c-8.09,4.9 -16.76,7.95 -26.01,9.13 -9.25,1.18 -17.45,-0.49 -24.61,-5.01l-43.26 16.26 9.19 -12.21c-7.79,-1.92 -13.32,-1.89 -16.55,0.07 -9.72,5.89 -18.22,8.28 -25.54,7.18 -7.3,-1.1 -14.2,0.3 -20.67,4.23l-38.84 23.54 -8.83 -14.56 -19.43 11.78 -19.42 11.77 -2.95 -4.85 109.25 -66.22 12.15 -7.37 14.56 -8.83 12.14 -7.36 -4.42 -7.28 26.7 -16.19c6.48,-3.93 9.07,-6.05 7.77,-6.37 -1.3,-0.31 -1.31,-3.07 -0.04,-8.27l-7.29 4.42 -7.36 -12.15c-9.72,5.9 -16.68,9.01 -20.9,9.35 -4.21,0.34 -11.18,3.46 -20.89,9.34l-31.57 19.13c-9.71,5.89 -16.92,8.6 -21.63,8.13 -4.71,-0.47 -11.92,2.24 -21.63,8.12l-12.14 7.36 -49 39.66 10.3 17 -19.42 11.77c-17.81,10.8 -28.8,21.88 -32.97,33.26 -4.17,11.37 -12.73,20.99 -25.68,28.84l-4.85 2.95 1.54 18.97 7.36 12.14 -11.69 -2.87c-0.63,2.6 -0.86,4.95 -0.69,7.06 0.17,2.11 -0.06,4.46 -0.7,7.06l-1.91 7.79c-9.72,5.89 -19.27,8.36 -28.69,7.44 -9.42,-0.93 -19.16,-0.56 -29.22,1.1l-4.85 2.95c-12.95,7.85 -27.22,9.85 -42.82,6.03l-0.45 10.23 -80.2 32.01c-6.47,3.93 -10.36,5.73 -11.66,5.41 -1.3,-0.31 -4.4,-4.52 -9.31,-12.61 -3.93,-6.48 -5.17,-11.27 -3.71,-14.35 1.44,-3.09 1.83,-8.85 1.14,-17.29 8.1,-4.92 12.3,-8.02 12.62,-9.32 0.32,-1.3 0.13,-6.16 -0.55,-14.6l-1.55 -18.98c-9.81,-16.18 -16.09,-41.15 -18.84,-74.9 -2.75,-33.75 -0.59,-59.4 6.48,-76.96l-7.36 -12.14c3.53,-8.78 6.56,-21.13 9.08,-37.04 2.53,-15.92 4.4,-31.99 5.63,-48.22 1.23,-16.24 3.84,-31.1 7.84,-44.6 3.99,-13.49 9.23,-22.19 15.7,-26.12l38.85 -23.55 7.28 -4.41c1.96,3.23 6.11,4.6 12.43,4.08 6.32,-0.52 11.11,-1.75 14.35,-3.71 8.09,-4.91 16.03,-6.4 23.84,-4.49 7.79,1.92 13.32,1.89 16.55,-0.07l43.7 -26.48c12.95,-7.86 23.16,-12.93 30.61,-15.24 7.46,-2.31 16.03,-6.4 25.74,-12.28l4.85 -2.94c8.1,-4.91 18.8,-6.42 32.12,-4.53 13.32,1.89 27.43,0.53 42.34,-4.09l181.72 -83.58 70.41 -42.68 89.39 -44.21c9.72,-5.89 16.68,-9.01 20.9,-9.34 4.22,-0.35 10.38,-2.97 18.46,-7.87l3.97 17.51c3.24,-1.96 5.75,-2.38 7.54,-1.26 1.79,1.13 4.3,0.71 7.54,-1.25l19.43 -11.78 82.11 -39.81 7.28 -4.42c5.2,1.27 10.96,1.66 17.29,1.14 6.32,-0.52 11.11,-1.75 14.35,-3.71l7.28 -4.42c16.18,-9.81 43.09,-18.37 80.72,-25.67 37.62,-7.31 65.33,-16.36 83.14,-27.16l4.85 -2.94c10.06,-1.67 19.06,-3.26 27.01,-4.75 7.95,-1.5 16.77,-5.19 26.48,-11.08l4.41 7.29c-3.23,1.96 -5.99,1.98 -8.27,0.04 -2.28,-1.93 -5.03,-1.92 -8.27,0.04 -8.09,4.91 -11.65,8.17 -10.66,9.79 1.96,3.23 -1.92,7.79 -11.62,13.68l43.32 0.29 14.57 -8.83 4.85 -2.95 7.29 -4.42c11.68,-2.65 21.01,-2.76 27.99,-0.36 6.99,2.4 16.96,-0.32 29.91,-8.17l7.36 12.14 58.27 -35.33 4.85 -2.94c8.09,-4.91 15.38,-6.56 21.89,-4.97 6.49,1.59 14.6,-0.55 24.31,-6.44 7.85,12.95 9.34,20.9 4.49,23.84 -4.85,2.94 -8.06,10.42 -9.64,22.45l-26.78 -0.37z"/>
  <path class="fil3" d="M3710.02 563.11c-10.23,4.95 -16.88,12.92 -19.98,23.88 -3.09,10.96 -8.07,20.22 -14.93,27.75 -6.92,11.77 -9.37,21.89 -7.35,30.39 2.01,8.49 3.79,18.66 5.34,30.53 -6.86,7.54 -11.17,13.83 -12.92,18.89 -1.75,5.06 -2.68,11.82 -2.79,20.28 1.66,3.4 -0.11,9.52 -5.29,18.35 -5.18,8.83 -8.7,20 -10.56,33.52 -1.75,5.06 -5.19,8.83 -10.3,11.3 -5.11,2.49 -9.47,13.01 -13.08,31.58 -1.85,13.52 -2.88,28.75 -3.08,45.68l2.48 5.11 74.79 115.18 18.74 25.63c6.6,13.62 13.87,25.35 21.8,35.18 7.92,9.82 15.19,21.56 21.79,35.17l40.03 50 -2.63 7.59 21.22 30.74c5.06,1.75 7.8,2 8.25,0.73 0.44,-1.26 2.72,2.36 6.85,10.88l37.4 57.58 2.48 5.11 38.56 66.49 23.77 29.49c4.13,8.52 7.27,11.73 9.41,9.64 2.14,-2.08 4.86,0.28 8.17,7.08l32.37 53.73 2.48 5.1c4.12,8.52 7.26,11.73 9.41,9.64 2.14,-2.09 4.86,0.27 8.17,7.08l9.9 20.43c4.13,8.52 9.75,15.77 16.88,21.8 7.13,6.01 14.92,9.07 23.38,9.17l27.48 37.15 -1.08 -15.25c7.59,2.63 12.21,5.65 13.86,9.05 4.96,10.23 10.8,16.86 17.54,19.9 6.73,3.05 11.76,7.97 15.06,14.79l19.82 40.87 15.33 -7.43 9.9 20.43 9.91 20.43 5.11 -2.49 -55.75 -114.94 -6.2 -12.78 -7.44 -15.33 -6.19 -12.76 7.66 -3.72 -13.63 -28.09c-3.3,-6.82 -4.32,-10 -3.06,-9.57 1.26,0.44 2.77,-1.87 4.52,-6.93l3.71 7.66 12.78 -6.19c4.95,10.22 9.11,16.62 12.47,19.19 3.35,2.58 7.51,8.98 12.46,19.19l16.1 33.21c4.96,10.22 9.54,16.41 13.74,18.58 4.2,2.16 8.79,8.35 13.74,18.57l6.19 12.77 19.6 59.92 -17.89 8.68 9.91 20.43c9.09,18.73 12.28,34.01 9.6,45.83 -2.68,11.82 -0.72,24.54 5.9,38.17l2.48 5.1 -11.61 15.1 -12.76 6.2 11.37 3.95c-0.87,2.52 -1.96,4.63 -3.25,6.31 -1.29,1.67 -2.37,3.78 -3.25,6.31l-2.63 7.59c4.95,10.22 11.64,17.49 20.05,21.82 8.42,4.35 16.39,9.94 23.92,16.8l2.48 5.11c6.61,13.62 17.49,23.06 32.67,28.32l-5.18 8.83 49.94 70.45c3.3,6.81 5.58,10.44 6.85,10.88 1.26,0.44 6.15,-1.41 14.66,-5.54 6.82,-3.3 10.46,-6.64 10.93,-10.03 0.46,-3.38 3.27,-8.43 8.44,-15.13 -4.13,-8.52 -5.99,-13.41 -5.54,-14.67 0.44,-1.26 3.23,-5.26 8.39,-11.96l11.61 -15.1c17.02,-8.26 35.87,-25.8 56.51,-52.64 20.64,-26.85 32.76,-49.56 36.37,-68.13l12.77 -6.2c1.81,-9.29 5.97,-21.3 12.51,-36.04 6.53,-14.73 13.68,-29.24 21.47,-43.54 7.78,-14.3 13.66,-28.2 17.64,-41.69 3.97,-13.49 4.31,-23.65 1.01,-30.46l-19.83 -40.87 -3.71 -7.66c-3.41,1.65 -7.62,0.54 -12.66,-3.33 -5.03,-3.87 -8.37,-7.5 -10.03,-10.91 -4.12,-8.52 -9.98,-14.08 -17.58,-16.72 -7.58,-2.63 -12.2,-5.65 -13.85,-9.06l-22.3 -45.97c-6.61,-13.64 -12.42,-23.43 -17.42,-29.42 -5.01,-5.99 -9.98,-14.09 -14.95,-24.31l-2.48 -5.1c-4.12,-8.52 -12.3,-15.61 -24.5,-21.25 -12.2,-5.65 -23.31,-14.46 -33.32,-26.43l-107.16 -168.9 -35.93 -74.08 -51.03 -85.69c-4.96,-10.23 -9.11,-16.62 -12.47,-19.2 -3.35,-2.57 -7.09,-8.12 -11.22,-16.64l-12.84 12.54c-1.66,-3.4 -3.54,-5.12 -5.66,-5.15 -2.11,-0.03 -4,-1.74 -5.65,-5.15l-9.91 -20.43 -47.31 -78.03 -3.71 -7.67c-5.06,-1.75 -10.1,-4.56 -15.13,-8.44 -5.03,-3.87 -8.37,-7.5 -10.02,-10.91l-3.72 -7.66c-8.26,-17.03 -26.2,-38.83 -53.81,-65.4 -27.62,-26.58 -45.97,-49.23 -55.05,-67.96l-2.49 -5.1c-7.54,-6.88 -14.23,-13.09 -20.09,-18.66 -5.86,-5.58 -11.27,-13.47 -16.22,-23.68l-7.67 3.71c1.66,3.4 3.96,4.92 6.93,4.52 2.97,-0.38 5.28,1.12 6.93,4.52 4.13,8.52 5.34,13.19 3.64,14.01 -3.41,1.66 -2.64,7.59 2.32,17.81l-36.54 -23.29 -7.44 -15.33 -2.48 -5.1 -3.72 -7.67c-8.35,-8.57 -16.13,-13.73 -23.31,-15.52 -7.17,-1.78 -14.06,-9.48 -20.66,-23.1l-12.77 6.2 -29.73 -61.31 -2.48 -5.11c-4.13,-8.52 -9.36,-13.87 -15.69,-16.07 -6.32,-2.19 -11.95,-8.39 -16.91,-18.62 -13.62,6.61 -19.19,12.47 -16.72,17.57 2.49,5.11 1.11,13.14 -4.1,24.08l22.69 14.24z"/>
  <path class="fil3" d="M2402.36 1846.31c-5.89,9.73 -7.15,20.02 -3.79,30.91 3.36,10.89 4.2,21.36 2.54,31.42 0.59,13.64 4.03,23.47 10.34,29.5 6.3,6.04 13.32,13.61 21.07,22.74 -1.67,10.06 -1.87,17.68 -0.6,22.88 1.28,5.2 4.17,11.37 8.68,18.54 3.23,1.97 5.08,8.06 5.52,18.29 0.45,10.23 3.55,21.52 9.34,33.88 1.27,5.19 0.44,10.23 -2.5,15.09 -2.95,4.85 -0.89,16.06 6.17,33.62 5.79,12.36 13.2,25.71 22.22,40.03l4.85 2.94 125.37 56.07 29.65 11.33c12.94,7.85 25.42,13.75 37.41,17.7 12,3.95 24.46,9.85 37.41,17.7l60.77 20.24 1.92 7.8 34.51 14.27c5.2,-1.27 7.64,-2.56 7.32,-3.86 -0.32,-1.3 3.56,0.5 11.66,5.41l62.69 28.03 4.85 2.94 68.5 34.88 35.98 11.85c8.1,4.91 12.47,5.9 13.14,2.98 0.66,-2.92 4.23,-2.41 10.71,1.51l56.36 27.52 4.85 2.94c8.09,4.91 12.47,5.9 13.13,2.98 0.67,-2.92 4.23,-2.41 10.71,1.51l19.42 11.78c8.1,4.9 16.76,7.95 26.02,9.13 9.25,1.18 17.44,-0.49 24.6,-5.01l43.26 16.26 -9.19 -12.21c7.79,-1.92 13.32,-1.89 16.55,0.07 9.72,5.89 18.23,8.28 25.54,7.18 7.3,-1.1 14.2,0.3 20.67,4.23l38.84 23.54 8.84 -14.56 19.42 11.78 19.42 11.77 2.95 -4.85 -109.25 -66.22 -12.14 -7.37 -14.57 -8.83 -12.13 -7.36 4.41 -7.28 -26.7 -16.19c-6.48,-3.93 -9.07,-6.05 -7.77,-6.37 1.3,-0.31 1.31,-3.07 0.04,-8.27l7.29 4.42 7.36 -12.15c9.72,5.9 16.68,9.01 20.9,9.35 4.21,0.34 11.18,3.46 20.89,9.34l31.57 19.13c9.72,5.89 16.92,8.6 21.63,8.13 4.71,-0.47 11.92,2.24 21.64,8.12l12.13 7.36 49.01 39.66 -10.31 17 19.42 11.77c17.81,10.8 28.8,21.88 32.97,33.26 4.17,11.37 12.73,20.99 25.68,28.84l4.85 2.95 -1.54 18.97 -7.36 12.14 11.69 -2.87c0.64,2.6 0.87,4.95 0.69,7.06 -0.17,2.11 0.06,4.46 0.7,7.06l1.92 7.79c9.71,5.89 19.27,8.36 28.69,7.44 9.42,-0.93 19.16,-0.56 29.21,1.1l4.85 2.95c12.95,7.85 27.22,9.85 42.82,6.03l0.45 10.23 80.2 32.01c6.48,3.93 10.36,5.73 11.66,5.41 1.3,-0.31 4.4,-4.52 9.31,-12.61 3.93,-6.48 5.17,-11.27 3.71,-14.35 -1.44,-3.09 -1.83,-8.85 -1.13,-17.29 -8.11,-4.92 -12.31,-8.02 -12.63,-9.32 -0.31,-1.3 -0.13,-6.16 0.55,-14.6l1.55 -18.98c9.81,-16.18 16.1,-41.15 18.84,-74.9 2.75,-33.75 0.59,-59.4 -6.48,-76.96l7.36 -12.14c-3.53,-8.78 -6.56,-21.13 -9.08,-37.04 -2.53,-15.92 -4.4,-31.99 -5.63,-48.22 -1.23,-16.24 -3.84,-31.1 -7.83,-44.6 -4,-13.49 -9.24,-22.19 -15.71,-26.12l-38.84 -23.55 -7.29 -4.41c-1.96,3.23 -6.1,4.6 -12.43,4.08 -6.32,-0.52 -11.11,-1.75 -14.34,-3.71 -8.1,-4.91 -16.04,-6.4 -23.85,-4.49 -7.79,1.92 -13.31,1.89 -16.55,-0.07l-43.7 -26.48c-12.95,-7.86 -23.15,-12.93 -30.6,-15.24 -7.46,-2.31 -16.04,-6.4 -25.75,-12.28l-4.85 -2.94c-8.1,-4.91 -18.8,-6.42 -32.12,-4.53 -13.32,1.89 -27.42,0.53 -42.34,-4.09l-181.73 -83.58 -70.4 -42.68 -89.39 -44.21c-9.73,-5.89 -16.68,-9.01 -20.9,-9.34 -4.21,-0.35 -10.37,-2.97 -18.46,-7.87l-3.97 17.51c-3.23,-1.96 -5.75,-2.38 -7.54,-1.26 -1.79,1.13 -4.3,0.71 -7.54,-1.25l-19.43 -11.78 -82.11 -39.81 -7.29 -4.42c-5.2,1.27 -10.96,1.66 -17.29,1.14 -6.32,-0.52 -11.11,-1.75 -14.34,-3.71l-7.29 -4.42c-16.18,-9.81 -43.09,-18.37 -80.72,-25.67 -37.62,-7.31 -65.33,-16.36 -83.13,-27.16l-4.85 -2.94c-10.07,-1.67 -19.06,-3.26 -27.01,-4.75 -7.95,-1.5 -16.77,-5.19 -26.49,-11.08l-4.41 7.29c3.23,1.96 5.99,1.98 8.27,0.04 2.28,-1.93 5.04,-1.92 8.27,0.04 8.1,4.91 11.65,8.17 10.67,9.79 -1.97,3.23 1.91,7.79 11.62,13.68l-43.33 0.29 -14.56 -8.83 -4.85 -2.95 -7.29 -4.42c-11.67,-2.65 -21,-2.76 -27.99,-0.36 -6.99,2.4 -16.96,-0.32 -29.9,-8.17l-7.36 12.14 -58.27 -35.33 -4.86 -2.94c-8.09,-4.91 -15.38,-6.56 -21.88,-4.97 -6.5,1.59 -14.61,-0.55 -24.32,-6.44 -7.85,12.95 -9.34,20.9 -4.49,23.84 4.85,2.94 8.07,10.42 9.64,22.45l26.78 -0.37z"/>
 </g>
</svg>
